<svg width="390" height="400" viewBox="0 0 390 400" fill="none" xmlns="http://www.w3.org/2000/svg">
<mask id="mask0_160_292" style="mask-type:luminance" maskUnits="userSpaceOnUse" x="53" y="53" width="284" height="290">
<path d="M335.912 192.659C334.148 147.483 307.368 100.429 271.636 75.743C204.405 29.3075 125.952 60.4971 79.0815 118.633C42.5631 163.931 49.0831 237.582 77.58 284.713C111.7 341.138 185.98 353.386 244.546 332.878C302.208 312.687 338.276 253.186 335.912 192.659Z" fill="white"/>
</mask>
<g mask="url(#mask0_160_292)">
<path d="M335.912 192.659C334.148 147.483 307.368 100.429 271.636 75.743C204.405 29.3075 125.952 60.4971 79.0815 118.633C42.5631 163.931 49.083 237.582 77.58 284.713C111.7 341.138 185.98 353.386 244.545 332.878C302.208 312.687 338.276 253.186 335.912 192.659Z" fill="#F3D324"/>
<path d="M280.765 48.7261C210.338 151.504 140.106 254.134 75.7481 360.846C73.9095 363.896 78.2889 366.777 80.3591 363.88C152.87 262.53 219.301 157.4 285.795 52.0346C287.868 48.7494 282.961 45.522 280.765 48.7261Z" fill="#F89F0E"/>
<path d="M36.7169 96.2757C97.0804 138.55 158.33 179.583 219.652 220.451C250.251 240.844 280.818 261.28 311.635 281.339C318.38 285.727 325.106 290.16 331.832 294.597C357.352 311.421 382.909 328.272 409.749 342.862C413.83 345.081 417.355 339.722 413.702 336.853C355.997 291.53 291.734 253.422 230.23 213.491C167.02 172.452 103.706 131.513 39.5655 91.9452C36.7201 90.1892 33.9777 94.3582 36.7169 96.2757Z" fill="#F89F0E"/>
<path d="M36.7169 96.2757C97.0804 138.55 158.33 179.583 219.652 220.451C250.251 240.844 280.818 261.28 311.635 281.339C318.38 285.727 325.106 290.16 331.832 294.597C357.352 311.421 382.909 328.272 409.749 342.862C413.83 345.081 417.355 339.722 413.702 336.853C355.997 291.53 291.734 253.422 230.23 213.491C167.02 172.452 103.706 131.513 39.5655 91.9452C36.7201 90.1892 33.9777 94.3582 36.7169 96.2757Z" fill="#F89F0E"/>
<path d="M32.7942 247.499C105.722 228.815 178.265 208.579 250.739 188.218C321.696 168.287 394.71 150.906 463.636 124.667C467.55 123.178 465.206 117.152 461.313 117.924C389.397 132.174 318.68 156.141 248.383 176.801C175.999 198.074 103.624 219.493 31.7456 242.422C28.6288 243.416 29.4994 248.342 32.7942 247.499Z" fill="#F89F0E"/>
<path d="M212.491 361.318C205.249 287.898 196.502 214.611 187.576 141.378C183.128 104.869 178.734 68.3578 173.888 31.8982C168.814 -6.27865 164.816 -44.759 156.726 -82.4359C155.893 -86.3176 149.432 -86.0832 149.614 -81.8996C152.812 -8.21726 165.76 65.711 175.552 138.759C185.553 213.373 195.696 288.001 207.413 362.364C207.943 365.724 212.812 364.574 212.491 361.318Z" fill="#F89F0E"/>
<path d="M335.912 192.659L357.302 191.825C356.235 165.295 348.044 139.257 335.226 116.124C322.36 93.0112 304.826 72.6971 283.803 58.1312C282.79 57.4313 281.773 56.747 280.755 56.0775C261.551 43.424 241.055 35.9293 220.589 33.1679C205.239 31.0827 189.94 31.6285 175.157 34.3403C152.967 38.4118 131.948 47.3017 112.921 59.5272C93.8915 71.7628 76.8114 87.3511 62.4166 105.199C59.931 108.28 57.6178 111.461 55.4709 114.725C46.403 128.512 40.3269 143.731 36.7181 159.383C31.3188 182.883 31.357 207.397 35.4236 230.798C39.5244 254.203 47.649 276.544 59.2624 295.788C69.9802 313.536 84.2041 327.749 100.294 338.314C122.686 353.029 148.51 360.838 174.594 362.981C200.703 365.105 227.2 361.617 251.619 353.082C268.095 347.316 283.047 338.797 296.12 328.272C309.195 317.745 320.402 305.22 329.524 291.353C348.597 262.326 358.669 227.405 357.302 191.825L335.912 192.659L314.524 193.495C315.573 219.816 307.964 246.262 293.756 267.824C286.977 278.13 278.725 287.315 269.273 294.921C259.815 302.533 249.172 308.574 237.47 312.673C218.818 319.221 197.994 321.956 178.09 320.31C158.156 318.684 139.272 312.728 123.822 302.546C112.682 295.203 103.233 285.742 95.8991 273.636C90.1973 264.216 85.3709 253.224 81.8595 241.488C76.5729 223.885 74.2874 204.63 75.7552 186.575C76.4815 177.542 78.1271 168.812 80.7067 160.682C83.2874 152.547 86.7905 145.018 91.2396 138.254C92.6457 136.117 94.1466 134.053 95.7475 132.068C106.082 119.245 118.137 107.914 131.148 98.8398C140.906 92.031 151.195 86.4911 161.689 82.4616C177.448 76.4135 193.582 73.7529 209.518 75.0206C225.468 76.319 241.346 81.4296 257.226 91.8455C257.974 92.3375 258.721 92.8408 259.468 93.3569C274.177 103.477 287.9 119.031 297.798 136.909C307.743 154.77 313.824 174.848 314.522 193.497L335.912 192.659Z" fill="#F89F0E"/>
</g>
<path d="M195.143 77.2662C162.381 75.3024 133.806 92.9164 112.828 116.803C102.037 129.09 93.031 142.769 86.2847 157.669C80.5855 170.256 74.4652 186.426 79.7629 200.07C80.9381 203.105 85.0601 202.726 86.7124 200.495C93.5249 191.292 96.2878 179.099 100.901 168.729C106.912 155.215 115.051 142.495 124.208 130.922C140.902 109.825 166.288 89.3498 194.462 90.1288C202.743 90.3579 203.462 77.7641 195.143 77.2662Z" fill="#FFFEFC"/>
<path d="M222.401 97.8104L222.88 97.8608C230.562 98.679 236.669 89.3954 232.876 82.6658L232.639 82.2478C230.718 78.8381 227.552 76.4723 223.541 76.2635C219.746 76.0655 216.051 77.9301 213.96 81.109C211.87 84.2857 211.621 88.4174 213.304 91.8261C215.084 95.4262 218.511 97.3947 222.401 97.8104Z" fill="#FFFEFC"/>
<mask id="mask1_160_292" style="mask-type:luminance" maskUnits="userSpaceOnUse" x="106" y="103" width="194" height="200">
<path d="M146.178 287.104C143.32 285.224 140.577 283.161 137.968 280.906C153.905 257.314 169.603 233.583 185.155 209.738C189.376 240.52 193.703 271.295 198.232 302.032C179.691 301.843 161.331 297.075 146.178 287.104ZM130.299 273.271C127.455 270.005 124.845 266.447 122.511 262.586C116.299 252.313 111.609 240.202 108.903 227.462C129.712 221.855 150.502 216.16 171.275 210.411C157.474 231.27 143.798 252.212 130.299 273.271ZM206.317 301.825C202.781 269.232 199.018 236.661 195.144 204.104C203.312 209.556 211.481 215.006 219.651 220.451C240.25 234.18 260.832 247.927 281.488 261.566C270.661 276.984 255.488 289.22 237.125 295.651C227.312 299.087 216.857 301.185 206.317 301.825ZM107.39 218.84C104.224 195.983 107.55 172.005 119.907 153.529C140.397 167.421 160.937 181.225 181.512 194.991C181.086 195.63 180.65 196.284 180.225 196.924C155.923 204.148 131.638 211.435 107.39 218.84ZM125.647 146.034C138.439 130.92 154.373 118.681 171.757 111.33C173.055 120.486 174.328 129.628 175.552 138.759C177.476 153.113 179.404 167.466 181.349 181.818C162.812 169.843 144.251 157.904 125.647 146.034ZM196.801 191.811C213.605 165.864 230.244 139.806 246.816 113.687C249.193 114.965 251.556 116.371 253.902 117.914C254.508 118.312 255.12 118.724 255.722 119.141C270.785 129.546 283.53 145.742 291.404 163.872C277.041 168.245 262.704 172.593 248.382 176.801C231.256 181.835 214.128 186.876 197.005 191.946C196.937 191.901 196.871 191.858 196.801 191.811ZM209.217 199.857C223.062 195.989 236.902 192.106 250.739 188.218C265.691 184.019 280.725 179.935 295.8 175.854C298.133 183.605 299.539 191.541 299.848 199.398C300.544 217.273 296.36 235.018 288.212 250.539C268.801 238.181 249.385 225.926 230.23 213.491C223.226 208.944 216.224 204.399 209.217 199.857ZM192.146 179.066C190.633 166.501 189.107 153.938 187.576 141.378C186.188 129.989 184.806 118.598 183.414 107.21C201.397 102.092 220.465 102.324 238.9 109.935C223.23 132.927 207.619 155.96 192.146 179.066Z" fill="white"/>
</mask>
<g mask="url(#mask1_160_292)">
<path d="M66.3695 234.609L228.894 341.518L339.111 173.966L176.587 67.0561L66.3695 234.609Z" fill="#F5E055"/>
</g>
<path d="M137.969 280.906C135.26 278.568 132.694 276.021 130.3 273.271C143.799 252.213 157.474 231.27 171.275 210.411C175.762 209.17 180.249 207.927 184.735 206.679C184.874 207.699 185.014 208.717 185.155 209.738C169.603 233.584 153.905 257.314 137.969 280.906ZM180.226 196.924C180.65 196.284 181.086 195.63 181.512 194.991C182.047 195.349 182.582 195.707 183.117 196.065C182.153 196.35 181.188 196.638 180.226 196.924ZM193.414 189.62C192.993 186.101 192.57 182.583 192.147 179.066C207.62 155.96 223.231 132.927 238.9 109.935C241.554 111.033 244.193 112.279 246.816 113.688C230.244 139.806 213.605 165.864 196.801 191.812C195.674 191.082 194.542 190.35 193.414 189.62Z" fill="#F9BB36"/>
<path d="M281.491 261.562C260.835 247.923 240.253 234.176 219.654 220.447C211.484 215.002 203.315 209.552 195.147 204.1C195.135 203.995 195.123 203.893 195.111 203.79C199.815 202.48 204.517 201.167 209.22 199.853C216.227 204.395 223.229 208.94 230.233 213.487C249.388 225.922 268.804 238.177 288.215 250.535C286.21 254.355 283.963 258.04 281.491 261.562ZM183.12 196.061C182.585 195.703 182.05 195.345 181.515 194.987C160.94 181.221 140.4 167.417 119.91 153.525C121.047 151.825 122.256 150.176 123.546 148.577C124.237 147.72 124.939 146.869 125.65 146.03C144.254 157.9 162.815 169.839 181.352 181.814C181.993 186.546 182.636 191.28 183.28 196.011C183.223 196.028 183.177 196.043 183.12 196.061ZM193.81 192.888C193.678 191.797 193.549 190.707 193.417 189.616C194.615 190.392 195.812 191.167 197.008 191.942C195.945 192.256 194.872 192.573 193.81 192.888Z" fill="#F9BB36"/>
<path d="M108.903 227.461C108.297 224.615 107.792 221.737 107.39 218.84C131.639 211.435 155.923 204.148 180.226 196.924C181.188 196.637 182.153 196.35 183.117 196.065C183.174 196.047 183.221 196.032 183.278 196.015C183.762 199.573 184.249 203.123 184.735 206.679C180.249 207.926 175.763 209.17 171.275 210.41C150.503 216.16 129.712 221.855 108.903 227.461ZM195.108 203.794C194.675 200.157 194.242 196.527 193.807 192.892C194.87 192.577 195.943 192.26 197.005 191.945C214.128 186.876 231.256 181.835 248.383 176.801C262.705 172.592 277.042 168.245 291.405 163.872C293.106 167.788 294.579 171.796 295.801 175.854C280.725 179.935 265.691 184.019 250.739 188.218C236.902 192.106 223.063 195.989 209.218 199.857C204.514 201.171 199.812 202.483 195.108 203.794Z" fill="#F9BB36"/>
<path d="M198.232 302.032C193.704 271.295 189.377 240.52 185.155 209.738C185.014 208.717 184.874 207.699 184.735 206.679C184.249 203.123 183.762 199.573 183.277 196.015C182.633 191.283 181.99 186.55 181.349 181.817C179.404 167.466 177.476 153.113 175.552 138.759C174.328 129.628 173.055 120.486 171.757 111.33C175.582 109.712 179.467 108.334 183.414 107.21C184.806 118.598 186.188 129.989 187.576 141.378C189.107 153.938 190.633 166.501 192.147 179.065C192.57 182.583 192.993 186.1 193.414 189.62C193.546 190.711 193.675 191.801 193.807 192.892C194.241 196.527 194.675 200.157 195.108 203.794C195.12 203.896 195.132 203.999 195.144 204.104C199.018 236.66 202.781 269.232 206.317 301.825C203.624 301.99 200.926 302.06 198.232 302.032Z" fill="#F9BB36"/>
<g filter="url(#filter0_d_160_292)">
<mask id="path-17-outside-1_160_292" maskUnits="userSpaceOnUse" x="103" y="179" width="194" height="36" fill="black">
<rect fill="white" x="103" y="179" width="194" height="36"/>
<path d="M109.438 213.45C107.878 213.45 106.678 213.03 105.838 212.19C104.998 211.32 104.578 210.09 104.578 208.5V185.775C104.578 184.185 104.998 182.97 105.838 182.13C106.678 181.26 107.878 180.825 109.438 180.825C110.998 180.825 112.183 181.26 112.993 182.13C113.833 182.97 114.253 184.185 114.253 185.775V192.975H125.503V185.775C125.503 184.185 125.923 182.97 126.763 182.13C127.603 181.26 128.803 180.825 130.363 180.825C131.923 180.825 133.108 181.26 133.918 182.13C134.758 182.97 135.178 184.185 135.178 185.775V208.5C135.178 210.09 134.758 211.32 133.918 212.19C133.108 213.03 131.923 213.45 130.363 213.45C128.803 213.45 127.603 213.03 126.763 212.19C125.923 211.32 125.503 210.09 125.503 208.5V200.895H114.253V208.5C114.253 210.09 113.848 211.32 113.038 212.19C112.228 213.03 111.028 213.45 109.438 213.45ZM142.465 213.45C141.385 213.45 140.47 213.195 139.72 212.685C139 212.175 138.535 211.485 138.325 210.615C138.145 209.715 138.31 208.71 138.82 207.6L149.665 184.74C150.295 183.39 151.06 182.4 151.96 181.77C152.89 181.14 153.955 180.825 155.155 180.825C156.355 180.825 157.405 181.14 158.305 181.77C159.205 182.4 159.97 183.39 160.6 184.74L171.445 207.6C171.985 208.74 172.165 209.76 171.985 210.66C171.835 211.53 171.4 212.22 170.68 212.73C169.99 213.21 169.12 213.45 168.07 213.45C166.69 213.45 165.625 213.135 164.875 212.505C164.125 211.875 163.45 210.855 162.85 209.445L160.69 204.405L164.29 207.105H145.975L149.575 204.405L147.415 209.445C146.815 210.855 146.185 211.875 145.525 212.505C144.865 213.135 143.845 213.45 142.465 213.45ZM155.065 191.265L150.475 202.29L149.125 199.725H161.14L159.79 202.29L155.155 191.265H155.065ZM196.878 213.45C195.318 213.45 194.118 213.03 193.278 212.19C192.438 211.32 192.018 210.09 192.018 208.5V202.56C191.448 202.74 190.668 202.905 189.678 203.055C188.718 203.205 187.758 203.28 186.798 203.28C183.918 203.28 181.458 202.785 179.418 201.795C177.378 200.775 175.818 199.245 174.738 197.205C173.658 195.135 173.118 192.525 173.118 189.375V185.775C173.118 184.185 173.538 182.97 174.378 182.13C175.218 181.26 176.418 180.825 177.978 180.825C179.538 180.825 180.723 181.26 181.533 182.13C182.373 182.97 182.793 184.185 182.793 185.775V189.105C182.793 191.325 183.228 192.9 184.098 193.83C184.998 194.76 186.318 195.225 188.058 195.225C188.658 195.225 189.318 195.18 190.038 195.09C190.788 194.97 191.448 194.805 192.018 194.595V185.775C192.018 184.185 192.438 182.97 193.278 182.13C194.118 181.26 195.318 180.825 196.878 180.825C198.438 180.825 199.623 181.26 200.433 182.13C201.273 182.97 201.693 184.185 201.693 185.775V208.5C201.693 210.09 201.288 211.32 200.478 212.19C199.668 213.03 198.468 213.45 196.878 213.45ZM208.998 213.45C207.918 213.45 207.003 213.195 206.253 212.685C205.533 212.175 205.068 211.485 204.858 210.615C204.678 209.715 204.843 208.71 205.353 207.6L216.198 184.74C216.828 183.39 217.593 182.4 218.493 181.77C219.423 181.14 220.488 180.825 221.688 180.825C222.888 180.825 223.938 181.14 224.838 181.77C225.738 182.4 226.503 183.39 227.133 184.74L237.978 207.6C238.518 208.74 238.698 209.76 238.518 210.66C238.368 211.53 237.933 212.22 237.213 212.73C236.523 213.21 235.653 213.45 234.603 213.45C233.223 213.45 232.158 213.135 231.408 212.505C230.658 211.875 229.983 210.855 229.383 209.445L227.223 204.405L230.823 207.105H212.508L216.108 204.405L213.948 209.445C213.348 210.855 212.718 211.875 212.058 212.505C211.398 213.135 210.378 213.45 208.998 213.45ZM221.598 191.265L217.008 202.29L215.658 199.725H227.673L226.323 202.29L221.688 191.265H221.598ZM249.84 213.45C248.28 213.45 247.08 213.03 246.24 212.19C245.4 211.32 244.98 210.105 244.98 208.545V189.105H238.86C237.57 189.105 236.58 188.775 235.89 188.115C235.23 187.425 234.9 186.45 234.9 185.19C234.9 183.93 235.23 182.97 235.89 182.31C236.58 181.62 237.57 181.275 238.86 181.275H260.775C262.065 181.275 263.04 181.62 263.7 182.31C264.39 182.97 264.735 183.93 264.735 185.19C264.735 186.45 264.39 187.425 263.7 188.115C263.04 188.775 262.065 189.105 260.775 189.105H254.655V208.545C254.655 210.105 254.25 211.32 253.44 212.19C252.63 213.03 251.43 213.45 249.84 213.45ZM272.17 213C270.55 213 269.305 212.58 268.435 211.74C267.595 210.87 267.175 209.625 267.175 208.005V185.775C267.175 184.185 267.595 182.97 268.435 182.13C269.275 181.26 270.475 180.825 272.035 180.825C273.595 180.825 274.78 181.26 275.59 182.13C276.43 182.97 276.85 184.185 276.85 185.775V193.11H283.69C286.03 193.11 288.04 193.5 289.72 194.28C291.43 195.06 292.735 196.185 293.635 197.655C294.565 199.125 295.03 200.925 295.03 203.055C295.03 206.235 294.01 208.695 291.97 210.435C289.93 212.145 287.17 213 283.69 213H272.17ZM276.85 205.8H282.34C283.6 205.8 284.5 205.575 285.04 205.125C285.61 204.675 285.895 203.985 285.895 203.055C285.895 202.125 285.61 201.435 285.04 200.985C284.5 200.535 283.6 200.31 282.34 200.31H276.85V205.8Z"/>
</mask>
<path d="M109.438 213.45C107.878 213.45 106.678 213.03 105.838 212.19C104.998 211.32 104.578 210.09 104.578 208.5V185.775C104.578 184.185 104.998 182.97 105.838 182.13C106.678 181.26 107.878 180.825 109.438 180.825C110.998 180.825 112.183 181.26 112.993 182.13C113.833 182.97 114.253 184.185 114.253 185.775V192.975H125.503V185.775C125.503 184.185 125.923 182.97 126.763 182.13C127.603 181.26 128.803 180.825 130.363 180.825C131.923 180.825 133.108 181.26 133.918 182.13C134.758 182.97 135.178 184.185 135.178 185.775V208.5C135.178 210.09 134.758 211.32 133.918 212.19C133.108 213.03 131.923 213.45 130.363 213.45C128.803 213.45 127.603 213.03 126.763 212.19C125.923 211.32 125.503 210.09 125.503 208.5V200.895H114.253V208.5C114.253 210.09 113.848 211.32 113.038 212.19C112.228 213.03 111.028 213.45 109.438 213.45ZM142.465 213.45C141.385 213.45 140.47 213.195 139.72 212.685C139 212.175 138.535 211.485 138.325 210.615C138.145 209.715 138.31 208.71 138.82 207.6L149.665 184.74C150.295 183.39 151.06 182.4 151.96 181.77C152.89 181.14 153.955 180.825 155.155 180.825C156.355 180.825 157.405 181.14 158.305 181.77C159.205 182.4 159.97 183.39 160.6 184.74L171.445 207.6C171.985 208.74 172.165 209.76 171.985 210.66C171.835 211.53 171.4 212.22 170.68 212.73C169.99 213.21 169.12 213.45 168.07 213.45C166.69 213.45 165.625 213.135 164.875 212.505C164.125 211.875 163.45 210.855 162.85 209.445L160.69 204.405L164.29 207.105H145.975L149.575 204.405L147.415 209.445C146.815 210.855 146.185 211.875 145.525 212.505C144.865 213.135 143.845 213.45 142.465 213.45ZM155.065 191.265L150.475 202.29L149.125 199.725H161.14L159.79 202.29L155.155 191.265H155.065ZM196.878 213.45C195.318 213.45 194.118 213.03 193.278 212.19C192.438 211.32 192.018 210.09 192.018 208.5V202.56C191.448 202.74 190.668 202.905 189.678 203.055C188.718 203.205 187.758 203.28 186.798 203.28C183.918 203.28 181.458 202.785 179.418 201.795C177.378 200.775 175.818 199.245 174.738 197.205C173.658 195.135 173.118 192.525 173.118 189.375V185.775C173.118 184.185 173.538 182.97 174.378 182.13C175.218 181.26 176.418 180.825 177.978 180.825C179.538 180.825 180.723 181.26 181.533 182.13C182.373 182.97 182.793 184.185 182.793 185.775V189.105C182.793 191.325 183.228 192.9 184.098 193.83C184.998 194.76 186.318 195.225 188.058 195.225C188.658 195.225 189.318 195.18 190.038 195.09C190.788 194.97 191.448 194.805 192.018 194.595V185.775C192.018 184.185 192.438 182.97 193.278 182.13C194.118 181.26 195.318 180.825 196.878 180.825C198.438 180.825 199.623 181.26 200.433 182.13C201.273 182.97 201.693 184.185 201.693 185.775V208.5C201.693 210.09 201.288 211.32 200.478 212.19C199.668 213.03 198.468 213.45 196.878 213.45ZM208.998 213.45C207.918 213.45 207.003 213.195 206.253 212.685C205.533 212.175 205.068 211.485 204.858 210.615C204.678 209.715 204.843 208.71 205.353 207.6L216.198 184.74C216.828 183.39 217.593 182.4 218.493 181.77C219.423 181.14 220.488 180.825 221.688 180.825C222.888 180.825 223.938 181.14 224.838 181.77C225.738 182.4 226.503 183.39 227.133 184.74L237.978 207.6C238.518 208.74 238.698 209.76 238.518 210.66C238.368 211.53 237.933 212.22 237.213 212.73C236.523 213.21 235.653 213.45 234.603 213.45C233.223 213.45 232.158 213.135 231.408 212.505C230.658 211.875 229.983 210.855 229.383 209.445L227.223 204.405L230.823 207.105H212.508L216.108 204.405L213.948 209.445C213.348 210.855 212.718 211.875 212.058 212.505C211.398 213.135 210.378 213.45 208.998 213.45ZM221.598 191.265L217.008 202.29L215.658 199.725H227.673L226.323 202.29L221.688 191.265H221.598ZM249.84 213.45C248.28 213.45 247.08 213.03 246.24 212.19C245.4 211.32 244.98 210.105 244.98 208.545V189.105H238.86C237.57 189.105 236.58 188.775 235.89 188.115C235.23 187.425 234.9 186.45 234.9 185.19C234.9 183.93 235.23 182.97 235.89 182.31C236.58 181.62 237.57 181.275 238.86 181.275H260.775C262.065 181.275 263.04 181.62 263.7 182.31C264.39 182.97 264.735 183.93 264.735 185.19C264.735 186.45 264.39 187.425 263.7 188.115C263.04 188.775 262.065 189.105 260.775 189.105H254.655V208.545C254.655 210.105 254.25 211.32 253.44 212.19C252.63 213.03 251.43 213.45 249.84 213.45ZM272.17 213C270.55 213 269.305 212.58 268.435 211.74C267.595 210.87 267.175 209.625 267.175 208.005V185.775C267.175 184.185 267.595 182.97 268.435 182.13C269.275 181.26 270.475 180.825 272.035 180.825C273.595 180.825 274.78 181.26 275.59 182.13C276.43 182.97 276.85 184.185 276.85 185.775V193.11H283.69C286.03 193.11 288.04 193.5 289.72 194.28C291.43 195.06 292.735 196.185 293.635 197.655C294.565 199.125 295.03 200.925 295.03 203.055C295.03 206.235 294.01 208.695 291.97 210.435C289.93 212.145 287.17 213 283.69 213H272.17ZM276.85 205.8H282.34C283.6 205.8 284.5 205.575 285.04 205.125C285.61 204.675 285.895 203.985 285.895 203.055C285.895 202.125 285.61 201.435 285.04 200.985C284.5 200.535 283.6 200.31 282.34 200.31H276.85V205.8Z" fill="#292D32"/>
<path d="M105.838 212.19L105.118 212.885L105.124 212.891L105.131 212.897L105.838 212.19ZM105.838 182.13L106.545 182.837L106.551 182.831L106.557 182.825L105.838 182.13ZM112.993 182.13L112.261 182.811L112.273 182.824L112.286 182.837L112.993 182.13ZM114.253 192.975H113.253V193.975H114.253V192.975ZM125.503 192.975V193.975H126.503V192.975H125.503ZM126.763 182.13L127.47 182.837L127.476 182.831L127.482 182.825L126.763 182.13ZM133.918 182.13L133.186 182.811L133.198 182.824L133.211 182.837L133.918 182.13ZM133.918 212.19L133.198 211.495L133.198 211.496L133.918 212.19ZM126.763 212.19L126.043 212.885L126.049 212.891L126.056 212.897L126.763 212.19ZM125.503 200.895H126.503V199.895H125.503V200.895ZM114.253 200.895V199.895H113.253V200.895H114.253ZM113.038 212.19L113.758 212.884L113.764 212.878L113.77 212.871L113.038 212.19ZM109.438 212.45C108.057 212.45 107.144 212.082 106.545 211.483L105.131 212.897C106.211 213.978 107.699 214.45 109.438 214.45V212.45ZM106.557 211.495C105.948 210.865 105.578 209.915 105.578 208.5H103.578C103.578 210.265 104.047 211.775 105.118 212.885L106.557 211.495ZM105.578 208.5V185.775H103.578V208.5H105.578ZM105.578 185.775C105.578 184.358 105.949 183.433 106.545 182.837L105.131 181.423C104.046 182.507 103.578 184.012 103.578 185.775H105.578ZM106.557 182.825C107.158 182.202 108.066 181.825 109.438 181.825V179.825C107.689 179.825 106.197 180.318 105.118 181.435L106.557 182.825ZM109.438 181.825C110.811 181.825 111.694 182.203 112.261 182.811L113.725 181.449C112.671 180.317 111.184 179.825 109.438 179.825V181.825ZM112.286 182.837C112.881 183.433 113.253 184.358 113.253 185.775H115.253C115.253 184.012 114.784 182.507 113.7 181.423L112.286 182.837ZM113.253 185.775V192.975H115.253V185.775H113.253ZM114.253 193.975H125.503V191.975H114.253V193.975ZM126.503 192.975V185.775H124.503V192.975H126.503ZM126.503 185.775C126.503 184.358 126.874 183.433 127.47 182.837L126.056 181.423C124.971 182.507 124.503 184.012 124.503 185.775H126.503ZM127.482 182.825C128.083 182.202 128.991 181.825 130.363 181.825V179.825C128.614 179.825 127.122 180.318 126.043 181.435L127.482 182.825ZM130.363 181.825C131.736 181.825 132.619 182.203 133.186 182.811L134.65 181.449C133.596 180.317 132.109 179.825 130.363 179.825V181.825ZM133.211 182.837C133.806 183.433 134.178 184.358 134.178 185.775H136.178C136.178 184.012 135.709 182.507 134.625 181.423L133.211 182.837ZM134.178 185.775V208.5H136.178V185.775H134.178ZM134.178 208.5C134.178 209.915 133.807 210.865 133.198 211.495L134.637 212.885C135.708 211.775 136.178 210.265 136.178 208.5H134.178ZM133.198 211.496C132.633 212.081 131.746 212.45 130.363 212.45V214.45C132.099 214.45 133.582 213.979 134.638 212.884L133.198 211.496ZM130.363 212.45C128.982 212.45 128.069 212.082 127.47 211.483L126.056 212.897C127.136 213.978 128.624 214.45 130.363 214.45V212.45ZM127.482 211.495C126.873 210.865 126.503 209.915 126.503 208.5H124.503C124.503 210.265 124.972 211.775 126.043 212.885L127.482 211.495ZM126.503 208.5V200.895H124.503V208.5H126.503ZM125.503 199.895H114.253V201.895H125.503V199.895ZM113.253 200.895V208.5H115.253V200.895H113.253ZM113.253 208.5C113.253 209.924 112.892 210.879 112.306 211.509L113.77 212.871C114.803 211.761 115.253 210.256 115.253 208.5H113.253ZM112.318 211.496C111.757 212.078 110.858 212.45 109.438 212.45V214.45C111.198 214.45 112.699 213.982 113.758 212.884L112.318 211.496ZM139.72 212.685L139.142 213.501L139.15 213.507L139.158 213.512L139.72 212.685ZM138.325 210.615L137.345 210.811L137.349 210.83L137.353 210.85L138.325 210.615ZM138.82 207.6L137.917 207.171L137.912 207.182L138.82 207.6ZM149.665 184.74L150.569 185.169L150.571 185.163L149.665 184.74ZM151.96 181.77L151.399 180.942L151.393 180.946L151.387 180.951L151.96 181.77ZM158.305 181.77L157.732 182.589V182.589L158.305 181.77ZM160.6 184.74L159.694 185.163L159.697 185.169L160.6 184.74ZM171.445 207.6L172.349 207.172L172.349 207.171L171.445 207.6ZM171.985 210.66L171.005 210.464L171.002 210.477L171 210.49L171.985 210.66ZM170.68 212.73L171.251 213.551L171.258 213.546L170.68 212.73ZM164.875 212.505L165.518 211.739H165.518L164.875 212.505ZM162.85 209.445L163.77 209.053L163.769 209.051L162.85 209.445ZM160.69 204.405L161.29 203.605L158.297 201.36L159.771 204.799L160.69 204.405ZM164.29 207.105V208.105H167.29L164.89 206.305L164.29 207.105ZM145.975 207.105L145.375 206.305L142.975 208.105H145.975V207.105ZM149.575 204.405L150.494 204.799L151.968 201.36L148.975 203.605L149.575 204.405ZM147.415 209.445L146.496 209.051L146.495 209.053L147.415 209.445ZM145.525 212.505L144.835 211.782L145.525 212.505ZM155.065 191.265V190.265H154.398L154.142 190.881L155.065 191.265ZM150.475 202.29L149.59 202.756L150.581 204.638L151.398 202.674L150.475 202.29ZM149.125 199.725V198.725H147.469L148.24 200.191L149.125 199.725ZM161.14 199.725L162.025 200.191L162.797 198.725H161.14V199.725ZM159.79 202.29L158.868 202.678L159.689 204.629L160.675 202.756L159.79 202.29ZM155.155 191.265L156.077 190.877L155.82 190.265H155.155V191.265ZM142.465 212.45C141.547 212.45 140.837 212.235 140.283 211.858L139.158 213.512C140.103 214.155 141.224 214.45 142.465 214.45V212.45ZM140.298 211.869C139.779 211.501 139.451 211.019 139.297 210.38L137.353 210.85C137.619 211.951 138.222 212.849 139.142 213.501L140.298 211.869ZM139.306 210.419C139.179 209.785 139.278 208.999 139.729 208.018L137.912 207.182C137.342 208.421 137.111 209.645 137.345 210.811L139.306 210.419ZM139.724 208.029L150.569 185.169L148.762 184.311L137.917 207.171L139.724 208.029ZM150.571 185.163C151.153 183.917 151.82 183.089 152.534 182.589L151.387 180.951C150.301 181.711 149.438 182.863 148.759 184.317L150.571 185.163ZM152.521 182.598C153.274 182.088 154.141 181.825 155.155 181.825V179.825C153.77 179.825 152.506 180.192 151.399 180.942L152.521 182.598ZM155.155 181.825C156.17 181.825 157.015 182.088 157.732 182.589L158.879 180.951C157.795 180.192 156.541 179.825 155.155 179.825V181.825ZM157.732 182.589C158.446 183.089 159.113 183.917 159.694 185.163L161.506 184.317C160.828 182.863 159.965 181.711 158.879 180.951L157.732 182.589ZM159.697 185.169L170.542 208.029L172.349 207.171L161.504 184.311L159.697 185.169ZM170.541 208.028C171.023 209.045 171.129 209.841 171.005 210.464L172.966 210.856C173.201 209.679 172.947 208.435 172.349 207.172L170.541 208.028ZM171 210.49C170.895 211.099 170.606 211.557 170.102 211.914L171.258 213.546C172.194 212.883 172.776 211.961 172.971 210.83L171 210.49ZM170.109 211.909C169.624 212.246 168.967 212.45 168.07 212.45V214.45C169.273 214.45 170.356 214.174 171.251 213.551L170.109 211.909ZM168.07 212.45C166.831 212.45 166.027 212.166 165.518 211.739L164.232 213.271C165.224 214.104 166.55 214.45 168.07 214.45V212.45ZM165.518 211.739C164.938 211.252 164.34 210.392 163.77 209.053L161.93 209.837C162.56 211.318 163.312 212.498 164.232 213.271L165.518 211.739ZM163.769 209.051L161.609 204.011L159.771 204.799L161.931 209.839L163.769 209.051ZM160.09 205.205L163.69 207.905L164.89 206.305L161.29 203.605L160.09 205.205ZM164.29 206.105H145.975V208.105H164.29V206.105ZM146.575 207.905L150.175 205.205L148.975 203.605L145.375 206.305L146.575 207.905ZM148.656 204.011L146.496 209.051L148.334 209.839L150.494 204.799L148.656 204.011ZM146.495 209.053C145.917 210.412 145.352 211.288 144.835 211.782L146.216 213.228C147.019 212.462 147.714 211.298 148.335 209.837L146.495 209.053ZM144.835 211.782C144.437 212.162 143.717 212.45 142.465 212.45V214.45C143.973 214.45 145.294 214.108 146.216 213.228L144.835 211.782ZM154.142 190.881L149.552 201.906L151.398 202.674L155.988 191.649L154.142 190.881ZM151.36 201.824L150.01 199.259L148.24 200.191L149.59 202.756L151.36 201.824ZM149.125 200.725H161.14V198.725H149.125V200.725ZM160.255 199.259L158.905 201.824L160.675 202.756L162.025 200.191L160.255 199.259ZM160.712 201.902L156.077 190.877L154.233 191.653L158.868 202.678L160.712 201.902ZM155.155 190.265H155.065V192.265H155.155V190.265ZM193.278 212.19L192.558 212.885L192.564 212.891L192.571 212.897L193.278 212.19ZM192.018 202.56H193.018V201.196L191.716 201.606L192.018 202.56ZM189.678 203.055L189.528 202.066L189.523 202.067L189.678 203.055ZM179.418 201.795L178.97 202.689L178.981 202.695L179.418 201.795ZM174.738 197.205L173.851 197.668L173.854 197.673L174.738 197.205ZM174.378 182.13L175.085 182.837L175.091 182.831L175.097 182.825L174.378 182.13ZM181.533 182.13L180.801 182.811L180.813 182.824L180.826 182.837L181.533 182.13ZM184.098 193.83L183.367 194.513L183.373 194.519L183.379 194.525L184.098 193.83ZM190.038 195.09L190.162 196.082L190.179 196.08L190.196 196.077L190.038 195.09ZM192.018 194.595L192.363 195.533L193.018 195.292V194.595H192.018ZM193.278 182.13L193.985 182.837L193.991 182.831L193.997 182.825L193.278 182.13ZM200.433 182.13L199.701 182.811L199.713 182.824L199.726 182.837L200.433 182.13ZM200.478 212.19L201.197 212.884L201.204 212.878L201.21 212.871L200.478 212.19ZM196.878 212.45C195.497 212.45 194.584 212.082 193.985 211.483L192.571 212.897C193.651 213.978 195.139 214.45 196.878 214.45V212.45ZM193.997 211.495C193.388 210.865 193.018 209.915 193.018 208.5H191.018C191.018 210.265 191.487 211.775 192.558 212.885L193.997 211.495ZM193.018 208.5V202.56H191.018V208.5H193.018ZM191.716 201.606C191.218 201.764 190.496 201.92 189.528 202.066L189.827 204.044C190.839 203.89 191.677 203.716 192.319 203.514L191.716 201.606ZM189.523 202.067C188.614 202.209 187.705 202.28 186.798 202.28V204.28C187.81 204.28 188.822 204.201 189.832 204.043L189.523 202.067ZM186.798 202.28C184.029 202.28 181.727 201.804 179.854 200.895L178.981 202.695C181.189 203.766 183.806 204.28 186.798 204.28V202.28ZM179.865 200.901C178.014 199.975 176.605 198.595 175.621 196.737L173.854 197.673C175.03 199.895 176.742 201.575 178.97 202.689L179.865 200.901ZM175.624 196.742C174.64 194.856 174.118 192.418 174.118 189.375H172.118C172.118 192.632 172.675 195.414 173.851 197.668L175.624 196.742ZM174.118 189.375V185.775H172.118V189.375H174.118ZM174.118 185.775C174.118 184.358 174.489 183.433 175.085 182.837L173.671 181.423C172.586 182.507 172.118 184.012 172.118 185.775H174.118ZM175.097 182.825C175.698 182.202 176.606 181.825 177.978 181.825V179.825C176.229 179.825 174.737 180.318 173.658 181.435L175.097 182.825ZM177.978 181.825C179.351 181.825 180.234 182.203 180.801 182.811L182.265 181.449C181.211 180.317 179.724 179.825 177.978 179.825V181.825ZM180.826 182.837C181.421 183.433 181.793 184.358 181.793 185.775H183.793C183.793 184.012 183.324 182.507 182.24 181.423L180.826 182.837ZM181.793 185.775V189.105H183.793V185.775H181.793ZM181.793 189.105C181.793 191.406 182.234 193.302 183.367 194.513L184.828 193.147C184.221 192.498 183.793 191.244 183.793 189.105H181.793ZM183.379 194.525C184.525 195.71 186.143 196.225 188.058 196.225V194.225C186.492 194.225 185.47 193.81 184.816 193.135L183.379 194.525ZM188.058 196.225C188.707 196.225 189.409 196.176 190.162 196.082L189.914 194.098C189.227 194.184 188.609 194.225 188.058 194.225V196.225ZM190.196 196.077C190.994 195.95 191.72 195.77 192.363 195.533L191.672 193.657C191.176 193.84 190.581 193.99 189.88 194.103L190.196 196.077ZM193.018 194.595V185.775H191.018V194.595H193.018ZM193.018 185.775C193.018 184.358 193.389 183.433 193.985 182.837L192.571 181.423C191.486 182.507 191.018 184.012 191.018 185.775H193.018ZM193.997 182.825C194.598 182.202 195.506 181.825 196.878 181.825V179.825C195.129 179.825 193.637 180.318 192.558 181.435L193.997 182.825ZM196.878 181.825C198.251 181.825 199.134 182.203 199.701 182.811L201.165 181.449C200.111 180.317 198.624 179.825 196.878 179.825V181.825ZM199.726 182.837C200.321 183.433 200.693 184.358 200.693 185.775H202.693C202.693 184.012 202.224 182.507 201.14 181.423L199.726 182.837ZM200.693 185.775V208.5H202.693V185.775H200.693ZM200.693 208.5C200.693 209.924 200.332 210.879 199.746 211.509L201.21 212.871C202.243 211.761 202.693 210.256 202.693 208.5H200.693ZM199.758 211.496C199.197 212.078 198.298 212.45 196.878 212.45V214.45C198.638 214.45 200.139 213.982 201.197 212.884L199.758 211.496ZM206.253 212.685L205.675 213.501L205.683 213.507L205.691 213.512L206.253 212.685ZM204.858 210.615L203.878 210.811L203.882 210.83L203.886 210.85L204.858 210.615ZM205.353 207.6L204.45 207.171L204.445 207.182L205.353 207.6ZM216.198 184.74L217.102 185.169L217.105 185.163L216.198 184.74ZM218.493 181.77L217.933 180.942L217.926 180.946L217.92 180.951L218.493 181.77ZM224.838 181.77L224.265 182.589L224.265 182.589L224.838 181.77ZM227.133 184.74L226.227 185.163L226.23 185.169L227.133 184.74ZM237.978 207.6L238.882 207.172L238.882 207.171L237.978 207.6ZM238.518 210.66L237.538 210.464L237.535 210.477L237.533 210.49L238.518 210.66ZM237.213 212.73L237.785 213.551L237.791 213.546L237.213 212.73ZM231.408 212.505L232.052 211.739L231.408 212.505ZM229.383 209.445L230.304 209.053L230.303 209.051L229.383 209.445ZM227.223 204.405L227.823 203.605L224.831 201.36L226.304 204.799L227.223 204.405ZM230.823 207.105V208.105H233.823L231.423 206.305L230.823 207.105ZM212.508 207.105L211.908 206.305L209.508 208.105H212.508V207.105ZM216.108 204.405L217.028 204.799L218.501 201.36L215.508 203.605L216.108 204.405ZM213.948 209.445L213.029 209.051L213.028 209.053L213.948 209.445ZM212.058 212.505L211.368 211.782L212.058 212.505ZM221.598 191.265V190.265H220.932L220.675 190.881L221.598 191.265ZM217.008 202.29L216.124 202.756L217.114 204.638L217.932 202.674L217.008 202.29ZM215.658 199.725V198.725H214.002L214.774 200.191L215.658 199.725ZM227.673 199.725L228.558 200.191L229.33 198.725H227.673V199.725ZM226.323 202.29L225.402 202.678L226.222 204.629L227.208 202.756L226.323 202.29ZM221.688 191.265L222.61 190.877L222.353 190.265H221.688V191.265ZM208.998 212.45C208.08 212.45 207.37 212.235 206.816 211.858L205.691 213.512C206.637 214.155 207.757 214.45 208.998 214.45V212.45ZM206.831 211.869C206.312 211.501 205.985 211.019 205.831 210.38L203.886 210.85C204.152 211.951 204.755 212.849 205.675 213.501L206.831 211.869ZM205.839 210.419C205.712 209.785 205.811 208.999 206.262 208.018L204.445 207.182C203.876 208.421 203.645 209.645 203.878 210.811L205.839 210.419ZM206.257 208.029L217.102 185.169L215.295 184.311L204.45 207.171L206.257 208.029ZM217.105 185.163C217.686 183.917 218.353 183.089 219.067 182.589L217.92 180.951C216.834 181.711 215.971 182.863 215.292 184.317L217.105 185.163ZM219.054 182.598C219.807 182.088 220.674 181.825 221.688 181.825V179.825C220.303 179.825 219.04 180.192 217.933 180.942L219.054 182.598ZM221.688 181.825C222.703 181.825 223.549 182.088 224.265 182.589L225.412 180.951C224.328 180.192 223.074 179.825 221.688 179.825V181.825ZM224.265 182.589C224.979 183.089 225.646 183.917 226.227 185.163L228.04 184.317C227.361 182.863 226.498 181.711 225.412 180.951L224.265 182.589ZM226.23 185.169L237.075 208.029L238.882 207.171L228.037 184.311L226.23 185.169ZM237.075 208.028C237.556 209.045 237.662 209.841 237.538 210.464L239.499 210.856C239.734 209.679 239.48 208.435 238.882 207.172L237.075 208.028ZM237.533 210.49C237.428 211.099 237.139 211.557 236.635 211.914L237.791 213.546C238.728 212.883 239.309 211.961 239.504 210.83L237.533 210.49ZM236.642 211.909C236.158 212.246 235.5 212.45 234.603 212.45V214.45C235.806 214.45 236.889 214.174 237.785 213.551L236.642 211.909ZM234.603 212.45C233.364 212.45 232.56 212.166 232.052 211.739L230.765 213.271C231.757 214.104 233.083 214.45 234.603 214.45V212.45ZM232.052 211.739C231.471 211.252 230.873 210.392 230.304 209.053L228.463 209.837C229.094 211.318 229.846 212.498 230.765 213.271L232.052 211.739ZM230.303 209.051L228.143 204.011L226.304 204.799L228.464 209.839L230.303 209.051ZM226.623 205.205L230.223 207.905L231.423 206.305L227.823 203.605L226.623 205.205ZM230.823 206.105H212.508V208.105H230.823V206.105ZM213.108 207.905L216.708 205.205L215.508 203.605L211.908 206.305L213.108 207.905ZM215.189 204.011L213.029 209.051L214.868 209.839L217.028 204.799L215.189 204.011ZM213.028 209.053C212.45 210.412 211.885 211.288 211.368 211.782L212.749 213.228C213.552 212.462 214.247 211.298 214.869 209.837L213.028 209.053ZM211.368 211.782C210.97 212.162 210.25 212.45 208.998 212.45V214.45C210.507 214.45 211.827 214.108 212.749 213.228L211.368 211.782ZM220.675 190.881L216.085 201.906L217.932 202.674L222.522 191.649L220.675 190.881ZM217.893 201.824L216.543 199.259L214.774 200.191L216.124 202.756L217.893 201.824ZM215.658 200.725H227.673V198.725H215.658V200.725ZM226.789 199.259L225.439 201.824L227.208 202.756L228.558 200.191L226.789 199.259ZM227.245 201.902L222.61 190.877L220.767 191.653L225.402 202.678L227.245 201.902ZM221.688 190.265H221.598V192.265H221.688V190.265ZM246.24 212.19L245.521 212.885L245.527 212.891L245.533 212.897L246.24 212.19ZM244.98 189.105H245.98V188.105H244.98V189.105ZM235.89 188.115L235.168 188.806L235.183 188.822L235.199 188.838L235.89 188.115ZM235.89 182.31L235.183 181.603V181.603L235.89 182.31ZM263.7 182.31L262.978 183.001L262.993 183.017L263.009 183.033L263.7 182.31ZM254.655 189.105V188.105H253.655V189.105H254.655ZM253.44 212.19L254.16 212.884L254.166 212.878L254.172 212.871L253.44 212.19ZM249.84 212.45C248.459 212.45 247.546 212.082 246.947 211.483L245.533 212.897C246.614 213.978 248.101 214.45 249.84 214.45V212.45ZM246.96 211.495C246.347 210.861 245.98 209.924 245.98 208.545H243.98C243.98 210.286 244.453 211.779 245.521 212.885L246.96 211.495ZM245.98 208.545V189.105H243.98V208.545H245.98ZM244.98 188.105H238.86V190.105H244.98V188.105ZM238.86 188.105C237.735 188.105 237.028 187.819 236.581 187.392L235.199 188.838C236.132 189.731 237.405 190.105 238.86 190.105V188.105ZM236.613 187.424C236.182 186.973 235.9 186.277 235.9 185.19H233.9C233.9 186.623 234.278 187.877 235.168 188.806L236.613 187.424ZM235.9 185.19C235.9 184.1 236.183 183.431 236.597 183.017L235.183 181.603C234.277 182.509 233.9 183.76 233.9 185.19H235.9ZM236.597 183.017C237.045 182.569 237.747 182.275 238.86 182.275V180.275C237.393 180.275 236.115 180.671 235.183 181.603L236.597 183.017ZM238.86 182.275H260.775V180.275H238.86V182.275ZM260.775 182.275C261.891 182.275 262.565 182.57 262.978 183.001L264.423 181.619C263.515 180.67 262.239 180.275 260.775 180.275V182.275ZM263.009 183.033C263.444 183.449 263.735 184.112 263.735 185.19H265.735C265.735 183.748 265.336 182.491 264.391 181.587L263.009 183.033ZM263.735 185.19C263.735 186.265 263.445 186.956 262.993 187.408L264.407 188.822C265.335 187.894 265.735 186.635 265.735 185.19H263.735ZM262.993 187.408C262.583 187.818 261.903 188.105 260.775 188.105V190.105C262.227 190.105 263.497 189.732 264.407 188.822L262.993 187.408ZM260.775 188.105H254.655V190.105H260.775V188.105ZM253.655 189.105V208.545H255.655V189.105H253.655ZM253.655 208.545C253.655 209.933 253.298 210.876 252.708 211.509L254.172 212.871C255.203 211.764 255.655 210.277 255.655 208.545H253.655ZM252.72 211.496C252.159 212.078 251.26 212.45 249.84 212.45V214.45C251.6 214.45 253.101 213.982 254.16 212.884L252.72 211.496ZM268.435 211.74L267.716 212.435L267.728 212.447L267.741 212.459L268.435 211.74ZM268.435 182.13L269.142 182.837L269.149 182.831L269.155 182.825L268.435 182.13ZM275.59 182.13L274.858 182.811L274.871 182.824L274.883 182.837L275.59 182.13ZM276.85 193.11H275.85V194.11H276.85V193.11ZM289.72 194.28L289.299 195.187L289.305 195.19L289.72 194.28ZM293.635 197.655L292.783 198.177L292.786 198.183L292.79 198.19L293.635 197.655ZM291.97 210.435L292.613 211.201L292.619 211.196L291.97 210.435ZM276.85 205.8H275.85V206.8H276.85V205.8ZM285.04 205.125L284.421 204.34L284.41 204.348L284.4 204.357L285.04 205.125ZM285.04 200.985L284.4 201.753L284.41 201.762L284.421 201.77L285.04 200.985ZM276.85 200.31V199.31H275.85V200.31H276.85ZM272.17 212C270.719 212 269.757 211.626 269.13 211.021L267.741 212.459C268.853 213.534 270.381 214 272.17 214V212ZM269.155 211.045C268.549 210.418 268.175 209.456 268.175 208.005H266.175C266.175 209.794 266.642 211.322 267.716 212.435L269.155 211.045ZM268.175 208.005V185.775H266.175V208.005H268.175ZM268.175 185.775C268.175 184.358 268.547 183.433 269.142 182.837L267.728 181.423C266.644 182.507 266.175 184.012 266.175 185.775H268.175ZM269.155 182.825C269.756 182.202 270.664 181.825 272.035 181.825V179.825C270.287 179.825 268.795 180.318 267.716 181.435L269.155 182.825ZM272.035 181.825C273.409 181.825 274.292 182.203 274.858 182.811L276.322 181.449C275.269 180.317 273.782 179.825 272.035 179.825V181.825ZM274.883 182.837C275.479 183.433 275.85 184.358 275.85 185.775H277.85C277.85 184.012 277.382 182.507 276.297 181.423L274.883 182.837ZM275.85 185.775V193.11H277.85V185.775H275.85ZM276.85 194.11H283.69V192.11H276.85V194.11ZM283.69 194.11C285.922 194.11 287.781 194.482 289.299 195.187L290.141 193.373C288.3 192.518 286.139 192.11 283.69 192.11V194.11ZM289.305 195.19C290.851 195.895 291.996 196.893 292.783 198.177L294.488 197.133C293.475 195.477 292.01 194.225 290.135 193.37L289.305 195.19ZM292.79 198.19C293.598 199.467 294.03 201.072 294.03 203.055H296.03C296.03 200.778 295.532 198.783 294.48 197.12L292.79 198.19ZM294.03 203.055C294.03 206.002 293.097 208.16 291.321 209.674L292.619 211.196C294.924 209.23 296.03 206.468 296.03 203.055H294.03ZM291.328 209.669C289.517 211.187 287.009 212 283.69 212V214C287.332 214 290.344 213.103 292.613 211.201L291.328 209.669ZM283.69 212H272.17V214H283.69V212ZM276.85 206.8H282.34V204.8H276.85V206.8ZM282.34 206.8C283.669 206.8 284.865 206.573 285.681 205.893L284.4 204.357C284.135 204.577 283.532 204.8 282.34 204.8V206.8ZM285.66 205.91C286.535 205.219 286.895 204.197 286.895 203.055H284.895C284.895 203.773 284.686 204.131 284.421 204.34L285.66 205.91ZM286.895 203.055C286.895 201.913 286.535 200.891 285.66 200.2L284.421 201.77C284.686 201.979 284.895 202.337 284.895 203.055H286.895ZM285.681 200.217C284.865 199.537 283.669 199.31 282.34 199.31V201.31C283.532 201.31 284.135 201.533 284.4 201.753L285.681 200.217ZM282.34 199.31H276.85V201.31H282.34V199.31ZM275.85 200.31V205.8H277.85V200.31H275.85Z" fill="white" mask="url(#path-17-outside-1_160_292)"/>
</g>
<defs>
<filter id="filter0_d_160_292" x="103.578" y="179.825" width="192.453" height="37.625" filterUnits="userSpaceOnUse" color-interpolation-filters="sRGB">
<feFlood flood-opacity="0" result="BackgroundImageFix"/>
<feColorMatrix in="SourceAlpha" type="matrix" values="0 0 0 0 0 0 0 0 0 0 0 0 0 0 0 0 0 0 127 0" result="hardAlpha"/>
<feOffset dy="3"/>
<feComposite in2="hardAlpha" operator="out"/>
<feColorMatrix type="matrix" values="0 0 0 0 1 0 0 0 0 1 0 0 0 0 1 0 0 0 1 0"/>
<feBlend mode="normal" in2="BackgroundImageFix" result="effect1_dropShadow_160_292"/>
<feBlend mode="normal" in="SourceGraphic" in2="effect1_dropShadow_160_292" result="shape"/>
</filter>
</defs>
</svg>
