<svg width="369" height="283" viewBox="0 0 369 283" fill="none" xmlns="http://www.w3.org/2000/svg">
<g clip-path="url(#clip0_197_183)">
<path d="M135.482 134.374C138.633 141.519 136.593 144.201 140.669 151.569C147.016 163.038 156.493 165.953 154.924 171.852C154.438 173.684 151.913 177.154 149.586 178.861C143.936 183.006 138.429 181.041 130.734 184.774C114.964 192.424 115.543 197.294 108.757 198.323C101.894 199.362 100.065 189.97 93.9768 177.217C89.0524 166.903 85.0633 165.191 81.5702 158.95C72.0714 141.978 77.1965 111.089 92.1543 105.246C106.39 99.6861 128.496 118.531 135.482 134.374Z" fill="#FF8409"/>
<path d="M96.116 131.659C96.5584 141.173 90.0365 149.207 81.5491 149.601C73.0606 149.996 65.8218 142.604 65.3789 133.088C64.9361 123.574 71.4579 115.541 79.9453 115.146C88.434 114.751 95.6727 122.144 96.116 131.659Z" fill="#FF8409"/>
<path d="M107.29 126.238C114.489 132.475 124.835 132.326 130.399 125.904C135.962 119.482 134.638 109.22 127.439 102.983C120.24 96.7456 109.894 96.8953 104.33 103.317C98.7659 109.739 100.091 120.001 107.29 126.238Z" fill="#FF8409"/>
<path d="M105.227 43.6457C98.8015 38.0767 89.0813 38.7689 83.5168 45.1915C80.5265 48.6421 79.3468 53.0468 79.8907 57.2469C76.5913 57.5323 73.3048 58.409 70.1707 59.9294C67.9853 60.9895 66.0009 62.3031 64.2302 63.819C61.4881 61.7953 56.0638 59.8667 52.3947 60.0377C43.9068 60.432 37.254 68.5374 37.6485 77.031C38.026 85.143 46.7 91.3943 54.6853 91.6056C55.1858 94.4011 56.0746 97.1855 57.3817 99.88C64.7006 114.967 82.2928 121.542 96.6748 114.565C111.057 107.588 116.783 89.7019 109.464 74.6146C108.16 71.9271 106.529 69.5122 104.65 67.3929C105.414 66.7941 106.131 66.1157 106.79 65.3554C112.353 58.9334 111.655 49.2136 105.227 43.6457Z" fill="#FF8409"/>
<path d="M91.1953 192.992C99.3534 200.061 110.478 200.585 116.042 194.163C121.606 187.741 119.502 176.805 111.344 169.737C103.186 162.668 92.0616 162.143 86.4972 168.565C80.9336 174.987 83.0369 185.923 91.1953 192.992Z" fill="#FF8409"/>
<path d="M156.802 161.341C157.304 172.124 150.83 181.185 142.342 181.58C133.854 181.975 126.567 173.553 126.066 162.771C125.564 151.987 132.038 142.926 140.526 142.531C149.013 142.137 156.301 150.558 156.802 161.341Z" fill="#FF8409"/>
<path d="M43.7864 67.5885C40.3749 71.1319 40.742 76.8542 42.9628 81.2617C44.1814 83.6804 45.9755 85.791 48.0078 87.5559C49.3166 88.6927 51.6718 89.8879 52.7562 87.837C53.8522 85.7662 52.8023 83.1356 52.4862 80.9861C52.075 78.1927 53.0786 75.6885 54.5016 73.3674C55.8089 71.2338 57.9139 69.1383 58.3167 66.5726C58.5413 65.1448 53.6855 57.3088 43.7864 67.5885Z" fill="#FFCC23"/>
<path d="M84.0974 48.0225C80.909 51.4553 82.4209 56.6873 81.8684 58.3416C72.3319 61.0046 64.1286 67.9469 60.0369 76.9812C59.0225 79.2221 58.2535 81.6667 58.3572 84.1529C58.4723 86.9117 59.7998 89.3317 61.221 91.628C62.0167 92.9149 62.8423 94.1861 63.5175 95.5423C64.1847 96.8807 64.7088 98.2837 65.2353 99.682C66.1953 102.232 67.1918 104.828 68.9792 106.93C71.7834 110.226 76.1108 112.06 80.4279 112.157C85.0151 112.26 93.9452 108.214 96.1827 106.89C100.158 104.537 103.988 101.014 105.961 96.709C108.047 92.1585 107.029 86.7846 105.945 81.9988C104.878 77.2811 101.698 72.8269 98.2611 69.3839C96.4427 67.5622 94.3166 66.3498 92.177 64.9633C91.511 64.5312 88.5589 62.5548 89.5836 61.5687C90.4828 60.7037 92.5642 61.5284 93.5625 61.739C95.0563 62.055 96.5495 62.37 98.0423 62.6864C98.1521 62.709 98.2766 62.6752 98.3134 62.5549C98.6569 61.4308 97.342 60.8305 96.5237 60.4422C95.0698 59.7516 93.5374 59.222 91.9666 58.8663C90.6002 58.5572 88.7051 58.6033 87.7003 57.4853C86.5477 56.2017 87.3469 54.2543 88.22 53.0599C90.156 50.4093 93.9551 49.6852 97.203 50.9159C100.464 52.1511 100.973 54.7922 101.913 57.7303C102.124 58.3905 102.35 59.0479 102.625 59.6851C102.848 60.1962 103.103 60.9335 103.61 61.2406C104.628 61.8547 105.933 61.2238 106.395 60.5445C108.418 57.565 107.23 52.9592 106.692 50.4558C105.228 43.6459 93.3392 38.0725 84.0974 48.0225Z" fill="#FFCC23"/>
<path d="M88.6483 66.3542C83.0969 56.7557 59.4379 69.4752 66.7374 79.3897C68.2014 81.3782 72.5809 82.3333 75.3246 80.2248C80.2996 76.401 77.2033 71.9903 84.4222 71.7685C86.355 71.7092 90.2501 69.125 88.6483 66.3542C89.1809 67.2744 88.1108 65.4241 88.6483 66.3542Z" fill="#FFE943"/>
<path d="M93.1684 86.8578C91.3932 85.5202 89.3028 84.8343 87.0763 85.0152C82.4559 85.391 77.5089 87.7861 75.1194 91.8823C74.5481 92.8608 74.1187 93.9248 73.8818 95.0345C73.6716 96.0177 73.452 97.3717 73.8342 98.3392C74.1429 99.1199 75.0551 99.3106 75.5101 98.555C75.8482 97.9935 76.0611 97.3006 76.2734 96.6846C76.3823 96.3686 76.4821 96.0495 76.5754 95.7288C76.6478 95.476 76.9183 94.3537 77.3862 94.4324C78.2742 96.0717 79.7401 97.6105 81.7271 97.6404C82.7473 97.6557 83.7276 97.2824 84.6425 96.8679C85.7152 96.3807 86.7969 95.8654 87.7783 95.2094C89.3974 94.1277 90.7821 92.3344 90.4522 90.2729C90.3852 89.8558 90.234 89.4739 90.0232 89.1096C89.915 88.9216 89.801 88.7374 89.699 88.5446C89.3988 87.9747 89.3558 87.562 90.4536 87.9031C91.0555 88.0494 91.6909 88.4851 92.2522 88.7485C92.8313 89.0213 93.4482 89.4168 94.0682 89.5808C94.6742 89.7393 95.1019 89.3254 94.929 88.7174C94.7086 87.9469 93.7765 87.3153 93.1684 86.8578Z" fill="#FF8409"/>
<path d="M93.6104 76.0033C94.6186 78.0817 93.7517 80.584 91.6726 81.5926C89.5934 82.6012 87.0915 81.7332 86.0832 79.6548C85.075 77.5764 85.9419 75.0741 88.0211 74.0654C90.1003 73.0568 92.6022 73.9249 93.6104 76.0033Z" fill="#FF8409"/>
<path d="M91.0779 75.7636C89.9423 75.318 88.7506 75.6324 88.1713 76.588C87.5947 77.5393 88.9711 79.8147 89.7965 80.3842C90.7925 81.0713 92.2937 79.7357 92.4566 78.7421C92.7167 77.1691 92.0688 76.1511 91.0779 75.7636Z" fill="#FFE943"/>
<path d="M74.0433 85.4954C75.0516 87.5738 74.1839 90.0765 72.1053 91.0849C70.0265 92.0933 67.5239 91.2255 66.5157 89.1471C65.5074 87.0688 66.375 84.5661 68.4538 83.5577C70.5324 82.5493 73.0351 83.417 74.0433 85.4954Z" fill="#FF8409"/>
<path d="M68.2774 87.3253C68.5828 88.4823 69.4727 90.3143 70.8184 90.2055C72.9299 90.0341 73.5989 87.5972 73.0015 86.3657C71.2291 82.712 67.8127 85.565 68.2774 87.3253Z" fill="#FFE943"/>
<path d="M95.2276 93.9782C94.3795 93.8804 93.9385 95.0549 93.7462 95.8009C93.4186 97.0735 90.2543 101.28 88.5544 99.9735C88.2231 99.7201 88.1054 99.3294 87.9914 98.9411C87.7742 98.1957 87.5397 97.1206 86.6094 96.9728C86.5847 96.9683 86.5594 96.9676 86.5347 96.9649C86.4941 96.9293 86.4368 96.9129 86.3656 96.9354C86.3115 96.9521 86.2604 96.9717 86.2108 96.9923C85.8862 97.0754 85.6186 97.3185 85.5257 97.6316C85.399 97.8746 85.3315 98.1598 85.3147 98.4637C85.2609 99.4668 86.0152 100.453 85.7222 101.448C85.3772 102.621 83.7169 103.18 82.6509 103.354C81.3754 103.562 80.183 103.222 78.9546 102.925C78.3534 102.78 77.2313 102.356 76.7611 102.949C76.4021 103.404 76.7461 104.608 78.374 105.071C80.9359 105.801 84.2388 105.182 88.487 103.162C92.9714 101.03 94.6878 99.3654 96.0294 96.4278C96.4631 95.479 96.1472 94.0846 95.2276 93.9782Z" fill="#FF8409"/>
<path d="M87.5539 117.327C84.8396 115.724 82.266 116.526 80.9406 117.09C78.327 118.204 76.0015 120.2 74.4594 122.517C68.1362 132.022 72.7001 141.976 76.8221 145.272C78.8666 146.907 81.6229 146.987 84.1243 146.08C89.6969 144.061 92.4983 137.961 92.7028 132.524C92.8291 129.16 92.1896 125.699 90.991 122.581C90.2674 120.697 88.8323 118.082 87.5539 117.327Z" fill="#FFCC23"/>
<path d="M123.851 109.554C122.045 105.83 117.147 101.479 111.561 102.819C106.562 104.018 102.806 108.794 103.283 114.545C103.543 117.656 105.208 120.381 107.206 122.699C109.258 125.081 116.972 131.345 122.287 126.985C126.794 123.287 126.83 115.698 123.851 109.554Z" fill="#FFCC23"/>
<path d="M88.1465 123.523C88.9268 121.076 86.9428 119.236 85.3904 119.383C81.6256 119.399 78.1709 123.444 76.5462 126.544C75.2904 128.941 75.2298 131.508 75.756 134.133C76.2691 136.689 77.286 139.382 79.0072 141.378C80.2924 142.869 82.2167 144 84.2141 143.382C86.1568 142.781 87.4756 140.816 87.6665 138.834C87.9142 136.263 84.6517 134.163 85.1577 130.916C85.714 127.352 87.3225 126.106 88.1465 123.523Z" fill="#FFE943"/>
<path d="M114.47 106.397C111.777 105.605 108.384 108.3 106.939 110.54C105.204 113.232 106.343 117.74 107.666 120.236C109.927 124.502 115.738 125.513 118.598 123.421C121.495 121.302 117.892 119.889 116.236 116.079C114.921 113.055 117.923 107.757 114.47 106.397Z" fill="#FFE943"/>
<path d="M116.24 127.035C112.861 125.636 109.47 123.97 103.977 116.083C101.473 112.489 93.8562 113.818 92.5669 118.205C91.3606 122.311 92.7842 132.345 92.2688 135.86C91.7649 139.296 91.0961 142.902 89.772 146.115C87.4903 151.652 88.7101 161.473 94.258 164.952C100.359 168.777 104.413 170.496 109.991 172.791C118.067 176.113 129.235 172.158 130.472 165.606C130.922 163.218 131.312 158.608 131.878 156.786C133.407 151.869 134.765 146.784 130.469 137.927C126.272 129.277 118.679 128.044 116.24 127.035Z" fill="#FFCC23"/>
<path d="M117.561 134.961C113.336 131.574 108.879 130.629 105.375 126.039C103.935 124.151 101.381 117.901 98.2215 118.084C93.3682 118.363 95.9943 126.058 96.5927 128.757C97.739 133.935 97.4653 140.388 95.8295 145.503C91.9857 157.519 109.048 168.577 118.398 164.861C131.543 159.635 126.216 141.895 117.561 134.961Z" fill="#FFE943"/>
<path d="M111.381 171.047C108.4 168.718 105.041 166.363 101.021 165.938C89.4883 164.718 87.5378 176.58 89.2011 182.24C90.1672 185.528 92.0399 188.548 94.3304 191.108C96.3675 193.385 98.9691 195.014 102.286 195.416C108.457 196.163 114.811 192.757 117.242 187.108C118.39 184.438 118.622 181.497 117.748 178.913C116.674 175.739 114.031 173.119 111.381 171.047Z" fill="#FFCC23"/>
<path d="M148.467 148.533C146.772 146.756 144 145.05 141.455 145.31C138.625 145.304 136.108 147.112 134.253 149.165C132.136 151.506 130.539 154.319 129.58 157.343C127.514 163.859 128.79 169.755 131.02 174.353C133.407 179.272 139.07 181.407 143.13 178.694C144.405 177.842 145.517 176.763 146.544 175.621C150.499 171.228 152.787 165.271 152.534 159.286C152.369 155.417 151.194 151.393 148.467 148.533Z" fill="#FFCC23"/>
<path d="M109.989 180.741C108.365 180.648 103.457 180.002 102.637 173.33C102.097 168.94 98.0666 168.935 94.5491 171.895C92.3055 173.782 92.5615 176.718 92.8467 178.953C93.4993 184.069 96.8534 188.623 102.001 190.818C104.323 191.808 107.032 191.988 109.8 190.648C115.031 188.116 115.656 181.064 109.989 180.741Z" fill="#FFE943"/>
<path d="M131.489 157.539C129.952 161.901 130.325 166.753 132.624 170.258C133.643 171.811 135.25 173.067 137.449 173.186C139.795 173.313 141.848 171.867 143.195 170.067C144.531 168.282 144.529 166.328 143.475 164.742C142.872 163.833 141.957 163.161 141.236 162.338C140.358 161.336 140.067 160.164 140.442 158.79C141.045 156.578 143.068 154.587 143.016 153.262C142.87 149.519 134.912 147.825 131.489 157.539Z" fill="#FFE943"/>
<path d="M86.0328 88.1888C84.5259 87.2639 80.4719 88.915 79.2029 91.0729C78.249 92.6964 79.2509 95.0743 81.2375 95.4128C83.361 95.7742 85.9431 94.8306 87.0462 92.9198C87.973 91.3132 87.7963 89.2702 86.0328 88.1888Z" fill="#FFE943"/>
<path d="M69.9439 74.8099C69.9899 74.6295 70.0421 74.4516 70.1063 74.2765C70.1384 74.1884 70.1732 74.1023 70.2105 74.0171C70.2773 73.8646 70.4041 73.7955 70.1779 74.0719C70.3958 73.806 70.5564 73.4694 70.7697 73.1928C70.9034 73.0197 70.4563 73.5093 70.7276 73.2478C70.7812 73.1959 70.8325 73.1417 70.887 73.0904C71.0223 72.9631 71.1643 72.8423 71.3131 72.73C71.3672 72.6897 71.6432 72.4952 71.3891 72.6704C71.1297 72.8482 71.4384 72.6476 71.4765 72.627C71.6391 72.5351 71.8072 72.4557 71.9779 72.3816C72.8309 72.0143 73.2418 70.829 72.7991 70.0123C72.324 69.1356 71.3447 68.7968 70.43 69.1907C68.5852 69.985 67.0872 71.6955 66.5931 73.6485C66.3653 74.5469 66.7159 75.6139 67.6875 75.9045C68.5431 76.1615 69.7013 75.7707 69.9439 74.8099Z" fill="white"/>
<path d="M76.3674 69.7081C77.0701 69.2802 77.8105 68.921 78.5845 68.6423C78.6487 68.6199 78.9636 68.4823 78.6917 68.6034C78.4225 68.7231 78.7343 68.5925 78.8015 68.5719C79.0079 68.5109 79.2161 68.4556 79.4254 68.4052C79.8257 68.3089 80.2292 68.2327 80.6369 68.1764C80.8302 68.1489 81.0252 68.1272 81.2197 68.109C81.317 68.1009 81.4151 68.0947 81.5123 68.0866C81.7336 68.0674 81.1358 68.0974 81.4637 68.0896C81.8743 68.0796 82.2844 68.0819 82.6954 68.1087C83.1047 68.1364 83.5133 68.1828 83.9186 68.2516C84.03 68.2704 84.1521 68.3069 84.2649 68.3152C84.17 68.308 83.9411 68.2418 84.1645 68.2965C84.3927 68.3522 84.62 68.4105 84.8455 68.4763C85.7364 68.7346 86.8174 68.331 87.1027 67.3812C87.3667 66.4995 86.9598 65.4006 86.0081 65.1248C82.2933 64.0471 78.1419 64.4905 74.8192 66.5167C74.4066 66.7691 74.0814 67.0606 73.9182 67.5313C73.7755 67.9431 73.7876 68.4973 73.9983 68.8867C74.4196 69.6655 75.5192 70.2261 76.3674 69.7081Z" fill="white"/>
<path d="M87.2555 52.481C87.6013 51.8335 87.9901 51.2096 88.455 50.6412C88.5038 50.5801 88.5624 50.5225 88.6074 50.4585C88.5542 50.5346 88.3761 50.71 88.5386 50.5433C88.6582 50.421 88.7774 50.2976 88.9031 50.1805C89.1331 49.9648 89.3779 49.7723 89.6297 49.5823C89.8278 49.4335 89.5671 49.6244 89.5026 49.6603C89.5652 49.6253 89.625 49.5822 89.6867 49.5453C89.8105 49.47 89.9361 49.3986 90.0645 49.3304C90.3379 49.1849 90.6214 49.0579 90.9109 48.9479C90.9956 48.915 91.0891 48.8907 91.1715 48.8531C91.0995 48.8857 90.8015 48.9659 91.04 48.8981C91.1874 48.8571 91.333 48.8145 91.4812 48.7777C91.826 48.6924 92.1756 48.6269 92.5284 48.5727C93.4454 48.4321 94.1614 47.419 93.9502 46.5059C93.7277 45.5456 92.8659 44.934 91.8833 45.0842C90.2494 45.3339 88.7321 45.9061 87.378 46.8532C86.067 47.7712 85.0557 49.1065 84.3087 50.5068C84.0847 50.9255 83.9485 51.3321 84.0369 51.8157C84.1174 52.2494 84.4114 52.735 84.7943 52.967C85.5482 53.4262 86.7883 53.3558 87.2555 52.481Z" fill="white"/>
<path d="M96.2228 48.9934C96.2771 48.9982 96.7855 49.0814 96.7907 49.0707C96.5469 49.0173 96.4899 49.0045 96.6186 49.0343C96.6718 49.0466 96.7254 49.0598 96.7777 49.0748C96.8475 49.0928 96.9169 49.1122 96.9862 49.1339C97.1545 49.186 97.3208 49.246 97.4833 49.3147C97.5309 49.3343 97.5784 49.3562 97.6259 49.3782C97.7477 49.4344 97.6896 49.4049 97.4516 49.2898C97.5062 49.3429 97.6097 49.3756 97.6756 49.414C97.8216 49.5011 97.9625 49.5942 98.0991 49.6952C98.1685 49.7456 98.2333 49.7984 98.3004 49.8511C98.544 50.042 98.0693 49.6266 98.2224 49.7829C98.4772 50.0444 98.7186 50.3044 98.9345 50.5997C99.4841 51.35 100.789 51.3847 101.438 50.7619C102.181 50.0485 102.189 49.0626 101.6 48.2584C100.39 46.6052 98.514 45.6566 96.4968 45.4557C95.5718 45.3648 94.6233 46.1454 94.5916 47.0878C94.5576 48.0659 95.2357 48.8957 96.2228 48.9934Z" fill="white"/>
<path d="M47.0793 73.6461C47.0697 73.5582 47.0686 73.4627 47.0536 73.3752C47.1352 73.8614 47.066 73.6233 47.0663 73.465C47.067 73.2914 47.0759 73.1184 47.0914 72.9446C47.108 72.7679 47.1367 72.5923 47.1618 72.4162C47.2126 72.0589 47.0603 72.8261 47.1486 72.4741C47.173 72.3768 47.1964 72.28 47.2229 72.184C47.3226 71.8264 47.4499 71.4765 47.6019 71.1381C47.6784 70.9675 47.8215 70.8653 47.5767 71.1761C47.637 71.1 47.6744 70.9905 47.7224 70.9064C47.8152 70.7442 47.9139 70.5851 48.0186 70.4301C48.1228 70.2765 48.2329 70.1258 48.3494 69.9815C48.4749 69.8245 48.6226 69.7904 48.3079 70.0203C48.3725 69.9738 48.425 69.8956 48.4809 69.8392C48.6089 69.7092 48.7431 69.5855 48.883 69.4685C48.9592 69.4057 49.0364 69.3449 49.1154 69.2855C49.2733 69.1679 49.4438 69.1566 49.0427 69.3266C49.2032 69.2581 49.3521 69.1437 49.5112 69.0665C49.599 69.0251 49.6881 68.9854 49.778 68.9488C50.0563 68.8372 49.7591 68.9592 49.6472 68.983C49.8398 68.9423 50.0253 68.8792 50.2205 68.8477C50.3053 68.8336 50.4464 68.8471 50.5173 68.8103C50.4317 68.8144 50.3455 68.8176 50.2598 68.8217C50.3279 68.8191 50.3958 68.8177 50.4644 68.8185C51.3906 68.8177 52.3353 68.1954 52.3698 67.1879C52.4006 66.2888 51.7285 65.2809 50.7383 65.2822C48.4165 65.2842 46.4424 66.4902 45.1287 68.3724C43.9345 70.0819 43.3559 72.2176 43.5907 74.2914C43.6948 75.2142 44.7696 75.919 45.6572 75.7133C46.6485 75.483 47.1916 74.6351 47.0793 73.6461Z" fill="white"/>
<path d="M112.751 117.223C112.682 117.127 112.609 116.989 112.526 116.904C112.596 116.976 112.709 117.192 112.586 116.987C112.476 116.802 112.365 116.618 112.265 116.426C112.181 116.265 112.102 116.1 112.029 115.933C111.96 115.773 111.806 115.181 111.945 115.767C111.873 115.467 111.78 115.179 111.734 114.873C111.712 114.733 111.707 114.592 111.688 114.452C111.772 115.047 111.696 114.57 111.704 114.391C111.708 114.264 111.718 114.138 111.733 114.012C111.744 113.924 111.827 113.484 111.752 113.84C111.679 114.186 111.779 113.753 111.807 113.659C111.84 113.553 111.876 113.448 111.916 113.345C111.954 113.247 111.999 113.151 112.04 113.053C112.144 112.805 111.848 113.408 111.934 113.268C111.96 113.226 111.981 113.18 112.005 113.137C112.106 112.96 112.219 112.791 112.34 112.628C112.9 111.886 112.642 110.646 111.854 110.168C110.997 109.645 109.991 109.86 109.393 110.654C108.644 111.649 108.19 112.949 108.165 114.195C108.121 116.195 108.933 117.97 110.086 119.564C110.63 120.317 111.943 120.346 112.589 119.726C113.336 119.01 113.335 118.031 112.751 117.223Z" fill="white"/>
<path d="M80.8282 132.207C80.732 131.509 80.6677 130.811 80.599 130.11C80.6078 130.198 80.6143 130.557 80.6093 130.266C80.6075 130.181 80.6044 130.096 80.604 130.01C80.6027 129.856 80.6045 129.703 80.6119 129.549C80.6255 129.234 80.6737 128.929 80.7134 128.617C80.7396 128.412 80.6082 129.056 80.678 128.786C80.6987 128.709 80.7176 128.63 80.7393 128.554C80.7799 128.412 80.827 128.271 80.8799 128.134C80.9089 128.059 80.9428 127.985 80.9732 127.91C81.0804 127.645 80.9407 127.991 80.8956 128.057C80.9896 127.92 81.0593 127.762 81.1513 127.623C81.2401 127.488 81.3381 127.361 81.436 127.233C81.6687 126.931 81.2387 127.433 81.3727 127.301C81.4284 127.246 81.48 127.186 81.5363 127.13C81.8289 126.835 82.1515 126.575 82.4883 126.331C83.2432 125.788 83.269 124.473 82.6509 123.828C81.9324 123.08 80.9561 123.084 80.1469 123.666C78.6728 124.727 77.619 126.219 77.2463 128.003C76.9114 129.604 77.1197 131.247 77.3394 132.852C77.4653 133.771 78.5026 134.484 79.4055 134.274C80.3787 134.049 80.9629 133.192 80.8282 132.207Z" fill="white"/>
<path d="M134.863 155.94C133.401 157.211 132.746 159.116 132.516 160.989C132.288 162.838 132.47 164.793 132.939 166.592C133.2 167.597 133.538 168.599 134.013 169.523C134.437 170.348 135.526 170.809 136.383 170.345C137.212 169.896 137.658 168.86 137.204 167.975C137.037 167.65 136.887 167.316 136.754 166.975C136.693 166.817 136.6 166.638 136.57 166.472C136.564 166.436 136.704 166.896 136.648 166.707C136.635 166.663 136.62 166.62 136.606 166.576C136.574 166.473 136.543 166.369 136.514 166.265C136.29 165.479 136.133 164.675 136.04 163.863C136.017 163.67 135.998 163.476 135.984 163.281C135.981 163.232 135.978 163.184 135.974 163.136C135.957 162.944 135.985 163.376 135.984 163.352C135.982 163.239 135.975 163.126 135.972 163.013C135.962 162.599 135.971 162.185 136.003 161.773C136.031 161.389 136.086 161.011 136.151 160.632C136.2 160.345 136.044 161.069 136.142 160.683C136.164 160.598 136.184 160.513 136.208 160.428C136.257 160.248 136.312 160.071 136.376 159.895C136.421 159.768 136.49 159.44 136.598 159.356C136.626 159.334 136.397 159.735 136.486 159.58C136.513 159.533 136.537 159.484 136.563 159.437C136.608 159.356 136.655 159.276 136.705 159.197C136.81 159.03 136.934 158.881 137.05 158.723C137.138 158.603 136.881 158.932 136.874 158.924C136.873 158.922 136.971 158.822 136.98 158.813C137.052 158.741 137.127 158.673 137.204 158.606C137.904 157.996 138.028 156.792 137.366 156.102C136.699 155.406 135.613 155.287 134.863 155.94Z" fill="white"/>
<path d="M97.3705 174.635C96.8577 176.298 97.147 178 97.7353 179.6C98.2957 181.124 99.2468 182.571 100.403 183.71C101.062 184.359 102.181 184.569 102.907 183.872C103.559 183.247 103.777 182.066 103.069 181.369C102.821 181.124 102.585 180.87 102.364 180.602C102.258 180.473 102.156 180.342 102.056 180.208C102.001 180.134 101.947 180.058 101.893 179.982C101.859 179.933 101.709 179.709 101.867 179.95C102.037 180.208 101.854 179.925 101.818 179.868C101.769 179.789 101.721 179.71 101.674 179.629C101.591 179.486 101.51 179.341 101.433 179.193C101.274 178.887 101.129 178.572 101.003 178.251C100.977 178.185 100.951 178.118 100.926 178.052C100.825 177.777 100.919 178.017 100.954 178.153C100.915 178.002 100.864 177.855 100.825 177.704C100.745 177.398 100.685 177.086 100.648 176.772C100.641 176.708 100.636 176.643 100.629 176.58C100.59 176.243 100.624 176.904 100.636 176.709C100.644 176.572 100.635 176.433 100.643 176.295C100.652 176.147 100.674 176.001 100.694 175.853C100.724 175.619 100.67 176.007 100.653 176.042C100.685 175.975 100.7 175.869 100.722 175.797C100.995 174.91 100.567 173.821 99.6274 173.54C98.7328 173.272 97.6623 173.688 97.3705 174.635Z" fill="white"/>
<path d="M105.038 186.964C105.899 187.312 106.845 187.457 107.767 187.311C108.776 187.151 109.72 186.584 110.423 185.857C111.065 185.192 111.286 184.084 110.585 183.354C109.964 182.706 108.772 182.477 108.082 183.191C107.953 183.324 107.822 183.452 107.68 183.569C107.621 183.618 107.559 183.661 107.5 183.709C107.324 183.852 107.862 183.506 107.581 183.649C107.446 183.718 107.311 183.778 107.173 183.839C107.005 183.912 107.528 183.78 107.351 183.775C107.285 183.773 107.187 183.812 107.123 183.822C107.069 183.831 106.991 183.824 106.94 183.845C106.988 183.826 107.361 183.849 107.126 183.831C106.987 183.82 106.851 183.812 106.714 183.796C106.42 183.762 106.753 183.773 106.838 183.826C106.792 183.797 106.708 183.791 106.655 183.776C106.501 183.729 106.35 183.673 106.2 183.613C105.337 183.264 104.209 183.821 103.944 184.707C103.656 185.666 104.118 186.592 105.038 186.964Z" fill="white"/>
<path d="M85.1468 92.3775C85.9814 91.9726 86.425 90.8505 85.9683 90.0078C85.511 89.1617 84.4936 88.752 83.5986 89.1862C82.7647 89.5907 82.3201 90.7124 82.7778 91.5555C83.2351 92.4016 84.2525 92.8113 85.1468 92.3775Z" fill="white"/>
<path d="M46.0963 80.4676C46.9313 80.0626 47.3745 78.9404 46.9179 78.0971C46.4595 77.2514 45.4427 76.8419 44.548 77.2759C43.7134 77.6808 43.2699 78.802 43.7265 79.6453C44.1848 80.491 45.202 80.9015 46.0963 80.4676Z" fill="white"/>
<path d="M82.0154 138.8C82.8499 138.395 83.2932 137.273 82.8372 136.429C82.3788 135.584 81.3616 135.174 80.4671 135.608C79.6326 136.013 79.189 137.135 79.6456 137.978C80.1037 138.824 81.1208 139.234 82.0154 138.8Z" fill="white"/>
</g>
<g filter="url(#filter0_i_197_183)">
<ellipse cx="205.67" cy="176.024" rx="149.719" ry="70.4863" transform="rotate(-14.6332 205.67 176.024)" fill="#800000"/>
</g>
<g filter="url(#filter1_i_197_183)">
<path d="M142.06 188V177.98H132.28V188H122.44V173.12C122.44 170.48 122.74 167.86 123.34 165.26C123.94 162.66 124.84 160.22 126.04 157.94C127.24 155.66 128.74 153.58 130.54 151.7C132.34 149.82 134.46 148.24 136.9 146.96C138.22 146.28 139.46 145.78 140.62 145.46C141.82 145.1 143 144.84 144.16 144.68C145.36 144.52 146.58 144.44 147.82 144.44C149.1 144.4 150.46 144.36 151.9 144.32V188H142.06ZM142.06 155.42C140.78 155.98 139.62 156.72 138.58 157.64C137.58 158.52 136.68 159.52 135.88 160.64C135.12 161.76 134.48 162.96 133.96 164.24C133.44 165.52 133.06 166.82 132.82 168.14H142.06V155.42ZM154.784 188V144.44H164.684V178.16H176.624V188H154.784ZM179.51 188V144.44H189.41V188H179.51ZM211.904 188V177.98H202.124V188H192.284V173.12C192.284 170.48 192.584 167.86 193.184 165.26C193.784 162.66 194.684 160.22 195.884 157.94C197.084 155.66 198.584 153.58 200.384 151.7C202.184 149.82 204.304 148.24 206.744 146.96C208.064 146.28 209.304 145.78 210.464 145.46C211.664 145.1 212.844 144.84 214.004 144.68C215.204 144.52 216.424 144.44 217.664 144.44C218.944 144.4 220.304 144.36 221.744 144.32V188H211.904ZM211.904 155.42C210.624 155.98 209.464 156.72 208.424 157.64C207.424 158.52 206.524 159.52 205.724 160.64C204.964 161.76 204.324 162.96 203.804 164.24C203.284 165.52 202.904 166.82 202.664 168.14H211.904V155.42ZM240.708 178.16H254.508V188H224.628L241.848 154.34H230.268V144.44H257.928L240.708 178.16Z" fill="white"/>
</g>
<path d="M125.292 211.18C123.972 211.18 122.838 210.916 121.89 210.388C120.954 209.848 120.234 209.092 119.73 208.12C119.226 207.136 118.974 205.978 118.974 204.646C118.974 203.65 119.118 202.756 119.406 201.964C119.694 201.16 120.108 200.476 120.648 199.912C121.188 199.336 121.848 198.898 122.628 198.598C123.42 198.286 124.308 198.13 125.292 198.13C125.952 198.13 126.6 198.214 127.236 198.382C127.872 198.55 128.43 198.79 128.91 199.102C129.162 199.258 129.33 199.45 129.414 199.678C129.498 199.894 129.516 200.11 129.468 200.326C129.42 200.53 129.318 200.704 129.162 200.848C129.018 200.992 128.832 201.076 128.604 201.1C128.388 201.112 128.148 201.034 127.884 200.866C127.512 200.626 127.11 200.452 126.678 200.344C126.246 200.236 125.808 200.182 125.364 200.182C124.512 200.182 123.792 200.356 123.204 200.704C122.616 201.052 122.172 201.556 121.872 202.216C121.572 202.876 121.422 203.686 121.422 204.646C121.422 205.594 121.572 206.404 121.872 207.076C122.172 207.748 122.616 208.258 123.204 208.606C123.792 208.954 124.512 209.128 125.364 209.128C125.82 209.128 126.27 209.074 126.714 208.966C127.158 208.846 127.578 208.666 127.974 208.426C128.238 208.27 128.472 208.204 128.676 208.228C128.892 208.24 129.072 208.312 129.216 208.444C129.36 208.576 129.456 208.744 129.504 208.948C129.552 209.14 129.54 209.344 129.468 209.56C129.396 209.764 129.252 209.944 129.036 210.1C128.556 210.448 127.98 210.718 127.308 210.91C126.648 211.09 125.976 211.18 125.292 211.18ZM132.774 211.144C132.402 211.144 132.114 211.042 131.91 210.838C131.718 210.622 131.622 210.328 131.622 209.956V199.336C131.622 198.952 131.718 198.664 131.91 198.472C132.114 198.268 132.402 198.166 132.774 198.166C133.146 198.166 133.428 198.268 133.62 198.472C133.824 198.664 133.926 198.952 133.926 199.336V203.692H135.978L135.528 203.998L138.84 198.76C139.008 198.508 139.2 198.34 139.416 198.256C139.644 198.172 139.866 198.154 140.082 198.202C140.298 198.25 140.484 198.352 140.64 198.508C140.796 198.664 140.88 198.856 140.892 199.084C140.916 199.312 140.844 199.558 140.676 199.822L137.652 204.448L136.752 203.782C137.532 203.902 138.192 204.184 138.732 204.628C139.272 205.072 139.734 205.69 140.118 206.482L141.594 209.506C141.75 209.806 141.798 210.076 141.738 210.316C141.69 210.556 141.57 210.748 141.378 210.892C141.198 211.024 140.988 211.102 140.748 211.126C140.52 211.15 140.292 211.108 140.064 211C139.848 210.88 139.674 210.682 139.542 210.406L138.12 207.346C137.832 206.722 137.484 206.278 137.076 206.014C136.68 205.75 136.182 205.618 135.582 205.618H133.926V209.956C133.926 210.328 133.83 210.622 133.638 210.838C133.446 211.042 133.158 211.144 132.774 211.144ZM143.631 211.144C143.343 211.144 143.109 211.078 142.929 210.946C142.761 210.814 142.659 210.64 142.623 210.424C142.587 210.196 142.629 209.944 142.749 209.668L147.501 199.138C147.657 198.79 147.843 198.544 148.059 198.4C148.287 198.244 148.545 198.166 148.833 198.166C149.109 198.166 149.355 198.244 149.571 198.4C149.799 198.544 149.991 198.79 150.147 199.138L154.917 209.668C155.049 209.944 155.097 210.196 155.061 210.424C155.025 210.652 154.923 210.832 154.755 210.964C154.587 211.084 154.365 211.144 154.089 211.144C153.753 211.144 153.489 211.066 153.297 210.91C153.117 210.742 152.955 210.49 152.811 210.154L151.641 207.436L152.613 208.066H145.017L145.989 207.436L144.837 210.154C144.681 210.502 144.519 210.754 144.351 210.91C144.183 211.066 143.943 211.144 143.631 211.144ZM148.797 200.812L146.277 206.806L145.809 206.23H151.821L151.371 206.806L148.833 200.812H148.797ZM164.658 211.144C164.298 211.144 164.022 211.042 163.83 210.838C163.638 210.622 163.542 210.328 163.542 209.956V205.618H162.336C161.724 205.618 161.214 205.756 160.806 206.032C160.41 206.296 160.068 206.734 159.78 207.346L158.358 210.406C158.226 210.682 158.046 210.88 157.818 211C157.602 211.108 157.374 211.15 157.134 211.126C156.906 211.102 156.696 211.024 156.504 210.892C156.324 210.748 156.204 210.556 156.144 210.316C156.096 210.076 156.15 209.806 156.306 209.506L157.782 206.482C158.166 205.678 158.634 205.06 159.186 204.628C159.738 204.184 160.398 203.902 161.166 203.782L160.266 204.448L157.242 199.822C157.074 199.558 156.996 199.312 157.008 199.084C157.032 198.856 157.122 198.664 157.278 198.508C157.434 198.352 157.62 198.25 157.836 198.202C158.052 198.154 158.274 198.172 158.502 198.256C158.73 198.34 158.922 198.508 159.078 198.76L162.39 203.998L161.958 203.692H163.542V199.336C163.542 198.952 163.638 198.664 163.83 198.472C164.022 198.268 164.298 198.166 164.658 198.166C165.006 198.166 165.276 198.268 165.468 198.472C165.66 198.664 165.756 198.952 165.756 199.336V203.692H167.358L166.908 203.998L170.22 198.76C170.388 198.508 170.58 198.34 170.796 198.256C171.024 198.172 171.246 198.154 171.462 198.202C171.678 198.25 171.864 198.352 172.02 198.508C172.176 198.664 172.26 198.856 172.272 199.084C172.296 199.312 172.224 199.558 172.056 199.822L169.032 204.448L168.132 203.782C168.648 203.854 169.11 204.004 169.518 204.232C169.926 204.46 170.292 204.76 170.616 205.132C170.952 205.504 171.246 205.954 171.498 206.482L172.974 209.506C173.13 209.806 173.178 210.076 173.118 210.316C173.07 210.556 172.95 210.748 172.758 210.892C172.578 211.024 172.368 211.102 172.128 211.126C171.9 211.15 171.672 211.108 171.444 211C171.228 210.88 171.054 210.682 170.922 210.406L169.5 207.346C169.212 206.722 168.864 206.278 168.456 206.014C168.06 205.75 167.562 205.618 166.962 205.618H165.756V209.956C165.756 210.328 165.66 210.622 165.468 210.838C165.276 211.042 165.006 211.144 164.658 211.144ZM176.118 211.144C175.962 211.144 175.824 211.12 175.704 211.072C175.584 211.024 175.482 210.952 175.398 210.856C175.314 210.748 175.248 210.622 175.2 210.478C175.164 210.334 175.146 210.166 175.146 209.974V199.264C175.146 198.916 175.236 198.646 175.416 198.454C175.608 198.262 175.878 198.166 176.226 198.166C176.574 198.166 176.838 198.262 177.018 198.454C177.198 198.646 177.288 198.916 177.288 199.264V207.778H176.874L183.714 198.832C183.894 198.592 184.068 198.424 184.236 198.328C184.404 198.22 184.626 198.166 184.902 198.166C185.094 198.166 185.256 198.208 185.388 198.292C185.532 198.376 185.64 198.502 185.712 198.67C185.796 198.826 185.838 199.012 185.838 199.228V210.028C185.838 210.388 185.748 210.664 185.568 210.856C185.388 211.048 185.124 211.144 184.776 211.144C184.428 211.144 184.158 211.048 183.966 210.856C183.786 210.664 183.696 210.388 183.696 210.028V201.514H184.092L177.27 210.46C177.078 210.7 176.904 210.874 176.748 210.982C176.604 211.09 176.394 211.144 176.118 211.144ZM194.469 211.144C194.313 211.144 194.175 211.12 194.055 211.072C193.935 211.024 193.833 210.952 193.749 210.856C193.665 210.748 193.599 210.622 193.551 210.478C193.515 210.334 193.497 210.166 193.497 209.974V199.264C193.497 198.916 193.587 198.646 193.767 198.454C193.959 198.262 194.229 198.166 194.577 198.166C194.925 198.166 195.189 198.262 195.369 198.454C195.549 198.646 195.639 198.916 195.639 199.264V207.778H195.225L202.065 198.832C202.245 198.592 202.419 198.424 202.587 198.328C202.755 198.22 202.977 198.166 203.253 198.166C203.445 198.166 203.607 198.208 203.739 198.292C203.883 198.376 203.991 198.502 204.063 198.67C204.147 198.826 204.189 199.012 204.189 199.228V210.028C204.189 210.388 204.099 210.664 203.919 210.856C203.739 211.048 203.475 211.144 203.127 211.144C202.779 211.144 202.509 211.048 202.317 210.856C202.137 210.664 202.047 210.388 202.047 210.028V201.514H202.443L195.621 210.46C195.429 210.7 195.255 210.874 195.099 210.982C194.955 211.09 194.745 211.144 194.469 211.144ZM208.114 211.144C207.742 211.144 207.454 211.042 207.25 210.838C207.058 210.622 206.962 210.328 206.962 209.956V199.354C206.962 198.97 207.058 198.676 207.25 198.472C207.454 198.268 207.742 198.166 208.114 198.166C208.486 198.166 208.768 198.268 208.96 198.472C209.164 198.676 209.266 198.97 209.266 199.354V203.602H215.8V199.354C215.8 198.97 215.896 198.676 216.088 198.472C216.292 198.268 216.58 198.166 216.952 198.166C217.324 198.166 217.606 198.268 217.798 198.472C218.002 198.676 218.104 198.97 218.104 199.354V209.956C218.104 210.328 218.002 210.622 217.798 210.838C217.606 211.042 217.324 211.144 216.952 211.144C216.58 211.144 216.292 211.042 216.088 210.838C215.896 210.622 215.8 210.328 215.8 209.956V205.528H209.266V209.956C209.266 210.328 209.17 210.622 208.978 210.838C208.786 211.042 208.498 211.144 208.114 211.144ZM221.01 211.144C220.722 211.144 220.488 211.078 220.308 210.946C220.14 210.814 220.038 210.64 220.002 210.424C219.966 210.196 220.008 209.944 220.128 209.668L224.88 199.138C225.036 198.79 225.222 198.544 225.438 198.4C225.666 198.244 225.924 198.166 226.212 198.166C226.488 198.166 226.734 198.244 226.95 198.4C227.178 198.544 227.37 198.79 227.526 199.138L232.296 209.668C232.428 209.944 232.476 210.196 232.44 210.424C232.404 210.652 232.302 210.832 232.134 210.964C231.966 211.084 231.744 211.144 231.468 211.144C231.132 211.144 230.868 211.066 230.676 210.91C230.496 210.742 230.334 210.49 230.19 210.154L229.02 207.436L229.992 208.066H222.396L223.368 207.436L222.216 210.154C222.06 210.502 221.898 210.754 221.73 210.91C221.562 211.066 221.322 211.144 221.01 211.144ZM226.176 200.812L223.656 206.806L223.188 206.23H229.2L228.75 206.806L226.212 200.812H226.176ZM242.268 211.144C241.896 211.144 241.608 211.042 241.404 210.838C241.212 210.622 241.116 210.328 241.116 209.956V206.05C240.792 206.206 240.372 206.332 239.856 206.428C239.352 206.524 238.848 206.572 238.344 206.572C237.252 206.572 236.322 206.374 235.554 205.978C234.786 205.582 234.204 204.994 233.808 204.214C233.412 203.422 233.214 202.432 233.214 201.244V199.354C233.214 198.97 233.31 198.676 233.502 198.472C233.706 198.268 233.994 198.166 234.366 198.166C234.738 198.166 235.02 198.268 235.212 198.472C235.416 198.676 235.518 198.97 235.518 199.354V201.136C235.518 202.336 235.776 203.212 236.292 203.764C236.808 204.316 237.576 204.592 238.596 204.592C239.028 204.592 239.46 204.55 239.892 204.466C240.336 204.37 240.744 204.226 241.116 204.034V199.354C241.116 198.97 241.212 198.676 241.404 198.472C241.608 198.268 241.896 198.166 242.268 198.166C242.64 198.166 242.922 198.268 243.114 198.472C243.318 198.676 243.42 198.97 243.42 199.354V209.956C243.42 210.328 243.324 210.622 243.132 210.838C242.94 211.042 242.652 211.144 242.268 211.144ZM247.403 211C247.007 211 246.701 210.898 246.485 210.694C246.281 210.478 246.179 210.172 246.179 209.776V199.534C246.179 199.138 246.281 198.838 246.485 198.634C246.701 198.418 247.007 198.31 247.403 198.31H253.829C254.129 198.31 254.357 198.388 254.513 198.544C254.681 198.7 254.765 198.922 254.765 199.21C254.765 199.51 254.681 199.744 254.513 199.912C254.357 200.068 254.129 200.146 253.829 200.146H248.393V203.638H253.433C253.745 203.638 253.979 203.716 254.135 203.872C254.291 204.028 254.369 204.256 254.369 204.556C254.369 204.856 254.291 205.084 254.135 205.24C253.979 205.396 253.745 205.474 253.433 205.474H248.393V209.164H253.829C254.129 209.164 254.357 209.242 254.513 209.398C254.681 209.554 254.765 209.782 254.765 210.082C254.765 210.382 254.681 210.61 254.513 210.766C254.357 210.922 254.129 211 253.829 211H247.403ZM257.783 207.346C257.555 207.346 257.375 207.274 257.243 207.13C257.123 206.986 257.051 206.782 257.027 206.518L256.487 199.642C256.451 199.198 256.547 198.844 256.775 198.58C257.003 198.304 257.339 198.166 257.783 198.166C258.215 198.166 258.539 198.304 258.755 198.58C258.983 198.844 259.079 199.198 259.043 199.642L258.503 206.518C258.491 206.782 258.419 206.986 258.287 207.13C258.167 207.274 257.999 207.346 257.783 207.346ZM257.783 211.09C257.375 211.09 257.045 210.964 256.793 210.712C256.553 210.46 256.433 210.136 256.433 209.74C256.433 209.356 256.553 209.044 256.793 208.804C257.045 208.552 257.375 208.426 257.783 208.426C258.203 208.426 258.527 208.552 258.755 208.804C258.995 209.044 259.115 209.356 259.115 209.74C259.115 210.136 258.995 210.46 258.755 210.712C258.527 210.964 258.203 211.09 257.783 211.09Z" fill="white"/>
<defs>
<filter id="filter0_i_197_183" x="59.7017" y="98.0231" width="291.937" height="160.001" filterUnits="userSpaceOnUse" color-interpolation-filters="sRGB">
<feFlood flood-opacity="0" result="BackgroundImageFix"/>
<feBlend mode="normal" in="SourceGraphic" in2="BackgroundImageFix" result="shape"/>
<feColorMatrix in="SourceAlpha" type="matrix" values="0 0 0 0 0 0 0 0 0 0 0 0 0 0 0 0 0 0 127 0" result="hardAlpha"/>
<feOffset dy="10"/>
<feGaussianBlur stdDeviation="2"/>
<feComposite in2="hardAlpha" operator="arithmetic" k2="-1" k3="1"/>
<feColorMatrix type="matrix" values="0 0 0 0 0 0 0 0 0 0 0 0 0 0 0 0 0 0 0.25 0"/>
<feBlend mode="normal" in2="shape" result="effect1_innerShadow_197_183"/>
</filter>
<filter id="filter1_i_197_183" x="122.44" y="144.32" width="137.487" height="44.68" filterUnits="userSpaceOnUse" color-interpolation-filters="sRGB">
<feFlood flood-opacity="0" result="BackgroundImageFix"/>
<feBlend mode="normal" in="SourceGraphic" in2="BackgroundImageFix" result="shape"/>
<feColorMatrix in="SourceAlpha" type="matrix" values="0 0 0 0 0 0 0 0 0 0 0 0 0 0 0 0 0 0 127 0" result="hardAlpha"/>
<feOffset dx="2" dy="1"/>
<feGaussianBlur stdDeviation="1.8"/>
<feComposite in2="hardAlpha" operator="arithmetic" k2="-1" k3="1"/>
<feColorMatrix type="matrix" values="0 0 0 0 0.6 0 0 0 0 0.8 0 0 0 0 1 0 0 0 0.58 0"/>
<feBlend mode="normal" in2="shape" result="effect1_innerShadow_197_183"/>
</filter>
<clipPath id="clip0_197_183">
<rect width="201" height="201" fill="white" transform="translate(-48 87.7289) rotate(-25.8784)"/>
</clipPath>
</defs>
</svg>
