<svg width="226" height="239" viewBox="0 0 226 239" fill="none" xmlns="http://www.w3.org/2000/svg">
<g filter="url(#filter0_d_105_253)">
<path d="M122.9 185.846C123.869 197.071 119.434 199.847 121.665 211.792C125.141 230.385 137.732 238.62 132.323 246.027C130.646 248.327 125.078 251.969 120.724 253.277C110.152 256.452 102.976 251.294 89.5725 252.991C62.1067 256.467 60.4317 263.419 49.7914 261.804C39.0303 260.17 41.2008 246.446 38.7794 226.203C36.8201 209.832 31.7726 205.698 29.8226 195.563C24.5211 168 48.245 127.836 73.5604 126.482C97.6531 125.192 120.751 160.956 122.9 185.846Z" fill="#3399FF"/>
<path d="M65.699 164.548C61.4011 177.821 47.5048 185.951 34.6616 182.706C21.8167 179.461 14.8896 166.071 19.1875 152.796C23.4848 139.524 37.3808 131.394 50.224 134.639C63.0693 137.883 69.9957 151.274 65.699 164.548Z" fill="#3399FF"/>
<path d="M85.1605 162.084C92.6305 173.868 108.113 178.28 119.743 171.937C131.373 165.594 134.747 150.9 127.277 139.116C119.809 127.332 104.324 122.921 92.6946 129.264C81.0646 135.605 77.6907 150.301 85.1605 162.084Z" fill="#3399FF"/>
<path d="M125.118 47.6582C118.451 37.1374 103.618 33.7513 91.9864 40.0947C85.7361 43.5025 81.685 49.0294 80.3066 55.0442C75.2453 53.9642 69.8949 53.7024 64.4363 54.3933C60.63 54.8751 56.9909 55.7948 53.5646 57.088C50.5359 53.0831 43.4641 48.0123 37.9118 46.6099C25.0681 43.3643 10.9395 51.5347 7.10192 63.3834C3.43792 74.7001 13.0966 87.1618 24.8764 91.0155C24.1652 95.0806 24.038 99.3038 24.5805 103.59C27.6182 127.59 50.3874 144.476 75.4366 141.305C100.486 138.135 118.33 116.109 115.292 92.1088C114.751 87.8335 113.581 83.7872 111.887 80.036C113.336 79.554 114.758 78.9418 116.134 78.1909C127.764 71.8477 131.788 58.1785 125.118 47.6582Z" fill="#3399FF"/>
<path d="M26.4193 246.641C34.8839 259.996 51.1749 265.68 62.8048 259.338C74.4348 252.995 77.0007 237.027 68.5362 223.673C60.0706 210.318 43.7805 204.633 32.1496 210.975C20.5198 217.319 17.9542 233.286 26.4193 246.641Z" fill="#3399FF"/>
<path d="M140.596 232.419C135.725 247.462 121.365 257.026 108.521 253.781C95.6772 250.536 89.2141 235.711 94.085 220.669C98.9558 205.625 113.316 196.062 126.16 199.306C139.004 202.552 145.467 217.377 140.596 232.419Z" fill="#3399FF"/>
<path d="M21.1604 53.1457C14.2348 56.493 11.8003 64.5209 12.8107 71.5691C13.3651 75.4368 14.9369 79.1379 17.0434 82.4703C18.4001 84.6166 21.2843 87.3101 23.9674 84.9756C26.6781 82.6186 26.4853 78.535 27.1344 75.4399C27.9774 71.4174 30.7764 68.4238 34.1044 65.869C37.1625 63.5201 41.3885 61.5796 43.325 58.2334C44.4032 56.3714 41.2554 43.4356 21.1604 53.1457Z" fill="#66B2FF"/>
<path d="M91.376 44.2444C84.8401 47.5393 84.3656 55.4042 82.6812 57.4311C67.0941 56.8354 51.2629 62.7155 40.4638 73.3054C37.7858 75.9323 35.3673 78.9488 34.2264 82.4117C32.9606 86.2545 33.6765 90.1727 34.5963 93.9626C35.1106 96.0863 35.6776 98.2017 35.9764 100.367C36.2725 102.504 36.3221 104.666 36.3775 106.822C36.4784 110.755 36.6095 114.768 38.1761 118.454C40.6343 124.235 46.1221 128.687 52.4999 130.746C59.2766 132.934 74.6808 131.359 78.7021 130.538C85.8471 129.078 93.3854 125.946 98.5657 120.91C104.043 115.587 105.326 107.747 106.206 100.687C107.075 93.7269 104.661 86.1867 101.337 79.9214C99.5782 76.6063 97.0441 73.9914 94.5806 71.1312C93.814 70.2402 90.4481 66.2068 92.4876 65.3089C94.2772 64.5214 96.9467 66.5834 98.3233 67.3184C100.383 68.4192 102.442 69.5184 104.5 70.6194C104.652 70.6995 104.855 70.7085 104.972 70.5597C106.069 69.1681 104.424 67.7564 103.408 66.8576C101.603 65.2598 99.5973 63.848 97.4436 62.6583C95.5702 61.6238 92.7245 60.8415 91.8107 58.8567C90.7632 56.5783 92.9679 54.2587 94.8901 53.0069C99.1536 50.2281 105.188 50.9282 109.383 54.0688C113.594 57.2215 112.977 61.0784 112.846 65.5355C112.815 66.5368 112.81 67.5413 112.888 68.5399C112.953 69.3416 112.949 70.4688 113.543 71.1168C114.739 72.4151 117.012 72.1307 118.053 71.4032C122.618 68.2112 123.247 61.351 123.751 57.6709C125.119 47.6587 110.321 34.6942 91.376 44.2444Z" fill="#66B2FF"/>
<path d="M88.6018 71.4682C85.3365 55.7999 43.4823 62.7228 49.1859 79.6053C50.3297 82.9914 56.3531 86.2582 61.5369 84.5849C70.9367 81.5498 68.6242 74.1066 79.4885 77.0231C82.3973 77.804 89.5433 75.9908 88.6018 71.4682C88.9155 72.9704 88.2861 69.9501 88.6018 71.4682Z" fill="#99CCFF"/>
<path d="M84.6503 101.663C82.7039 99.0326 79.9486 97.1572 76.5392 96.4122C69.4638 94.8669 60.8501 95.951 55.158 100.514C53.7977 101.604 52.604 102.874 51.6732 104.294C50.8479 105.551 49.8155 107.314 49.8806 108.814C49.9335 110.025 51.1924 110.694 52.2636 109.859C53.0596 109.238 53.7375 108.38 54.3745 107.629C54.7013 107.243 55.0161 106.849 55.3222 106.45C55.5616 106.135 56.5491 104.713 57.2048 105.03C57.673 107.679 59.0539 110.448 61.997 111.376C63.5081 111.852 65.1622 111.777 66.7404 111.615C68.5914 111.424 70.4706 111.199 72.2736 110.735C75.248 109.971 78.244 108.125 78.8267 105.144C78.9443 104.541 78.9181 103.949 78.794 103.354C78.7308 103.047 78.6571 102.744 78.6056 102.433C78.4556 101.516 78.6065 100.929 80.0634 101.888C80.8835 102.358 81.6026 103.24 82.3011 103.853C83.0212 104.486 83.7337 105.305 84.5714 105.807C85.3911 106.295 86.2436 105.917 86.303 105.004C86.3762 103.847 85.3174 102.563 84.6503 101.663Z" fill="#3399FF"/>
<path d="M90.9633 86.943C91.3818 90.2492 88.7874 93.3012 85.166 93.7596C81.5447 94.2179 78.2717 91.9085 77.8532 88.6023C77.4348 85.2961 80.0292 82.244 83.6505 81.7857C87.2719 81.3273 90.5449 83.6368 90.9633 86.943Z" fill="#3399FF"/>
<path d="M87.3174 85.4835C85.8586 84.3644 83.9205 84.2647 82.56 85.3194C81.206 86.3695 82.07 90.1108 83.0022 91.2617C84.1273 92.6505 87.0583 91.4848 87.8186 90.1921C89.0253 88.1463 88.591 86.4582 87.3174 85.4835Z" fill="#99CCFF"/>
<path d="M56.8833 91.2565C57.3018 94.5627 54.7059 97.6149 51.0856 98.0731C47.4649 98.5314 44.1908 96.2221 43.7723 92.9159C43.3539 89.6097 45.9494 86.5575 49.5701 86.0992C53.1904 85.641 56.4648 87.9502 56.8833 91.2565Z" fill="#3399FF"/>
<path d="M47.3446 91.1982C47.1966 92.9246 47.5672 95.8393 49.6276 96.2903C52.8608 96.9969 55.1266 93.9466 54.8786 91.9875C54.143 86.1754 47.5698 88.5717 47.3446 91.1982Z" fill="#99CCFF"/>
<path d="M84.0068 112.367C82.795 111.854 81.5266 113.272 80.8516 114.211C79.7007 115.814 72.7977 120.183 70.9473 117.629C70.586 117.133 70.6142 116.543 70.6467 115.959C70.7116 114.837 70.9226 113.255 69.6145 112.637C69.5801 112.62 69.5426 112.608 69.5073 112.593C69.4654 112.526 69.3887 112.478 69.2709 112.477C69.1816 112.476 69.0954 112.48 69.0108 112.486C68.4842 112.455 67.959 112.67 67.6577 113.059C67.3423 113.336 67.0934 113.698 66.9099 114.108C66.3073 115.463 66.9166 117.155 65.962 118.391C64.8374 119.849 62.074 119.876 60.3957 119.641C58.3881 119.358 56.7901 118.357 55.1159 117.401C54.2963 116.933 52.8463 115.85 51.8368 116.456C51.0658 116.92 50.9504 118.729 53.133 120.092C56.5678 122.237 61.8078 122.861 69.1857 121.981C76.9737 121.051 80.3965 119.53 83.9246 116.091C85.0647 114.981 85.3208 112.924 84.0068 112.367Z" fill="#3399FF"/>
<path d="M60.4169 141.031C57.2103 137.617 52.9606 137.57 50.6933 137.754C46.2212 138.119 41.719 139.824 38.2155 142.321C23.8488 152.561 25.4581 168.278 29.8786 174.647C32.071 177.806 36.1337 179.145 40.3307 179.016C49.6801 178.727 57.0293 171.594 60.1663 164.213C62.1068 159.647 62.9575 154.606 62.7976 149.785C62.7015 146.873 61.9269 142.639 60.4169 141.031Z" fill="#66B2FF"/>
<path d="M118.512 146.545C117.763 140.622 112.737 132.457 103.721 131.806C95.6533 131.223 87.5718 136.11 85.2873 144.226C84.0524 148.618 85.112 153.105 86.8797 157.183C88.6939 161.372 96.9165 173.423 107.103 169.803C115.74 166.732 119.746 156.318 118.512 146.545Z" fill="#66B2FF"/>
<path d="M58.0714 149.81C60.5078 146.796 58.5124 143.382 56.1245 142.89C50.5103 141.233 43.259 145.25 39.2247 148.786C36.1061 151.52 34.6784 155.021 34.0946 158.862C33.5268 162.604 33.638 166.759 35.161 170.27C36.2978 172.893 38.5737 175.306 41.8698 175.348C45.0756 175.389 48.063 173.277 49.3802 170.637C51.0882 167.215 47.3243 162.874 49.7692 158.638C52.4545 153.987 55.4985 152.993 58.0714 149.81Z" fill="#99CCFF"/>
<path d="M106.189 138.021C102.59 135.731 96.1356 137.92 92.8166 140.355C88.8305 143.279 88.1783 149.983 88.8484 154.003C89.9925 160.875 98.1178 164.858 103.466 163.259C108.883 161.64 104.255 158.09 103.774 152.114C103.391 147.372 110.621 141.43 106.189 138.021Z" fill="#99CCFF"/>
<path d="M98.0726 167.173C93.7705 163.743 89.5882 159.94 85.5182 146.649C83.6626 140.593 71.6286 139.021 67.4235 144.475C63.4882 149.58 60.3805 164.004 57.7821 168.604C55.2417 173.101 52.3673 177.759 48.7216 181.584C42.4396 188.175 39.1397 202.216 45.5879 209.472C52.6784 217.453 57.8197 221.624 64.9295 227.266C75.2247 235.436 93.9138 234.984 99.1685 226.531C101.082 223.451 104.066 217.289 105.857 215.038C110.695 208.962 115.367 202.58 113.584 188.492C111.842 174.732 101.178 169.648 98.0726 167.173Z" fill="#66B2FF"/>
<path d="M95.9107 178.655C91.3832 172.115 85.2387 168.828 82.4139 160.956C81.2522 157.718 80.7062 147.991 75.9064 146.831C68.5345 145.049 68.4359 156.796 67.9205 160.773C66.9297 168.4 63.1607 177.146 58.0601 183.446C46.0768 198.244 65.7217 221.055 81.5787 220.119C103.875 218.804 105.184 192.047 95.9107 178.655Z" fill="#99CCFF"/>
<path d="M67.9076 225.49C64.6831 220.959 60.9085 216.224 55.144 213.846C38.6075 207.023 29.5236 222.455 29.0513 230.975C28.777 235.925 29.9921 240.911 32.0687 245.452C33.9157 249.49 36.9409 252.889 41.6705 254.921C50.4702 258.702 61.7052 256.856 68.2676 250.177C71.3684 247.021 73.2456 243.083 73.2902 239.142C73.3445 234.301 70.7753 229.52 67.9076 225.49Z" fill="#66B2FF"/>
<path d="M134.857 211.099C133.259 207.9 130.021 204.319 126.097 203.54C121.885 202.269 117.195 203.63 113.363 205.623C108.992 207.897 105.149 211.05 102.146 214.778C95.6748 222.811 94.5025 231.483 95.4282 238.797C96.4188 246.623 103.739 252.084 111.198 250.167C113.539 249.565 115.759 248.578 117.882 247.467C126.06 243.194 132.57 236.028 135.311 227.69C137.082 222.3 137.427 216.246 134.857 211.099Z" fill="#66B2FF"/>
<path d="M60.7856 238.192C58.415 237.339 51.4443 234.26 53.6988 224.726C55.1822 218.452 49.1835 216.646 42.404 219.145C38.08 220.737 36.9319 224.886 36.1923 228.084C34.4984 235.407 37.12 243.162 43.6411 248.476C46.5835 250.873 50.5234 252.329 55.3415 251.722C64.4496 250.577 69.0554 241.164 60.7856 238.192Z" fill="#99CCFF"/>
<path d="M104.885 215.899C100.325 221.208 98.3519 228.042 99.9489 233.885C100.658 236.475 102.396 238.917 105.608 240.063C109.035 241.283 112.846 240.212 115.789 238.339C118.708 236.482 119.723 233.797 118.981 231.146C118.556 229.627 117.544 228.297 116.899 226.844C116.114 225.074 116.291 223.334 117.565 221.613C119.615 218.843 123.665 217.009 124.278 215.164C126.009 209.956 115.043 204.077 104.885 215.899Z" fill="#99CCFF"/>
<path d="M73.3322 100.308C71.5703 98.3646 64.6738 98.8246 61.6601 101.224C59.394 103.029 59.6469 106.744 62.4286 108.096C65.4021 109.54 69.7385 109.396 72.3764 107.262C74.5933 105.468 75.3946 102.581 73.3322 100.308Z" fill="#99CCFF"/>
<path d="M56.3462 74.7421C56.5087 74.5148 56.679 74.2936 56.8658 74.0816C56.9596 73.9749 57.0562 73.8721 57.1562 73.7716C57.3351 73.5918 57.5599 73.5534 57.0791 73.8323C57.542 73.5642 57.9566 73.1733 58.4182 72.8883C58.7076 72.7101 57.7867 73.1834 58.3269 72.9452C58.4338 72.8976 58.5384 72.8462 58.6462 72.8C58.914 72.6853 59.1883 72.5827 59.4684 72.4948C59.57 72.4636 60.0823 72.3194 59.6127 72.4468C59.1338 72.5754 59.698 72.4374 59.7654 72.4261C60.0554 72.3724 60.347 72.3383 60.6399 72.3126C62.1012 72.1885 63.3306 70.7429 63.0969 69.423C62.8463 68.0062 61.5646 67.1036 59.9974 67.2368C56.8367 67.5051 53.7151 69.1874 51.9619 71.6508C51.1548 72.7838 51.121 74.4066 52.4161 75.2396C53.5563 75.9746 55.4844 75.9543 56.3462 74.7421Z" fill="white"/>
<path d="M68.5685 70.5972C69.8378 70.3227 71.1273 70.1595 72.425 70.1219C72.5322 70.1197 73.0729 70.0712 72.605 70.1162C72.1417 70.1606 72.674 70.1203 72.7848 70.1219C73.124 70.1302 73.4626 70.1471 73.8006 70.1712C74.4468 70.2175 75.0873 70.2929 75.7237 70.3974C76.0258 70.4459 76.3275 70.5031 76.6267 70.5648C76.7756 70.5972 76.925 70.6323 77.074 70.6647C77.4134 70.737 76.5078 70.5115 77.0001 70.647C77.6167 70.8166 78.226 71.0027 78.8241 71.2229C79.4191 71.4436 80.0033 71.6898 80.571 71.9652C80.727 72.0407 80.8898 72.1453 81.0534 72.2072C80.9159 72.1548 80.6095 71.9617 80.9136 72.1366C81.2244 72.315 81.5325 72.4966 81.8339 72.6875C83.026 73.4402 84.8458 73.3678 85.7655 72.1899C86.6178 71.0959 86.5844 69.4041 85.3112 68.6005C80.3414 65.4617 73.929 64.2186 67.926 65.5205C67.1801 65.6832 66.5441 65.9388 66.0559 66.5128C65.6287 67.0151 65.3581 67.7821 65.4689 68.4112C65.6905 69.6695 67.0357 70.9307 68.5685 70.5972Z" fill="white"/>
<path d="M93.7555 51.7808C94.6077 51.0453 95.5117 50.3614 96.5001 49.7877C96.6045 49.7255 96.7218 49.6724 96.8222 49.6046C96.7034 49.6855 96.3467 49.8469 96.6755 49.6905C96.9174 49.5757 97.1591 49.4594 97.4073 49.3545C97.8622 49.1607 98.3269 49.0054 98.8008 48.8566C99.1733 48.7406 98.6856 48.8865 98.5709 48.9072C98.6823 48.8869 98.7939 48.8545 98.9049 48.8312C99.1284 48.783 99.3527 48.7409 99.5794 48.7045C100.062 48.6266 100.551 48.5785 101.039 48.5565C101.182 48.5491 101.334 48.5574 101.476 48.5425C101.352 48.5551 100.867 48.5324 101.257 48.5457C101.498 48.5551 101.737 48.5616 101.977 48.5771C102.535 48.6137 103.089 48.6797 103.643 48.7627C105.082 48.9787 106.675 47.9059 106.837 46.5567C107.006 45.1377 106.041 43.9126 104.5 43.6806C101.937 43.2947 99.3795 43.404 96.8698 44.1013C94.4396 44.7779 92.2381 46.1618 90.3963 47.7527C89.8447 48.2282 89.43 48.7262 89.3096 49.4303C89.2036 50.0622 89.3885 50.8608 89.8376 51.3505C90.721 52.3179 92.6041 52.7746 93.7555 51.7808Z" fill="white"/>
<path d="M108.925 50.9895C109.003 51.0203 109.717 51.3614 109.73 51.3492C109.395 51.1668 109.317 51.1239 109.493 51.2223C109.565 51.2629 109.638 51.3049 109.708 51.3489C109.803 51.4048 109.896 51.4624 109.988 51.5232C110.212 51.6699 110.428 51.8265 110.634 51.9935C110.695 52.0417 110.754 52.093 110.813 52.1443C110.965 52.2759 110.894 52.2095 110.6 51.9451C110.653 52.0424 110.791 52.1336 110.869 52.2158C111.041 52.4007 111.202 52.5915 111.353 52.7911C111.43 52.8915 111.499 52.9929 111.571 53.0953C111.835 53.4663 111.344 52.6836 111.491 52.9668C111.734 53.4398 111.958 53.9048 112.125 54.407C112.553 55.6834 114.478 56.3133 115.769 55.7471C117.247 55.0983 117.772 53.7467 117.314 52.379C116.374 49.5669 114.075 47.4262 111.176 46.2498C109.846 45.7122 108.027 46.3618 107.489 47.6428C106.928 48.9718 107.506 50.4148 108.925 50.9895Z" fill="white"/>
<path d="M22.9077 62.9399C22.9392 62.8149 22.9873 62.6831 23.0105 62.5561C22.8787 63.2608 22.8998 62.9026 22.9827 62.6852C23.0741 62.4469 23.1774 62.2132 23.2912 61.9812C23.4078 61.7458 23.5422 61.5173 23.6713 61.2865C23.933 60.8182 23.3066 61.8046 23.6214 61.3602C23.7084 61.2373 23.7937 61.1147 23.8832 60.9946C24.2179 60.5477 24.5898 60.1237 24.9923 59.7264C25.1951 59.5261 25.4614 59.4495 24.9351 59.7674C25.0645 59.6897 25.1773 59.5559 25.2925 59.4617C25.5152 59.2802 25.745 59.1056 25.9817 58.9393C26.2169 58.7747 26.4593 58.6168 26.708 58.4704C26.9767 58.3107 27.2143 58.3297 26.626 58.5053C26.7464 58.4701 26.8653 58.3861 26.9779 58.3336C27.2361 58.212 27.5005 58.1019 27.7698 58.0035C27.916 57.9513 28.0626 57.9021 28.2111 57.8557C28.5075 57.7646 28.7672 57.8252 28.0814 57.8798C28.356 57.8573 28.6375 57.7665 28.9146 57.7314C29.0668 57.7137 29.2201 57.6989 29.3732 57.6887C29.8456 57.6596 29.3395 57.6945 29.1605 57.6773C29.4685 57.7073 29.7775 57.7034 30.0847 57.7473C30.2182 57.7656 30.4213 57.8472 30.5461 57.8283C30.4165 57.7957 30.2865 57.7616 30.1567 57.729C30.2594 57.7558 30.3614 57.7843 30.463 57.8159C31.8425 58.2281 33.5734 57.7945 34.1497 56.4253C34.6639 55.2033 34.1882 53.5183 32.7132 53.0783C29.2549 52.045 25.6873 52.8214 22.7508 54.8219C20.082 56.6383 18.1078 59.3153 17.377 62.2701C17.0514 63.5846 18.2844 65.0328 19.7132 65.1462C21.3091 65.2721 22.5596 64.3492 22.9077 62.9399Z" fill="white"/>
<path d="M97.9897 152.132C97.9358 151.968 97.8986 151.747 97.8207 151.593C97.8864 151.723 97.9419 152.071 97.866 151.734C97.7979 151.431 97.7298 151.128 97.6806 150.82C97.6397 150.561 97.6078 150.299 97.5861 150.038C97.567 149.787 97.6451 148.903 97.5479 149.772C97.597 149.327 97.608 148.89 97.6985 148.448C97.7394 148.246 97.805 148.05 97.8493 147.849C97.6646 148.704 97.8007 148.016 97.905 147.773C97.977 147.6 98.0586 147.431 98.1464 147.265C98.2083 147.149 98.5601 146.581 98.2629 147.037C97.9754 147.479 98.3499 146.929 98.4406 146.813C98.5441 146.682 98.6527 146.554 98.7652 146.43C98.8739 146.312 98.9903 146.201 99.1026 146.084C99.3871 145.79 98.6315 146.486 98.8329 146.331C98.8934 146.285 98.9485 146.232 99.0065 146.184C99.2492 145.985 99.5055 145.803 99.7713 145.634C100.991 144.863 101.252 143.045 100.329 142.036C99.3244 140.935 97.716 140.781 96.4112 141.605C94.777 142.639 93.4252 144.222 92.7374 145.924C91.6303 148.653 91.915 151.455 92.801 154.159C93.2193 155.438 95.1586 156.064 96.4436 155.5C97.9294 154.848 98.4378 153.502 97.9897 152.132Z" fill="white"/>
<path d="M42.6503 158.479C42.8709 157.477 43.1387 156.489 43.4016 155.495C43.3689 155.62 43.1915 156.116 43.3355 155.714C43.3772 155.596 43.4169 155.478 43.4608 155.36C43.5391 155.148 43.6218 154.938 43.713 154.73C43.8971 154.303 44.1282 153.905 44.3495 153.495C44.4956 153.224 43.9642 154.051 44.2088 153.711C44.28 153.614 44.3489 153.514 44.4213 153.419C44.5556 153.242 44.6988 153.07 44.8491 152.905C44.9315 152.815 45.0205 152.728 45.105 152.638C45.4022 152.323 45.0142 152.735 44.9128 152.806C45.1242 152.659 45.31 152.474 45.5198 152.323C45.7221 152.178 45.9343 152.046 46.1466 151.915C46.6505 151.604 45.7485 152.102 46.0167 151.98C46.1287 151.929 46.2367 151.87 46.3497 151.818C46.9388 151.544 47.555 151.329 48.1832 151.145C49.5902 150.735 50.3136 148.94 49.7293 147.778C49.0493 146.429 47.5937 145.998 46.0853 146.438C43.3379 147.237 40.9914 148.818 39.5073 151.103C38.1741 153.155 37.6283 155.505 37.1197 157.808C36.828 159.128 38.0013 160.57 39.4551 160.685C41.0215 160.81 42.3375 159.893 42.6503 158.479Z" fill="white"/>
<path d="M110.743 215.207C107.904 216.302 105.936 218.628 104.617 221.098C103.315 223.538 102.568 226.306 102.328 228.988C102.194 230.484 102.175 232.013 102.4 233.495C102.602 234.818 103.984 235.937 105.501 235.682C106.969 235.435 108.174 234.21 107.958 232.792C107.879 232.27 107.83 231.744 107.809 231.215C107.8 230.971 107.755 230.684 107.798 230.442C107.808 230.391 107.776 231.085 107.791 230.801C107.794 230.734 107.795 230.668 107.797 230.602C107.803 230.445 107.811 230.289 107.822 230.133C107.898 228.954 108.082 227.778 108.367 226.621C108.434 226.345 108.507 226.07 108.587 225.796C108.608 225.727 108.629 225.66 108.648 225.592C108.723 225.32 108.539 225.927 108.55 225.893C108.606 225.737 108.654 225.579 108.708 225.423C108.91 224.85 109.139 224.284 109.401 223.732C109.644 223.217 109.922 222.722 110.217 222.23C110.439 221.857 109.829 222.782 110.176 222.296C110.254 222.189 110.328 222.081 110.407 221.975C110.574 221.75 110.749 221.53 110.935 221.317C111.069 221.163 111.342 220.744 111.547 220.676C111.599 220.658 111.05 221.106 111.263 220.933C111.327 220.881 111.389 220.825 111.451 220.772C111.561 220.68 111.673 220.591 111.789 220.505C112.032 220.323 112.294 220.173 112.549 220.008C112.743 219.882 112.189 220.219 112.182 220.205C112.181 220.203 112.38 220.108 112.398 220.101C112.543 220.033 112.69 219.973 112.84 219.915C114.199 219.39 115.011 217.79 114.385 216.547C113.755 215.292 112.199 214.645 110.743 215.207Z" fill="white"/>
<path d="M45.1775 224.169C43.5473 226.226 43.0916 228.694 43.1342 231.155C43.1743 233.5 43.8365 235.913 44.9655 237.994C45.6085 239.18 47.1643 239.968 48.6082 239.334C49.9051 238.765 50.8449 237.24 50.154 235.966C49.9128 235.52 49.6943 235.064 49.5048 234.597C49.4141 234.374 49.3294 234.147 49.251 233.919C49.2068 233.792 49.1658 233.664 49.1257 233.536C49.0999 233.453 48.9941 233.079 49.1042 233.48C49.2218 233.911 49.0966 233.44 49.0734 233.345C49.0418 233.215 49.0117 233.084 48.9839 232.953C48.9342 232.719 48.89 232.483 48.852 232.246C48.7738 231.755 48.7229 231.258 48.7014 230.76C48.6973 230.657 48.6938 230.554 48.692 230.451C48.6849 230.028 48.6991 230.4 48.6808 230.603C48.7012 230.378 48.7014 230.153 48.7218 229.928C48.7632 229.472 48.8352 229.016 48.9449 228.568C48.967 228.477 48.9939 228.387 49.0161 228.296C49.1336 227.815 48.8393 228.739 48.9588 228.476C49.0427 228.291 49.1012 228.096 49.1857 227.911C49.2764 227.711 49.3851 227.52 49.491 227.326C49.6576 227.018 49.3748 227.527 49.3311 227.568C49.4149 227.49 49.4916 227.35 49.5627 227.261C50.4311 226.164 50.3609 224.477 49.1084 223.671C47.9159 222.904 46.1053 222.998 45.1775 224.169Z" fill="white"/>
<path d="M50.1717 244.534C51.2727 245.396 52.6056 246.018 54.0543 246.229C55.6401 246.459 57.3406 246.101 58.7655 245.416C60.0689 244.789 60.9747 243.365 60.3113 242.048C59.7243 240.881 58.0679 240.034 56.6687 240.708C56.4083 240.833 56.1461 240.95 55.8731 241.047C55.7603 241.088 55.6454 241.119 55.5324 241.159C55.1957 241.278 56.1782 241.042 55.684 241.114C55.4474 241.148 55.2157 241.17 54.9775 241.192C54.6899 241.218 55.5382 241.269 55.2764 241.183C55.1789 241.151 55.0138 241.161 54.9127 241.146C54.8268 241.134 54.7147 241.091 54.6285 241.096C54.7091 241.092 55.2538 241.289 54.9119 241.159C54.7113 241.083 54.5128 241.011 54.317 240.928C53.897 240.75 54.3875 240.915 54.4858 241.024C54.4323 240.964 54.3101 240.918 54.2405 240.874C54.0344 240.741 53.839 240.597 53.6471 240.447C52.5444 239.583 50.5741 239.844 49.7174 240.944C48.79 242.133 48.9944 243.612 50.1717 244.534Z" fill="white"/>
<path d="M69.8307 105.669C71.2844 105.485 72.5294 104.141 72.2886 102.779C72.0484 101.412 70.747 100.395 69.1881 100.593C67.7357 100.776 66.4892 102.12 66.7316 103.482C66.9717 104.849 68.2732 105.866 69.8307 105.669Z" fill="white"/>
<path d="M17.8902 71.876C19.3445 71.6919 20.589 70.3475 20.3485 68.9848C20.1066 67.6181 18.8059 66.6015 17.2476 66.7987C15.794 66.9827 14.5495 68.3258 14.7899 69.6884C15.0317 71.0552 16.3326 72.0732 17.8902 71.876Z" fill="white"/>
<path d="M40.9833 168.069C42.4369 167.885 43.6816 166.541 43.4418 165.178C43.1997 163.812 41.8987 162.795 40.3407 162.992C38.8872 163.176 37.6423 164.52 37.883 165.882C38.1244 167.249 39.4253 168.266 40.9833 168.069Z" fill="white"/>
</g>
<defs>
<filter id="filter0_d_105_253" x="-130" y="0" width="359.389" height="335.545" filterUnits="userSpaceOnUse" color-interpolation-filters="sRGB">
<feFlood flood-opacity="0" result="BackgroundImageFix"/>
<feColorMatrix in="SourceAlpha" type="matrix" values="0 0 0 0 0 0 0 0 0 0 0 0 0 0 0 0 0 0 127 0" result="hardAlpha"/>
<feOffset dy="4"/>
<feGaussianBlur stdDeviation="2"/>
<feComposite in2="hardAlpha" operator="out"/>
<feColorMatrix type="matrix" values="0 0 0 0 0 0 0 0 0 0 0 0 0 0 0 0 0 0 0.25 0"/>
<feBlend mode="normal" in2="BackgroundImageFix" result="effect1_dropShadow_105_253"/>
<feBlend mode="normal" in="SourceGraphic" in2="effect1_dropShadow_105_253" result="shape"/>
</filter>
</defs>
</svg>
