<svg width="352" height="328" viewBox="0 0 352 328" fill="none" xmlns="http://www.w3.org/2000/svg">
<g filter="url(#filter0_d_105_253)">
<path d="M248.9 185.846C249.869 197.071 245.434 199.847 247.665 211.792C251.141 230.385 263.732 238.62 258.323 246.027C256.646 248.327 251.078 251.969 246.724 253.277C236.152 256.452 228.976 251.294 215.572 252.991C188.107 256.467 186.432 263.419 175.791 261.804C165.03 260.17 167.201 246.446 164.779 226.203C162.82 209.832 157.773 205.698 155.823 195.563C150.521 168 174.245 127.836 199.56 126.482C223.653 125.192 246.751 160.956 248.9 185.846Z" fill="#3399FF"/>
<path d="M191.699 164.548C187.401 177.821 173.505 185.951 160.662 182.706C147.817 179.461 140.89 166.071 145.188 152.796C149.485 139.524 163.381 131.394 176.224 134.639C189.069 137.883 195.996 151.274 191.699 164.548Z" fill="#3399FF"/>
<path d="M211.161 162.084C218.63 173.868 234.113 178.28 245.743 171.937C257.373 165.594 260.747 150.9 253.277 139.116C245.809 127.332 230.324 122.921 218.695 129.264C207.065 135.605 203.691 150.301 211.161 162.084Z" fill="#3399FF"/>
<path d="M251.118 47.6582C244.451 37.1374 229.618 33.7513 217.986 40.0947C211.736 43.5025 207.685 49.0294 206.307 55.0442C201.245 53.9642 195.895 53.7024 190.436 54.3933C186.63 54.8751 182.991 55.7948 179.565 57.088C176.536 53.0831 169.464 48.0123 163.912 46.6099C151.068 43.3643 136.94 51.5347 133.102 63.3834C129.438 74.7001 139.097 87.1618 150.876 91.0155C150.165 95.0806 150.038 99.3038 150.581 103.59C153.618 127.59 176.387 144.476 201.437 141.305C226.486 138.135 244.33 116.109 241.292 92.1088C240.751 87.8335 239.581 83.7872 237.887 80.036C239.336 79.554 240.758 78.9418 242.134 78.1909C253.764 71.8477 257.788 58.1785 251.118 47.6582Z" fill="#3399FF"/>
<path d="M152.419 246.641C160.884 259.996 177.175 265.68 188.805 259.338C200.435 252.995 203.001 237.027 194.536 223.673C186.071 210.318 169.78 204.633 158.15 210.975C146.52 217.319 143.954 233.286 152.419 246.641Z" fill="#3399FF"/>
<path d="M266.596 232.419C261.725 247.462 247.365 257.026 234.521 253.781C221.677 250.536 215.214 235.711 220.085 220.669C224.956 205.625 239.316 196.062 252.16 199.306C265.004 202.552 271.467 217.377 266.596 232.419Z" fill="#3399FF"/>
<path d="M147.16 53.1457C140.235 56.493 137.8 64.5209 138.811 71.5691C139.365 75.4368 140.937 79.1379 143.043 82.4703C144.4 84.6166 147.284 87.3101 149.967 84.9756C152.678 82.6186 152.485 78.535 153.134 75.4399C153.977 71.4174 156.776 68.4238 160.104 65.869C163.163 63.5201 167.389 61.5796 169.325 58.2334C170.403 56.3714 167.255 43.4356 147.16 53.1457Z" fill="#66B2FF"/>
<path d="M217.376 44.2444C210.84 47.5393 210.366 55.4042 208.681 57.4311C193.094 56.8354 177.263 62.7155 166.464 73.3054C163.786 75.9323 161.367 78.9488 160.226 82.4117C158.961 86.2545 159.676 90.1727 160.596 93.9626C161.111 96.0863 161.678 98.2017 161.976 100.367C162.273 102.504 162.322 104.666 162.377 106.822C162.478 110.755 162.61 114.768 164.176 118.454C166.634 124.235 172.122 128.687 178.5 130.746C185.277 132.934 200.681 131.359 204.702 130.538C211.847 129.078 219.385 125.946 224.566 120.91C230.043 115.587 231.326 107.747 232.206 100.687C233.075 93.7269 230.661 86.1867 227.337 79.9214C225.578 76.6063 223.044 73.9914 220.581 71.1312C219.814 70.2402 216.448 66.2068 218.488 65.3089C220.277 64.5214 222.947 66.5834 224.323 67.3184C226.383 68.4192 228.442 69.5184 230.5 70.6194C230.652 70.6995 230.855 70.7085 230.972 70.5597C232.069 69.1681 230.424 67.7564 229.408 66.8576C227.603 65.2598 225.597 63.848 223.444 62.6583C221.57 61.6238 218.724 60.8415 217.811 58.8567C216.763 56.5783 218.968 54.2587 220.89 53.0069C225.154 50.2281 231.188 50.9282 235.383 54.0688C239.594 57.2215 238.977 61.0784 238.846 65.5355C238.815 66.5368 238.81 67.5413 238.888 68.5399C238.953 69.3416 238.949 70.4688 239.543 71.1168C240.739 72.4151 243.012 72.1307 244.053 71.4032C248.618 68.2112 249.247 61.351 249.751 57.6709C251.119 47.6587 236.321 34.6942 217.376 44.2444Z" fill="#66B2FF"/>
<path d="M214.602 71.4682C211.337 55.7999 169.482 62.7228 175.186 79.6053C176.33 82.9914 182.353 86.2582 187.537 84.5849C196.937 81.5498 194.624 74.1066 205.489 77.0231C208.397 77.804 215.543 75.9908 214.602 71.4682C214.916 72.9704 214.286 69.9501 214.602 71.4682Z" fill="#99CCFF"/>
<path d="M210.65 101.663C208.704 99.0326 205.949 97.1572 202.539 96.4122C195.464 94.8669 186.85 95.951 181.158 100.514C179.798 101.604 178.604 102.874 177.673 104.294C176.848 105.551 175.816 107.314 175.881 108.814C175.934 110.025 177.192 110.694 178.264 109.859C179.06 109.238 179.737 108.38 180.375 107.629C180.701 107.243 181.016 106.849 181.322 106.45C181.562 106.135 182.549 104.713 183.205 105.03C183.673 107.679 185.054 110.448 187.997 111.376C189.508 111.852 191.162 111.777 192.74 111.615C194.591 111.424 196.471 111.199 198.274 110.735C201.248 109.971 204.244 108.125 204.827 105.144C204.944 104.541 204.918 103.949 204.794 103.354C204.731 103.047 204.657 102.744 204.606 102.433C204.456 101.516 204.607 100.929 206.063 101.888C206.883 102.358 207.603 103.24 208.301 103.853C209.021 104.486 209.734 105.305 210.571 105.807C211.391 106.295 212.244 105.917 212.303 105.004C212.376 103.847 211.317 102.563 210.65 101.663Z" fill="#3399FF"/>
<path d="M216.963 86.943C217.382 90.2492 214.787 93.3012 211.166 93.7596C207.545 94.2179 204.272 91.9085 203.853 88.6023C203.435 85.2961 206.029 82.244 209.651 81.7857C213.272 81.3273 216.545 83.6368 216.963 86.943Z" fill="#3399FF"/>
<path d="M213.317 85.4835C211.859 84.3644 209.92 84.2647 208.56 85.3194C207.206 86.3695 208.07 90.1108 209.002 91.2617C210.127 92.6505 213.058 91.4848 213.819 90.1921C215.025 88.1463 214.591 86.4582 213.317 85.4835Z" fill="#99CCFF"/>
<path d="M182.883 91.2565C183.302 94.5627 180.706 97.6149 177.086 98.0731C173.465 98.5314 170.191 96.2221 169.772 92.9159C169.354 89.6097 171.949 86.5575 175.57 86.0992C179.19 85.641 182.465 87.9502 182.883 91.2565Z" fill="#3399FF"/>
<path d="M173.345 91.1982C173.197 92.9246 173.567 95.8393 175.628 96.2903C178.861 96.9969 181.127 93.9466 180.879 91.9875C180.143 86.1754 173.57 88.5717 173.345 91.1982Z" fill="#99CCFF"/>
<path d="M210.007 112.367C208.795 111.854 207.527 113.272 206.852 114.211C205.701 115.814 198.798 120.183 196.947 117.629C196.586 117.133 196.614 116.543 196.647 115.959C196.712 114.837 196.923 113.255 195.614 112.637C195.58 112.62 195.543 112.608 195.507 112.593C195.465 112.526 195.389 112.478 195.271 112.477C195.182 112.476 195.095 112.48 195.011 112.486C194.484 112.455 193.959 112.67 193.658 113.059C193.342 113.336 193.093 113.698 192.91 114.108C192.307 115.463 192.917 117.155 191.962 118.391C190.837 119.849 188.074 119.876 186.396 119.641C184.388 119.358 182.79 118.357 181.116 117.401C180.296 116.933 178.846 115.85 177.837 116.456C177.066 116.92 176.95 118.729 179.133 120.092C182.568 122.237 187.808 122.861 195.186 121.981C202.974 121.051 206.396 119.53 209.925 116.091C211.065 114.981 211.321 112.924 210.007 112.367Z" fill="#3399FF"/>
<path d="M186.417 141.031C183.21 137.617 178.961 137.57 176.693 137.754C172.221 138.119 167.719 139.824 164.216 142.321C149.849 152.561 151.458 168.278 155.879 174.647C158.071 177.806 162.134 179.145 166.331 179.016C175.68 178.727 183.029 171.594 186.166 164.213C188.107 159.647 188.957 154.606 188.798 149.785C188.701 146.873 187.927 142.639 186.417 141.031Z" fill="#66B2FF"/>
<path d="M244.512 146.545C243.763 140.622 238.737 132.457 229.721 131.806C221.653 131.223 213.572 136.11 211.287 144.226C210.052 148.618 211.112 153.105 212.88 157.183C214.694 161.372 222.916 173.423 233.103 169.803C241.74 166.732 245.746 156.318 244.512 146.545Z" fill="#66B2FF"/>
<path d="M184.071 149.81C186.508 146.796 184.512 143.382 182.125 142.89C176.51 141.233 169.259 145.25 165.225 148.786C162.106 151.52 160.678 155.021 160.095 158.862C159.527 162.604 159.638 166.759 161.161 170.27C162.298 172.893 164.574 175.306 167.87 175.348C171.076 175.389 174.063 173.277 175.38 170.637C177.088 167.215 173.324 162.874 175.769 158.638C178.454 153.987 181.498 152.993 184.071 149.81Z" fill="#99CCFF"/>
<path d="M232.189 138.021C228.59 135.731 222.136 137.92 218.817 140.355C214.83 143.279 214.178 149.983 214.848 154.003C215.993 160.875 224.118 164.858 229.466 163.259C234.883 161.64 230.255 158.09 229.774 152.114C229.391 147.372 236.621 141.43 232.189 138.021Z" fill="#99CCFF"/>
<path d="M224.073 167.173C219.77 163.743 215.588 159.94 211.518 146.649C209.663 140.593 197.629 139.021 193.423 144.475C189.488 149.58 186.381 164.004 183.782 168.604C181.242 173.101 178.367 177.759 174.722 181.584C168.44 188.175 165.14 202.216 171.588 209.472C178.678 217.453 183.82 221.624 190.93 227.266C201.225 235.436 219.914 234.984 225.168 226.531C227.082 223.451 230.066 217.289 231.857 215.038C236.695 208.962 241.367 202.58 239.584 188.492C237.842 174.732 227.178 169.648 224.073 167.173Z" fill="#66B2FF"/>
<path d="M221.911 178.655C217.383 172.115 211.239 168.828 208.414 160.956C207.252 157.718 206.706 147.991 201.906 146.831C194.534 145.049 194.436 156.796 193.92 160.773C192.93 168.4 189.161 177.146 184.06 183.446C172.077 198.244 191.722 221.055 207.579 220.119C229.875 218.804 231.184 192.047 221.911 178.655Z" fill="#99CCFF"/>
<path d="M193.908 225.49C190.683 220.959 186.909 216.224 181.144 213.846C164.608 207.023 155.524 222.455 155.051 230.975C154.777 235.925 155.992 240.911 158.069 245.452C159.916 249.49 162.941 252.889 167.671 254.921C176.47 258.702 187.705 256.856 194.268 250.177C197.368 247.021 199.246 243.083 199.29 239.142C199.344 234.301 196.775 229.52 193.908 225.49Z" fill="#66B2FF"/>
<path d="M260.857 211.099C259.259 207.9 256.021 204.319 252.097 203.54C247.885 202.269 243.195 203.63 239.363 205.623C234.992 207.897 231.149 211.05 228.146 214.778C221.675 222.811 220.503 231.483 221.428 238.797C222.419 246.623 229.739 252.084 237.198 250.167C239.539 249.565 241.759 248.578 243.882 247.467C252.06 243.194 258.57 236.028 261.311 227.69C263.082 222.3 263.427 216.246 260.857 211.099Z" fill="#66B2FF"/>
<path d="M186.786 238.192C184.415 237.339 177.444 234.26 179.699 224.726C181.182 218.452 175.184 216.646 168.404 219.145C164.08 220.737 162.932 224.886 162.192 228.084C160.498 235.407 163.12 243.162 169.641 248.476C172.583 250.873 176.523 252.329 181.341 251.722C190.45 250.577 195.055 241.164 186.786 238.192Z" fill="#99CCFF"/>
<path d="M230.885 215.899C226.325 221.208 224.352 228.042 225.949 233.885C226.658 236.475 228.396 238.917 231.608 240.063C235.035 241.283 238.846 240.212 241.789 238.339C244.708 236.482 245.723 233.797 244.981 231.146C244.556 229.627 243.544 228.297 242.899 226.844C242.114 225.074 242.291 223.334 243.565 221.613C245.615 218.843 249.665 217.009 250.278 215.164C252.009 209.956 241.043 204.077 230.885 215.899Z" fill="#99CCFF"/>
<path d="M199.332 100.308C197.57 98.3646 190.674 98.8246 187.66 101.224C185.394 103.029 185.647 106.744 188.429 108.096C191.402 109.54 195.738 109.396 198.376 107.262C200.593 105.468 201.395 102.581 199.332 100.308Z" fill="#99CCFF"/>
<path d="M182.346 74.7421C182.509 74.5148 182.679 74.2936 182.866 74.0816C182.96 73.9749 183.056 73.8721 183.156 73.7716C183.335 73.5918 183.56 73.5534 183.079 73.8323C183.542 73.5642 183.957 73.1733 184.418 72.8883C184.708 72.7101 183.787 73.1834 184.327 72.9452C184.434 72.8976 184.538 72.8462 184.646 72.8C184.914 72.6853 185.188 72.5827 185.468 72.4948C185.57 72.4636 186.082 72.3194 185.613 72.4468C185.134 72.5754 185.698 72.4374 185.765 72.4261C186.055 72.3724 186.347 72.3383 186.64 72.3126C188.101 72.1885 189.331 70.7429 189.097 69.423C188.846 68.0062 187.565 67.1036 185.997 67.2368C182.837 67.5051 179.715 69.1874 177.962 71.6508C177.155 72.7838 177.121 74.4066 178.416 75.2396C179.556 75.9746 181.484 75.9543 182.346 74.7421Z" fill="white"/>
<path d="M194.569 70.5972C195.838 70.3227 197.127 70.1595 198.425 70.1219C198.532 70.1197 199.073 70.0712 198.605 70.1162C198.142 70.1606 198.674 70.1203 198.785 70.1219C199.124 70.1302 199.463 70.1471 199.801 70.1712C200.447 70.2175 201.087 70.2929 201.724 70.3974C202.026 70.4459 202.328 70.5031 202.627 70.5648C202.776 70.5972 202.925 70.6323 203.074 70.6647C203.413 70.737 202.508 70.5115 203 70.647C203.617 70.8166 204.226 71.0027 204.824 71.2229C205.419 71.4436 206.003 71.6898 206.571 71.9652C206.727 72.0407 206.89 72.1453 207.053 72.2072C206.916 72.1548 206.609 71.9617 206.914 72.1366C207.224 72.315 207.532 72.4966 207.834 72.6875C209.026 73.4402 210.846 73.3678 211.765 72.1899C212.618 71.0959 212.584 69.4041 211.311 68.6005C206.341 65.4617 199.929 64.2186 193.926 65.5205C193.18 65.6832 192.544 65.9388 192.056 66.5128C191.629 67.0151 191.358 67.7821 191.469 68.4112C191.69 69.6695 193.036 70.9307 194.569 70.5972Z" fill="white"/>
<path d="M219.755 51.7808C220.608 51.0453 221.512 50.3614 222.5 49.7877C222.605 49.7255 222.722 49.6724 222.822 49.6046C222.703 49.6855 222.347 49.8469 222.676 49.6905C222.917 49.5757 223.159 49.4594 223.407 49.3545C223.862 49.1607 224.327 49.0054 224.801 48.8566C225.173 48.7406 224.686 48.8865 224.571 48.9072C224.682 48.8869 224.794 48.8545 224.905 48.8312C225.128 48.783 225.353 48.7409 225.579 48.7045C226.062 48.6266 226.551 48.5785 227.039 48.5565C227.182 48.5491 227.334 48.5574 227.476 48.5425C227.352 48.5551 226.867 48.5324 227.257 48.5457C227.498 48.5551 227.737 48.5616 227.977 48.5771C228.535 48.6137 229.089 48.6797 229.643 48.7627C231.082 48.9787 232.675 47.9059 232.837 46.5567C233.006 45.1377 232.041 43.9126 230.5 43.6806C227.937 43.2947 225.38 43.404 222.87 44.1013C220.44 44.7779 218.238 46.1618 216.396 47.7527C215.845 48.2282 215.43 48.7262 215.31 49.4303C215.204 50.0622 215.388 50.8608 215.838 51.3505C216.721 52.3179 218.604 52.7746 219.755 51.7808Z" fill="white"/>
<path d="M234.925 50.9895C235.003 51.0203 235.717 51.3614 235.73 51.3492C235.395 51.1668 235.317 51.1239 235.493 51.2223C235.565 51.2629 235.638 51.3049 235.708 51.3489C235.803 51.4048 235.896 51.4624 235.988 51.5232C236.212 51.6699 236.428 51.8265 236.634 51.9935C236.695 52.0417 236.754 52.093 236.813 52.1443C236.965 52.2759 236.894 52.2095 236.6 51.9451C236.653 52.0424 236.791 52.1336 236.869 52.2158C237.041 52.4007 237.202 52.5915 237.353 52.7911C237.43 52.8915 237.499 52.9929 237.571 53.0953C237.835 53.4663 237.344 52.6836 237.491 52.9668C237.734 53.4398 237.958 53.9048 238.125 54.407C238.553 55.6834 240.478 56.3133 241.769 55.7471C243.247 55.0983 243.772 53.7467 243.314 52.379C242.374 49.5669 240.075 47.4262 237.176 46.2498C235.846 45.7122 234.027 46.3618 233.489 47.6428C232.928 48.9718 233.506 50.4148 234.925 50.9895Z" fill="white"/>
<path d="M148.908 62.9399C148.939 62.8149 148.987 62.6831 149.01 62.5561C148.879 63.2608 148.9 62.9026 148.983 62.6852C149.074 62.4469 149.177 62.2132 149.291 61.9812C149.408 61.7458 149.542 61.5173 149.671 61.2865C149.933 60.8182 149.307 61.8046 149.621 61.3602C149.708 61.2373 149.794 61.1147 149.883 60.9946C150.218 60.5477 150.59 60.1237 150.992 59.7264C151.195 59.5261 151.461 59.4495 150.935 59.7674C151.065 59.6897 151.177 59.5559 151.293 59.4617C151.515 59.2802 151.745 59.1056 151.982 58.9393C152.217 58.7747 152.459 58.6168 152.708 58.4704C152.977 58.3107 153.214 58.3297 152.626 58.5053C152.746 58.4701 152.865 58.3861 152.978 58.3336C153.236 58.212 153.501 58.1019 153.77 58.0035C153.916 57.9513 154.063 57.9021 154.211 57.8557C154.508 57.7646 154.767 57.8252 154.081 57.8798C154.356 57.8573 154.637 57.7665 154.915 57.7314C155.067 57.7137 155.22 57.6989 155.373 57.6887C155.846 57.6596 155.34 57.6945 155.161 57.6773C155.468 57.7073 155.778 57.7034 156.085 57.7473C156.218 57.7656 156.421 57.8472 156.546 57.8283C156.416 57.7957 156.287 57.7616 156.157 57.729C156.259 57.7558 156.361 57.7843 156.463 57.8159C157.843 58.2281 159.573 57.7945 160.15 56.4253C160.664 55.2033 160.188 53.5183 158.713 53.0783C155.255 52.045 151.687 52.8214 148.751 54.8219C146.082 56.6383 144.108 59.3153 143.377 62.2701C143.051 63.5846 144.284 65.0328 145.713 65.1462C147.309 65.2721 148.56 64.3492 148.908 62.9399Z" fill="white"/>
<path d="M223.99 152.132C223.936 151.968 223.899 151.747 223.821 151.593C223.886 151.723 223.942 152.071 223.866 151.734C223.798 151.431 223.73 151.128 223.681 150.82C223.64 150.561 223.608 150.299 223.586 150.038C223.567 149.787 223.645 148.903 223.548 149.772C223.597 149.327 223.608 148.89 223.699 148.448C223.739 148.246 223.805 148.05 223.849 147.849C223.665 148.704 223.801 148.016 223.905 147.773C223.977 147.6 224.059 147.431 224.146 147.265C224.208 147.149 224.56 146.581 224.263 147.037C223.975 147.479 224.35 146.929 224.441 146.813C224.544 146.682 224.653 146.554 224.765 146.43C224.874 146.312 224.99 146.201 225.103 146.084C225.387 145.79 224.631 146.486 224.833 146.331C224.893 146.285 224.949 146.232 225.007 146.184C225.249 145.985 225.506 145.803 225.771 145.634C226.991 144.863 227.252 143.045 226.329 142.036C225.324 140.935 223.716 140.781 222.411 141.605C220.777 142.639 219.425 144.222 218.737 145.924C217.63 148.653 217.915 151.455 218.801 154.159C219.219 155.438 221.159 156.064 222.444 155.5C223.929 154.848 224.438 153.502 223.99 152.132Z" fill="white"/>
<path d="M168.65 158.479C168.871 157.477 169.139 156.489 169.402 155.495C169.369 155.62 169.191 156.116 169.335 155.714C169.377 155.596 169.417 155.478 169.461 155.36C169.539 155.148 169.622 154.938 169.713 154.73C169.897 154.303 170.128 153.905 170.349 153.495C170.496 153.224 169.964 154.051 170.209 153.711C170.28 153.614 170.349 153.514 170.421 153.419C170.556 153.242 170.699 153.07 170.849 152.905C170.931 152.815 171.021 152.728 171.105 152.638C171.402 152.323 171.014 152.735 170.913 152.806C171.124 152.659 171.31 152.474 171.52 152.323C171.722 152.178 171.934 152.046 172.147 151.915C172.65 151.604 171.749 152.102 172.017 151.98C172.129 151.929 172.237 151.87 172.35 151.818C172.939 151.544 173.555 151.329 174.183 151.145C175.59 150.735 176.314 148.94 175.729 147.778C175.049 146.429 173.594 145.998 172.085 146.438C169.338 147.237 166.991 148.818 165.507 151.103C164.174 153.155 163.628 155.505 163.12 157.808C162.828 159.128 164.001 160.57 165.455 160.685C167.021 160.81 168.338 159.893 168.65 158.479Z" fill="white"/>
<path d="M236.743 215.207C233.904 216.302 231.936 218.628 230.617 221.098C229.315 223.538 228.568 226.306 228.328 228.988C228.194 230.484 228.175 232.013 228.4 233.495C228.602 234.818 229.984 235.937 231.501 235.682C232.969 235.435 234.174 234.21 233.958 232.792C233.879 232.27 233.83 231.744 233.809 231.215C233.8 230.971 233.755 230.684 233.798 230.442C233.808 230.391 233.776 231.085 233.791 230.801C233.794 230.734 233.795 230.668 233.797 230.602C233.803 230.445 233.811 230.289 233.822 230.133C233.898 228.954 234.082 227.778 234.367 226.621C234.434 226.345 234.507 226.07 234.587 225.796C234.608 225.727 234.629 225.66 234.648 225.592C234.723 225.32 234.539 225.927 234.55 225.893C234.606 225.737 234.654 225.579 234.708 225.423C234.91 224.85 235.139 224.284 235.401 223.732C235.644 223.217 235.922 222.722 236.217 222.23C236.439 221.857 235.829 222.782 236.176 222.296C236.254 222.189 236.328 222.081 236.407 221.975C236.574 221.75 236.749 221.53 236.935 221.317C237.069 221.163 237.342 220.744 237.547 220.676C237.599 220.658 237.05 221.106 237.263 220.933C237.327 220.881 237.389 220.825 237.451 220.772C237.561 220.68 237.673 220.591 237.789 220.505C238.032 220.323 238.294 220.173 238.549 220.008C238.743 219.882 238.189 220.219 238.182 220.205C238.181 220.203 238.38 220.108 238.398 220.101C238.543 220.033 238.69 219.973 238.84 219.915C240.199 219.39 241.011 217.79 240.385 216.547C239.755 215.292 238.199 214.645 236.743 215.207Z" fill="white"/>
<path d="M171.177 224.169C169.547 226.226 169.092 228.694 169.134 231.155C169.174 233.5 169.837 235.913 170.966 237.994C171.609 239.18 173.164 239.968 174.608 239.334C175.905 238.765 176.845 237.24 176.154 235.966C175.913 235.52 175.694 235.064 175.505 234.597C175.414 234.374 175.329 234.147 175.251 233.919C175.207 233.792 175.166 233.664 175.126 233.536C175.1 233.453 174.994 233.079 175.104 233.48C175.222 233.911 175.097 233.44 175.073 233.345C175.042 233.215 175.012 233.084 174.984 232.953C174.934 232.719 174.89 232.483 174.852 232.246C174.774 231.755 174.723 231.258 174.701 230.76C174.697 230.657 174.694 230.554 174.692 230.451C174.685 230.028 174.699 230.4 174.681 230.603C174.701 230.378 174.701 230.153 174.722 229.928C174.763 229.472 174.835 229.016 174.945 228.568C174.967 228.477 174.994 228.387 175.016 228.296C175.134 227.815 174.839 228.739 174.959 228.476C175.043 228.291 175.101 228.096 175.186 227.911C175.276 227.711 175.385 227.52 175.491 227.326C175.658 227.018 175.375 227.527 175.331 227.568C175.415 227.49 175.492 227.35 175.563 227.261C176.431 226.164 176.361 224.477 175.108 223.671C173.916 222.904 172.105 222.998 171.177 224.169Z" fill="white"/>
<path d="M176.172 244.534C177.273 245.396 178.606 246.018 180.054 246.229C181.64 246.459 183.341 246.101 184.766 245.416C186.069 244.789 186.975 243.365 186.311 242.048C185.724 240.881 184.068 240.034 182.669 240.708C182.408 240.833 182.146 240.95 181.873 241.047C181.76 241.088 181.645 241.119 181.532 241.159C181.196 241.278 182.178 241.042 181.684 241.114C181.447 241.148 181.216 241.17 180.978 241.192C180.69 241.218 181.538 241.269 181.276 241.183C181.179 241.151 181.014 241.161 180.913 241.146C180.827 241.134 180.715 241.091 180.628 241.096C180.709 241.092 181.254 241.289 180.912 241.159C180.711 241.083 180.513 241.011 180.317 240.928C179.897 240.75 180.387 240.915 180.486 241.024C180.432 240.964 180.31 240.918 180.241 240.874C180.034 240.741 179.839 240.597 179.647 240.447C178.544 239.583 176.574 239.844 175.717 240.944C174.79 242.133 174.994 243.612 176.172 244.534Z" fill="white"/>
<path d="M195.831 105.669C197.284 105.485 198.529 104.141 198.289 102.779C198.048 101.412 196.747 100.395 195.188 100.593C193.736 100.776 192.489 102.12 192.732 103.482C192.972 104.849 194.273 105.866 195.831 105.669Z" fill="white"/>
<path d="M143.89 71.876C145.345 71.6919 146.589 70.3475 146.349 68.9848C146.107 67.6181 144.806 66.6015 143.248 66.7987C141.794 66.9827 140.549 68.3258 140.79 69.6884C141.032 71.0552 142.333 72.0732 143.89 71.876Z" fill="white"/>
<path d="M166.983 168.069C168.437 167.885 169.682 166.541 169.442 165.178C169.2 163.812 167.899 162.795 166.341 162.992C164.887 163.176 163.642 164.52 163.883 165.882C164.124 167.249 165.425 168.266 166.983 168.069Z" fill="white"/>
</g>
<defs>
<filter id="filter0_d_105_253" x="-4" y="0" width="359.389" height="335.545" filterUnits="userSpaceOnUse" color-interpolation-filters="sRGB">
<feFlood flood-opacity="0" result="BackgroundImageFix"/>
<feColorMatrix in="SourceAlpha" type="matrix" values="0 0 0 0 0 0 0 0 0 0 0 0 0 0 0 0 0 0 127 0" result="hardAlpha"/>
<feOffset dy="4"/>
<feGaussianBlur stdDeviation="2"/>
<feComposite in2="hardAlpha" operator="out"/>
<feColorMatrix type="matrix" values="0 0 0 0 0 0 0 0 0 0 0 0 0 0 0 0 0 0 0.25 0"/>
<feBlend mode="normal" in2="BackgroundImageFix" result="effect1_dropShadow_105_253"/>
<feBlend mode="normal" in="SourceGraphic" in2="effect1_dropShadow_105_253" result="shape"/>
</filter>
</defs>
</svg>
