<svg width="513" height="513" viewBox="0 0 513 513" fill="none" xmlns="http://www.w3.org/2000/svg">
<path d="M333.77 323.612C328.992 339.16 322.122 340.604 318.498 357.766C312.859 384.483 323.811 401.993 313.298 409.147C310.036 411.369 301.328 413.392 295.336 412.908C280.786 411.734 274.791 401.132 257.581 396.52C222.314 387.07 216.586 395.53 204.496 387.899C192.268 380.179 202.193 362.893 209.99 334.505C216.294 311.548 212.346 303.413 215.352 288.821C223.529 249.14 273.713 207.474 305.237 218.664C335.239 229.314 344.365 289.133 333.77 323.612Z" fill="#5D9D31"/>
<path d="M275.468 265.666C263.194 281.255 241.97 285.017 228.064 274.067C214.156 263.117 212.832 241.604 225.108 226.013C237.381 210.424 258.605 206.663 272.511 217.612C286.42 228.562 287.741 250.076 275.468 265.666Z" fill="#5D9D31"/>
<path d="M300.458 272.362C303.294 292 319.793 305.869 337.311 303.339C354.829 300.81 366.733 282.841 363.898 263.202C361.063 243.565 344.562 229.695 327.044 232.225C309.526 234.753 297.622 252.724 300.458 272.362Z" fill="#5D9D31"/>
<path d="M409.808 139.463C407.279 121.931 391.026 109.77 373.506 112.299C364.092 113.658 356.229 118.987 351.359 126.344C345.774 122.295 339.402 119.196 332.393 117.318C327.505 116.008 322.589 115.372 317.734 115.345C316.173 108.419 310.259 97.9869 304.247 93.2539C290.341 82.3035 268.812 86 257.854 99.9156C247.39 113.207 252.529 134.879 264.818 146.098C261.795 151.183 259.399 156.78 257.785 162.806C248.744 196.547 267.489 230.886 299.653 239.504C331.818 248.123 365.22 227.757 374.261 194.016C375.871 188.005 376.595 181.979 376.524 176.079C378.543 176.177 380.599 176.087 382.672 175.787C400.19 173.257 412.342 156.996 409.808 139.463Z" fill="#5D9D31"/>
<path d="M184.103 355.56C187.315 377.816 204.122 393.808 221.64 391.278C239.158 388.749 250.755 368.656 247.542 346.401C244.329 324.145 227.523 308.153 210.004 310.682C192.485 313.212 180.889 333.305 184.103 355.56Z" fill="#5D9D31"/>
<path d="M330.587 395.15C316.676 412.818 294.126 418.264 280.219 407.314C266.312 396.365 266.315 373.166 280.226 355.499C294.136 337.831 316.686 332.385 330.593 343.334C344.5 354.285 344.497 377.483 330.587 395.15Z" fill="#5D9D31"/>
<path d="M280.395 93.4111C270.191 94.3413 262.968 103.855 260.457 113.824C259.078 119.295 259.027 125.065 259.822 130.616C260.333 134.191 262.414 139.284 266.918 137.532C271.467 135.765 273.4 130.19 275.832 126.374C278.993 121.413 283.987 118.837 289.393 117.121C294.361 115.543 300.533 115.112 304.666 111.62C306.966 109.678 310.001 90.7156 280.395 93.4111Z" fill="#93C925"/>
<path d="M370.561 117.55C360.859 118.61 356.107 128.912 352.982 130.764C334.331 121.957 311.946 121.708 293.185 130.359C288.532 132.506 283.988 135.308 280.762 139.365C277.182 143.867 275.974 149.489 275.082 155.043C274.581 158.155 274.148 161.283 273.362 164.339C272.589 167.357 271.501 170.281 270.424 173.201C268.46 178.527 266.49 183.974 266.44 189.721C266.363 198.736 270.678 207.524 277.346 213.562C284.431 219.978 304.012 225.78 309.341 226.746C318.81 228.458 329.645 228.132 338.622 224.04C348.112 219.717 353.834 209.865 358.652 200.85C363.402 191.964 364.467 180.613 363.747 170.505C363.367 165.156 361.671 160.348 360.191 155.247C359.731 153.659 357.776 146.521 360.734 146.365C363.33 146.229 365.484 150.365 366.769 152.058C368.691 154.592 370.613 157.124 372.533 159.658C372.675 159.843 372.918 159.959 373.139 159.82C375.213 158.518 373.96 155.78 373.201 154.053C371.852 150.983 370.161 148.059 368.172 145.358C366.441 143.008 363.393 140.497 363.335 137.366C363.269 133.773 367.183 131.795 370.187 131.105C376.849 129.569 383.82 133.608 387.258 139.974C390.71 146.365 387.912 151.219 385.387 157.128C384.818 158.455 384.278 159.799 383.843 161.178C383.497 162.287 382.894 163.796 383.274 164.971C384.04 167.326 386.956 168.112 388.61 167.672C395.858 165.737 400.265 156.862 402.831 152.186C409.809 139.464 398.682 114.478 370.561 117.55Z" fill="#93C925"/>
<path d="M352.737 152.628C357.079 129.941 302.474 117.721 300.455 143.288C300.05 148.416 305.646 155.891 312.841 156.31C325.89 157.07 327.027 145.902 338.699 155.394C341.824 157.935 351.482 159.176 352.737 152.628C352.321 154.803 353.158 150.43 352.737 152.628Z" fill="#A7D82A"/>
<path d="M331.904 191.084C330.931 186.557 328.574 182.627 324.82 179.876C317.031 174.169 305.974 171.197 296.625 174.391C294.392 175.154 292.265 176.244 290.379 177.669C288.707 178.931 286.516 180.764 285.799 182.809C285.22 184.46 286.397 186.004 288.144 185.434C289.442 185.01 290.722 184.209 291.896 183.528C292.498 183.179 293.091 182.813 293.675 182.435C294.134 182.135 296.09 180.737 296.719 181.498C295.883 185.291 296.094 189.713 299.183 192.469C300.769 193.884 302.822 194.632 304.828 195.227C307.182 195.922 309.588 196.585 312.028 196.89C316.053 197.393 320.679 196.457 322.97 192.76C323.433 192.012 323.715 191.204 323.88 190.343C323.966 189.899 324.037 189.454 324.139 189.011C324.444 187.704 324.938 186.995 326.202 189.029C326.951 190.08 327.358 191.633 327.883 192.813C328.423 194.032 328.855 195.496 329.608 196.599C330.347 197.675 331.585 197.607 332.141 196.413C332.845 194.899 332.238 192.634 331.904 191.084Z" fill="#5D9D31"/>
<path d="M347.398 174.59C346.152 179.238 341.376 181.998 336.726 180.752C332.076 179.506 329.319 174.728 330.564 170.08C331.809 165.432 336.586 162.672 341.236 163.918C345.886 165.164 348.643 169.942 347.398 174.59Z" fill="#5D9D31"/>
<path d="M343.736 170.76C342.555 168.51 340.249 167.381 338.034 168.096C335.829 168.808 334.895 174.269 335.418 176.291C336.05 178.731 340.235 178.674 341.847 177.331C344.401 175.208 344.768 172.721 343.736 170.76Z" fill="#A7D82A"/>
<path d="M303.638 162.865C302.393 167.513 297.614 170.272 292.965 169.026C288.316 167.781 285.558 163.002 286.803 158.354C288.049 153.706 292.827 150.947 297.476 152.193C302.125 153.438 304.883 158.217 303.638 162.865Z" fill="#5D9D31"/>
<path d="M292.062 157.886C290.965 160.125 289.869 164.224 292.137 165.887C295.697 168.495 300.073 165.569 300.811 162.815C303 154.644 293.73 154.48 292.062 157.886Z" fill="#A7D82A"/>
<path d="M325.44 205.106C324.237 203.796 321.941 205.045 320.621 205.958C318.37 207.515 307.652 209.827 306.756 205.452C306.579 204.601 306.926 203.825 307.276 203.058C307.95 201.588 309.047 199.575 307.783 198.074C307.75 198.033 307.711 197.997 307.676 197.959C307.661 197.848 307.593 197.744 307.45 197.682C307.342 197.635 307.235 197.596 307.129 197.561C306.504 197.249 305.751 197.267 305.178 197.634C304.647 197.844 304.152 198.201 303.711 198.657C302.259 200.163 302.102 202.745 300.285 203.912C298.143 205.289 294.765 203.906 292.848 202.728C290.555 201.317 289.142 199.155 287.612 197.012C286.863 195.964 285.674 193.767 284.123 194.061C282.939 194.287 281.838 196.653 283.771 199.602C286.812 204.243 292.857 207.772 302.302 210.382C312.272 213.137 317.245 212.855 323.363 210.058C325.34 209.154 326.743 206.528 325.44 205.106Z" fill="#5D9D31"/>
<path d="M281.522 231.42C279.431 225.195 274.285 222.949 271.428 222.031C265.793 220.223 259.41 220.195 253.821 221.743C230.905 228.092 224.521 249.994 226.52 260.804C227.512 266.167 231.745 270.05 236.921 272.032C248.451 276.449 261.179 270.66 268.914 262.375C273.698 257.249 277.409 250.927 279.773 244.38C281.201 240.427 282.506 234.353 281.522 231.42Z" fill="#93C925"/>
<path d="M349.288 268.66C351.521 260.334 349.738 246.804 339.112 241.298C329.604 236.373 317.177 238.773 310.089 248.482C306.256 253.736 305.164 260.297 305.151 266.673C305.136 273.222 308.745 293.605 323.062 293.984C335.201 294.305 345.604 282.399 349.288 268.66Z" fill="#93C925"/>
<path d="M274.009 241.986C278.573 239.197 277.957 233.593 275.312 231.708C269.36 226.601 258.404 228.262 251.618 230.93C246.372 232.994 242.777 236.955 240.028 241.806C237.351 246.532 235.281 252.16 235.271 257.65C235.263 261.75 236.751 266.156 240.74 267.905C244.619 269.607 249.375 268.31 252.379 265.447C256.274 261.736 253.998 253.981 259.221 249.557C264.956 244.702 269.188 244.932 274.009 241.986Z" fill="#A7D82A"/>
<path d="M338.816 250.9C335.654 245.981 326.637 245.6 321.306 247.159C314.904 249.033 310.552 257.686 309.234 263.421C306.979 273.223 314.753 282.738 322.109 283.341C329.56 283.954 325.813 276.816 328.398 268.556C330.45 262.001 342.401 257.749 338.816 250.9Z" fill="#A7D82A"/>
<path d="M313.469 285.818C310.055 279.009 306.984 271.761 309.085 251.85C310.041 242.775 296.231 234.486 288.22 239.638C280.722 244.46 269.285 262.205 263.682 267.038C258.204 271.763 252.234 276.531 245.768 279.787C234.626 285.397 223.159 302.528 227.154 315.571C231.547 329.914 235.589 338.148 241.246 349.366C249.438 365.611 272.42 374.607 283.3 365.972C287.264 362.825 294.165 356.095 297.539 353.998C306.65 348.336 315.723 342.179 321.03 322.373C326.213 303.028 315.934 290.732 313.469 285.818Z" fill="#93C925"/>
<path d="M304.745 300.103C302.706 289.009 296.974 281.444 297.714 269.437C298.019 264.5 302.517 251.176 297.292 247.155C289.267 240.978 282.913 256.678 280.175 261.746C274.921 271.464 265.694 281.254 256.144 287.081C233.708 300.766 245.507 341.445 265.299 348.337C293.128 358.029 308.922 322.824 304.745 300.103Z" fill="#A7D82A"/>
<path d="M245.813 348.514C244.294 340.783 242.214 332.495 236.461 326.345C219.96 308.701 200.716 324.725 195.619 335.907C192.659 342.403 191.491 349.712 191.608 356.868C191.713 363.231 193.59 369.343 198.267 374.498C206.968 384.088 221.619 387.386 233.149 381.802C238.597 379.163 242.972 374.847 245.117 369.586C247.753 363.122 247.164 355.391 245.813 348.514Z" fill="#93C925"/>
<path d="M334.918 363.615C334.671 358.504 332.632 352.04 328.27 348.979C323.819 345.11 317.39 344.527 311.67 345.231C305.144 346.033 298.794 348.287 293.161 351.742C281.024 359.188 274.995 370.214 272.24 380.496C269.291 391.499 275.301 402.581 285.394 403.844C288.563 404.24 291.788 404.056 294.96 403.658C307.18 402.13 318.905 395.866 326.665 386.094C331.681 379.776 335.314 371.837 334.918 363.615Z" fill="#93C925"/>
<path d="M230.406 361.887C227.973 359.526 221.125 351.816 228.928 340.191C234.063 332.54 227.722 327.037 218.146 326.904C212.04 326.818 208.441 331.79 205.843 335.699C199.896 344.648 198.97 356.393 204.085 366.868C206.394 371.593 210.415 375.57 216.6 377.232C228.291 380.376 238.891 370.121 230.406 361.887Z" fill="#A7D82A"/>
<path d="M295.899 354.653C287.532 359.428 281.505 367.578 280.347 376.232C279.835 380.069 280.654 384.237 283.955 387.424C287.477 390.821 292.683 391.343 297.258 390.344C301.796 389.353 304.457 386.274 304.96 382.339C305.249 380.084 304.723 377.78 304.71 375.501C304.694 372.724 305.832 370.482 308.297 368.828C312.262 366.168 318.162 365.789 319.887 363.631C324.759 357.537 314.535 344.02 295.899 354.653Z" fill="#A7D82A"/>
<path d="M318.85 183.452C317.738 179.941 309.101 177.015 304.161 178.684C300.445 179.94 298.781 185.052 301.449 188.293C304.301 191.757 309.654 193.791 313.997 192.285C317.646 191.019 320.153 187.56 318.85 183.452Z" fill="#A7D82A"/>
<path d="M311.749 140.446C312.067 140.224 312.392 140.015 312.732 139.827C312.903 139.732 313.075 139.644 313.25 139.561C313.563 139.411 313.857 139.475 313.124 139.602C313.829 139.481 314.541 139.17 315.254 139.025C315.701 138.934 314.329 139.096 315.113 139.054C315.268 139.045 315.423 139.03 315.578 139.023C315.965 139.007 316.353 139.01 316.741 139.037C316.881 139.047 317.581 139.117 316.942 139.046C316.291 138.973 317.051 139.078 317.139 139.097C317.52 139.174 317.893 139.278 318.263 139.394C320.107 139.978 322.37 138.672 322.787 136.782C323.233 134.753 322.153 132.885 320.175 132.258C316.187 130.994 311.495 131.646 308.054 134.048C306.471 135.153 305.569 137.311 306.703 139.094C307.7 140.665 310.057 141.628 311.749 140.446Z" fill="white"/>
<path d="M328.821 141.167C330.512 141.452 332.167 141.895 333.766 142.511C333.898 142.564 334.582 142.776 333.989 142.596C333.401 142.418 334.07 142.637 334.204 142.696C334.613 142.882 335.016 143.078 335.414 143.284C336.176 143.678 336.915 144.109 337.634 144.576C337.976 144.796 338.313 145.027 338.644 145.264C338.808 145.384 338.971 145.508 339.136 145.628C339.51 145.899 338.528 145.131 339.055 145.566C339.715 146.11 340.358 146.673 340.969 147.275C341.576 147.877 342.156 148.507 342.701 149.168C342.85 149.35 342.993 149.573 343.159 149.74C343.02 149.6 342.749 149.183 343.027 149.574C343.31 149.973 343.589 150.375 343.854 150.785C344.905 152.407 347.158 153.245 348.902 152.138C350.52 151.109 351.377 148.824 350.255 147.092C345.873 140.33 338.73 135.369 330.734 134.03C329.74 133.865 328.83 133.881 327.932 134.4C327.145 134.854 326.409 135.743 326.21 136.644C325.812 138.445 326.779 140.827 328.821 141.167Z" fill="white"/>
<path d="M369.457 128.878C370.884 128.329 372.347 127.877 373.854 127.615C374.014 127.586 374.185 127.575 374.343 127.535C374.156 127.583 373.636 127.616 374.119 127.575C374.474 127.546 374.83 127.514 375.188 127.501C375.844 127.474 376.492 127.505 377.148 127.549C377.663 127.585 376.992 127.53 376.841 127.499C376.988 127.529 377.141 127.543 377.288 127.568C377.586 127.619 377.881 127.677 378.176 127.745C378.805 127.889 379.425 128.075 380.031 128.296C380.209 128.36 380.389 128.449 380.57 128.502C380.413 128.456 379.834 128.176 380.302 128.394C380.59 128.53 380.877 128.662 381.161 128.806C381.82 129.142 382.46 129.515 383.09 129.911C384.726 130.939 387.235 130.32 388.147 128.594C389.106 126.778 388.582 124.64 386.83 123.537C383.916 121.702 380.746 120.535 377.322 120.181C374.006 119.839 370.592 120.564 367.507 121.751C366.583 122.105 365.814 122.56 365.294 123.442C364.83 124.235 364.631 125.401 364.917 126.288C365.479 128.039 367.528 129.619 369.457 128.878Z" fill="white"/>
<path d="M388.335 135.61C388.414 135.691 389.102 136.516 389.124 136.506C388.813 136.089 388.741 135.992 388.903 136.214C388.97 136.306 389.036 136.4 389.098 136.495C389.184 136.618 389.267 136.743 389.346 136.872C389.54 137.183 389.72 137.505 389.882 137.834C389.931 137.93 389.976 138.029 390.021 138.129C390.136 138.383 390.084 138.258 389.867 137.752C389.88 137.91 389.999 138.103 390.05 138.253C390.161 138.589 390.256 138.928 390.334 139.273C390.374 139.447 390.404 139.619 390.438 139.793C390.562 140.426 390.38 139.125 390.408 139.579C390.453 140.339 390.479 141.077 390.416 141.837C390.259 143.768 392.267 145.601 394.138 145.505C396.282 145.395 397.637 143.852 397.807 141.783C398.155 137.53 396.493 133.478 393.59 130.411C392.257 129.007 389.699 128.944 388.364 130.385C386.977 131.879 386.914 134.11 388.335 135.61Z" fill="white"/>
<path d="M277.323 107.441C277.427 107.29 277.556 107.138 277.651 106.98C277.117 107.857 277.333 107.387 277.549 107.138C277.787 106.866 278.037 106.606 278.298 106.353C278.565 106.097 278.85 105.86 279.129 105.617C279.696 105.123 278.411 106.124 279.03 105.69C279.201 105.57 279.37 105.449 279.542 105.334C280.187 104.907 280.864 104.529 281.565 104.204C281.918 104.039 282.283 104.073 281.474 104.229C281.672 104.191 281.88 104.07 282.071 104.003C282.438 103.874 282.81 103.758 283.187 103.656C283.56 103.557 283.939 103.469 284.319 103.401C284.731 103.325 285.01 103.472 284.201 103.406C284.366 103.42 284.555 103.369 284.72 103.356C285.099 103.326 285.479 103.314 285.859 103.32C286.065 103.325 286.269 103.335 286.474 103.349C286.884 103.379 287.167 103.594 286.304 103.315C286.65 103.426 287.041 103.448 287.396 103.544C287.591 103.598 287.786 103.657 287.977 103.722C288.568 103.926 287.933 103.713 287.724 103.598C288.083 103.796 288.461 103.95 288.812 104.166C288.965 104.259 289.169 104.473 289.33 104.512C289.19 104.402 289.05 104.289 288.909 104.179C289.02 104.267 289.129 104.358 289.236 104.452C290.696 105.714 293.032 106.022 294.46 104.482C295.734 103.108 296.05 100.604 294.488 99.2562C290.829 96.094 286.075 95.3021 281.44 96.4757C277.229 97.5401 273.406 100.115 270.948 103.702C269.854 105.297 270.586 107.872 272.265 108.758C274.14 109.747 276.151 109.152 277.323 107.441Z" fill="white"/>
<path d="M321.351 265.608C321.372 265.361 321.444 265.046 321.431 264.799C321.442 265.006 321.325 265.502 321.412 265.011C321.49 264.569 321.568 264.128 321.671 263.691C321.759 263.322 321.859 262.955 321.971 262.593C322.081 262.247 322.645 261.102 322.066 262.217C322.361 261.646 322.607 261.065 322.952 260.519C323.109 260.269 323.293 260.04 323.453 259.793C322.774 260.845 323.305 259.992 323.561 259.719C323.741 259.526 323.93 259.341 324.124 259.163C324.262 259.039 324.991 258.459 324.387 258.917C323.803 259.362 324.551 258.817 324.722 258.708C324.918 258.585 325.118 258.47 325.321 258.361C325.516 258.258 325.716 258.17 325.915 258.071C326.417 257.822 325.128 258.367 325.455 258.264C325.554 258.233 325.649 258.19 325.745 258.156C326.146 258.013 326.554 257.901 326.968 257.81C328.861 257.404 330.144 255.1 329.556 253.272C328.917 251.281 327.042 250.248 325.017 250.682C322.48 251.229 319.994 252.658 318.254 254.586C315.458 257.677 314.318 261.579 313.961 265.661C313.791 267.591 315.819 269.426 317.682 269.329C319.836 269.22 321.169 267.676 321.351 265.608Z" fill="white"/>
<path d="M250.642 245.688C251.443 244.457 252.293 243.27 253.14 242.072C253.034 242.223 252.555 242.797 252.943 242.332C253.057 242.195 253.168 242.058 253.284 241.922C253.492 241.678 253.704 241.439 253.925 241.206C254.376 240.729 254.868 240.314 255.355 239.877C255.677 239.589 254.591 240.425 255.069 240.095C255.208 240.001 255.344 239.903 255.483 239.812C255.74 239.644 256.006 239.487 256.276 239.343C256.424 239.264 256.579 239.194 256.729 239.117C257.258 238.847 256.567 239.201 256.406 239.243C256.741 239.155 257.066 239.002 257.401 238.907C257.724 238.817 258.052 238.75 258.38 238.682C259.159 238.524 257.797 238.729 258.188 238.703C258.351 238.691 258.514 238.668 258.679 238.656C259.542 238.591 260.405 238.62 261.267 238.696C263.197 238.87 265.03 236.835 264.936 234.976C264.824 232.818 263.282 231.492 261.213 231.307C257.445 230.968 253.751 231.881 250.732 234.182C248.021 236.249 246.109 239.12 244.269 241.946C243.213 243.567 243.875 246.103 245.584 247.004C247.423 247.976 249.511 247.423 250.642 245.688Z" fill="white"/>
<path d="M303.396 356.734C299.359 356.744 295.73 358.851 292.814 361.486C289.934 364.089 287.557 367.416 285.841 370.889C284.884 372.827 284.05 374.866 283.537 376.97C283.08 378.847 284.168 381.057 286.149 381.495C288.068 381.918 290.184 380.894 290.674 378.882C290.855 378.142 291.074 377.411 291.329 376.692C291.448 376.36 291.544 375.952 291.725 375.649C291.765 375.585 291.358 376.5 291.526 376.126C291.565 376.039 291.602 375.95 291.64 375.863C291.73 375.656 291.823 375.451 291.919 375.247C292.637 373.705 293.486 372.223 294.446 370.818C294.674 370.482 294.909 370.151 295.151 369.825C295.213 369.744 295.275 369.664 295.334 369.582C295.57 369.257 295.024 369.976 295.055 369.936C295.206 369.756 295.349 369.569 295.497 369.386C296.047 368.722 296.626 368.082 297.237 367.475C297.806 366.91 298.407 366.388 299.027 365.88C299.495 365.495 298.262 366.422 298.942 365.949C299.094 365.845 299.241 365.738 299.394 365.636C299.717 365.42 300.046 365.216 300.385 365.026C300.63 364.888 301.186 364.466 301.471 364.48C301.543 364.483 300.637 364.802 300.989 364.68C301.094 364.643 301.199 364.598 301.303 364.56C301.486 364.493 301.669 364.432 301.856 364.376C302.248 364.256 302.646 364.19 303.045 364.099C303.347 364.031 302.495 364.198 302.493 364.176C302.494 364.172 302.786 364.147 302.812 364.146C303.024 364.13 303.234 364.125 303.447 364.125C305.381 364.119 307.218 362.39 307.116 360.402C307.014 358.396 305.465 356.728 303.396 356.734Z" fill="white"/>
<path d="M218.855 335.066C215.779 336.987 213.915 340.061 212.661 343.383C211.465 346.548 210.99 350.124 211.26 353.494C211.412 355.415 212.888 357.27 214.981 357.162C216.861 357.066 218.814 355.503 218.65 353.44C218.593 352.718 218.569 351.995 218.586 351.272C218.594 350.925 218.612 350.578 218.637 350.232C218.651 350.039 218.669 349.846 218.688 349.654C218.701 349.53 218.771 348.973 218.691 349.568C218.606 350.206 218.704 349.51 218.726 349.371C218.756 349.18 218.789 348.99 218.825 348.8C218.889 348.46 218.96 348.121 219.039 347.784C219.205 347.085 219.407 346.392 219.645 345.713C219.694 345.574 219.745 345.434 219.797 345.295C220.013 344.724 219.833 345.23 219.703 345.493C219.847 345.202 219.967 344.899 220.111 344.608C220.404 344.018 220.733 343.444 221.104 342.9C221.18 342.789 221.26 342.682 221.335 342.572C221.734 341.987 220.885 343.074 221.17 342.783C221.37 342.579 221.545 342.347 221.746 342.142C221.963 341.921 222.196 341.721 222.428 341.515C222.794 341.188 222.18 341.725 222.105 341.757C222.249 341.696 222.416 341.548 222.55 341.465C224.189 340.44 224.999 338.142 223.902 336.418C222.859 334.776 220.605 333.972 218.855 335.066Z" fill="white"/>
<path d="M214.124 364.938C215.006 366.66 216.298 368.179 217.949 369.205C219.756 370.329 222.016 370.722 224.113 370.536C226.032 370.364 227.89 368.92 227.782 366.814C227.687 364.948 226.121 362.961 224.061 363.145C223.677 363.179 223.296 363.202 222.912 363.192C222.753 363.188 222.597 363.171 222.438 363.167C221.966 363.153 223.286 363.341 222.647 363.184C222.341 363.108 222.047 363.019 221.746 362.926C221.382 362.813 222.387 363.318 222.114 363.068C222.012 362.975 221.806 362.903 221.691 362.831C221.593 362.771 221.479 362.655 221.372 362.618C221.472 362.653 222.03 363.198 221.683 362.848C221.479 362.643 221.276 362.445 221.082 362.232C220.665 361.778 221.175 362.251 221.236 362.448C221.203 362.341 221.079 362.216 221.018 362.121C220.837 361.837 220.676 361.543 220.522 361.243C219.639 359.519 217.102 358.857 215.476 359.891C213.717 361.009 213.18 363.097 214.124 364.938Z" fill="white"/>
<path d="M311.744 188.842C313.611 189.342 315.839 188.179 316.269 186.23C316.702 184.273 315.658 182.241 313.656 181.705C311.791 181.205 309.562 182.366 309.133 184.318C308.7 186.274 309.744 188.306 311.744 188.842Z" fill="white"/>
<path d="M266.475 116.846C268.342 117.346 270.57 116.182 271 114.232C271.431 112.275 270.388 110.244 268.387 109.708C266.521 109.207 264.294 110.369 263.863 112.319C263.432 114.276 264.475 116.31 266.475 116.846Z" fill="white"/>
<path d="M243.524 257.69C245.391 258.19 247.619 257.027 248.05 255.077C248.481 253.121 247.437 251.088 245.437 250.552C243.57 250.052 241.342 251.214 240.912 253.164C240.481 255.122 241.524 257.154 243.524 257.69Z" fill="white"/>
</svg>
