<svg width="36" height="36" viewBox="0 0 36 36" fill="none" xmlns="http://www.w3.org/2000/svg">
<path d="M26.085 23.505L20.025 18H15.96L9.90003 23.505C8.20503 25.035 7.65003 27.39 8.47503 29.52C9.30003 31.635 11.31 33 13.575 33H22.41C24.69 33 26.685 31.635 27.51 29.52C28.335 27.39 27.78 25.035 26.085 23.505ZM20.73 27.21H15.27C14.7 27.21 14.25 26.745 14.25 26.19C14.25 25.635 14.715 25.17 15.27 25.17H20.73C21.3 25.17 21.75 25.635 21.75 26.19C21.75 26.745 21.285 27.21 20.73 27.21Z" fill="#FFE0A3"/>
<path d="M27.525 6.48C26.7 4.365 24.69 3 22.425 3H13.575C11.31 3 9.3 4.365 8.475 6.48C7.665 8.61 8.22 10.965 9.915 12.495L15.975 18H20.04L26.1 12.495C27.78 10.965 28.335 8.61 27.525 6.48ZM20.73 10.845H15.27C14.7 10.845 14.25 10.38 14.25 9.825C14.25 9.27 14.715 8.805 15.27 8.805H20.73C21.3 8.805 21.75 9.27 21.75 9.825C21.75 10.38 21.285 10.845 20.73 10.845Z" fill="#FFE0A3"/>
</svg>
