<svg width="36" height="36" viewBox="0 0 36 36" fill="none" xmlns="http://www.w3.org/2000/svg">
<path d="M12.585 27.735V12.495C12.585 11.895 12.765 11.31 13.095 10.815L17.19 4.72499C17.835 3.74999 19.44 3.05999 20.805 3.56999C22.275 4.06499 23.25 5.71499 22.935 7.18499L22.155 12.09C22.095 12.54 22.215 12.945 22.47 13.26C22.725 13.545 23.1 13.725 23.505 13.725H29.67C30.855 13.725 31.875 14.205 32.475 15.045C33.045 15.855 33.15 16.905 32.775 17.97L29.085 29.205C28.62 31.065 26.595 32.58 24.585 32.58H18.735C17.73 32.58 16.32 32.235 15.675 31.59L13.755 30.105C13.02 29.55 12.585 28.665 12.585 27.735Z" fill="#FFDFA2"/>
<path d="M7.815 9.57001H6.27C3.945 9.57001 3 10.47 3 12.69V27.78C3 30 3.945 30.9 6.27 30.9H7.815C10.14 30.9 11.085 30 11.085 27.78V12.69C11.085 10.47 10.14 9.57001 7.815 9.57001Z" fill="#FFDFA2"/>
</svg>
