<svg width="36" height="36" viewBox="0 0 36 36" fill="none" xmlns="http://www.w3.org/2000/svg">
<path d="M23.085 7.81499L25.2 12.045C25.485 12.63 26.25 13.185 26.895 13.305L30.72 13.935C33.165 14.34 33.735 16.11 31.98 17.88L28.995 20.865C28.5 21.36 28.215 22.335 28.38 23.04L29.235 26.73C29.91 29.64 28.35 30.78 25.785 29.25L22.2 27.12C21.555 26.73 20.475 26.73 19.83 27.12L16.245 29.25C13.68 30.765 12.12 29.64 12.795 26.73L13.65 23.04C13.785 22.32 13.5 21.345 13.005 20.85L10.02 17.865C8.26497 16.11 8.83497 14.34 11.28 13.92L15.105 13.29C15.75 13.185 16.515 12.615 16.8 12.03L18.915 7.79999C20.07 5.51999 21.93 5.51999 23.085 7.81499Z" fill="#FFE0A4"/>
<path d="M12 8.625H3C2.385 8.625 1.875 8.115 1.875 7.5C1.875 6.885 2.385 6.375 3 6.375H12C12.615 6.375 13.125 6.885 13.125 7.5C13.125 8.115 12.615 8.625 12 8.625Z" fill="#FFE0A4"/>
<path d="M7.5 29.625H3C2.385 29.625 1.875 29.115 1.875 28.5C1.875 27.885 2.385 27.375 3 27.375H7.5C8.115 27.375 8.625 27.885 8.625 28.5C8.625 29.115 8.115 29.625 7.5 29.625Z" fill="#FFE0A4"/>
<path d="M4.5 19.125H3C2.385 19.125 1.875 18.615 1.875 18C1.875 17.385 2.385 16.875 3 16.875H4.5C5.115 16.875 5.625 17.385 5.625 18C5.625 18.615 5.115 19.125 4.5 19.125Z" fill="#FFE0A4"/>
</svg>
