<svg width="36" height="36" viewBox="0 0 36 36" fill="none" xmlns="http://www.w3.org/2000/svg">
<path d="M23.415 8.25V23.49C23.415 24.09 23.235 24.675 22.905 25.17L18.81 31.26C18.165 32.235 16.56 32.925 15.195 32.415C13.725 31.92 12.75 30.27 13.065 28.8L13.845 23.895C13.905 23.445 13.785 23.04 13.53 22.725C13.275 22.44 12.9 22.26 12.495 22.26H6.33002C5.14502 22.26 4.12502 21.78 3.52502 20.94C2.95502 20.13 2.85002 19.08 3.22502 18.015L6.91502 6.78C7.38002 4.92 9.40502 3.405 11.415 3.405H17.265C18.27 3.405 19.68 3.75 20.325 4.395L22.245 5.88C22.98 6.45 23.415 7.32 23.415 8.25Z" fill="#FFE0A4"/>
<path d="M28.185 26.415H29.73C32.055 26.415 33 25.515 33 23.295V8.22001C33 6.00001 32.055 5.10001 29.73 5.10001H28.185C25.86 5.10001 24.915 6.00001 24.915 8.22001V23.31C24.915 25.515 25.86 26.415 28.185 26.415Z" fill="#FFE0A4"/>
</svg>
