<svg width="270" height="96" viewBox="0 0 270 96" fill="none" xmlns="http://www.w3.org/2000/svg">
<g filter="url(#filter0_i_133_184)">
<path d="M88.06 55V44.98H78.28V55H68.44V40.12C68.44 37.48 68.74 34.86 69.34 32.26C69.94 29.66 70.84 27.22 72.04 24.94C73.24 22.66 74.74 20.58 76.54 18.7C78.34 16.82 80.46 15.24 82.9 13.96C84.22 13.28 85.46 12.78 86.62 12.46C87.82 12.1 89 11.84 90.16 11.68C91.36 11.52 92.58 11.44 93.82 11.44C95.1 11.4 96.46 11.36 97.9 11.32V55H88.06ZM88.06 22.42C86.78 22.98 85.62 23.72 84.58 24.64C83.58 25.52 82.68 26.52 81.88 27.64C81.12 28.76 80.48 29.96 79.96 31.24C79.44 32.52 79.06 33.82 78.82 35.14H88.06V22.42ZM100.784 55V11.44H110.684V45.16H122.624V55H100.784ZM125.51 55V11.44H135.41V55H125.51ZM157.904 55V44.98H148.124V55H138.284V40.12C138.284 37.48 138.584 34.86 139.184 32.26C139.784 29.66 140.684 27.22 141.884 24.94C143.084 22.66 144.584 20.58 146.384 18.7C148.184 16.82 150.304 15.24 152.744 13.96C154.064 13.28 155.304 12.78 156.464 12.46C157.664 12.1 158.844 11.84 160.004 11.68C161.204 11.52 162.424 11.44 163.664 11.44C164.944 11.4 166.304 11.36 167.744 11.32V55H157.904ZM157.904 22.42C156.624 22.98 155.464 23.72 154.424 24.64C153.424 25.52 152.524 26.52 151.724 27.64C150.964 28.76 150.324 29.96 149.804 31.24C149.284 32.52 148.904 33.82 148.664 35.14H157.904V22.42ZM186.708 45.16H200.508V55H170.628L187.848 21.34H176.268V11.44H203.928L186.708 45.16Z" fill="white"/>
</g>
<path d="M71.292 78.18C69.972 78.18 68.838 77.916 67.89 77.388C66.954 76.848 66.234 76.092 65.73 75.12C65.226 74.136 64.974 72.978 64.974 71.646C64.974 70.65 65.118 69.756 65.406 68.964C65.694 68.16 66.108 67.476 66.648 66.912C67.188 66.336 67.848 65.898 68.628 65.598C69.42 65.286 70.308 65.13 71.292 65.13C71.952 65.13 72.6 65.214 73.236 65.382C73.872 65.55 74.43 65.79 74.91 66.102C75.162 66.258 75.33 66.45 75.414 66.678C75.498 66.894 75.516 67.11 75.468 67.326C75.42 67.53 75.318 67.704 75.162 67.848C75.018 67.992 74.832 68.076 74.604 68.1C74.388 68.112 74.148 68.034 73.884 67.866C73.512 67.626 73.11 67.452 72.678 67.344C72.246 67.236 71.808 67.182 71.364 67.182C70.512 67.182 69.792 67.356 69.204 67.704C68.616 68.052 68.172 68.556 67.872 69.216C67.572 69.876 67.422 70.686 67.422 71.646C67.422 72.594 67.572 73.404 67.872 74.076C68.172 74.748 68.616 75.258 69.204 75.606C69.792 75.954 70.512 76.128 71.364 76.128C71.82 76.128 72.27 76.074 72.714 75.966C73.158 75.846 73.578 75.666 73.974 75.426C74.238 75.27 74.472 75.204 74.676 75.228C74.892 75.24 75.072 75.312 75.216 75.444C75.36 75.576 75.456 75.744 75.504 75.948C75.552 76.14 75.54 76.344 75.468 76.56C75.396 76.764 75.252 76.944 75.036 77.1C74.556 77.448 73.98 77.718 73.308 77.91C72.648 78.09 71.976 78.18 71.292 78.18ZM78.7743 78.144C78.4023 78.144 78.1143 78.042 77.9103 77.838C77.7183 77.622 77.6223 77.328 77.6223 76.956V66.336C77.6223 65.952 77.7183 65.664 77.9103 65.472C78.1143 65.268 78.4023 65.166 78.7743 65.166C79.1463 65.166 79.4283 65.268 79.6203 65.472C79.8243 65.664 79.9263 65.952 79.9263 66.336V70.692H81.9783L81.5283 70.998L84.8403 65.76C85.0083 65.508 85.2003 65.34 85.4163 65.256C85.6443 65.172 85.8663 65.154 86.0823 65.202C86.2983 65.25 86.4843 65.352 86.6403 65.508C86.7963 65.664 86.8803 65.856 86.8923 66.084C86.9163 66.312 86.8443 66.558 86.6763 66.822L83.6523 71.448L82.7523 70.782C83.5323 70.902 84.1923 71.184 84.7323 71.628C85.2723 72.072 85.7343 72.69 86.1183 73.482L87.5943 76.506C87.7503 76.806 87.7983 77.076 87.7383 77.316C87.6903 77.556 87.5703 77.748 87.3783 77.892C87.1983 78.024 86.9883 78.102 86.7483 78.126C86.5203 78.15 86.2923 78.108 86.0643 78C85.8483 77.88 85.6743 77.682 85.5423 77.406L84.1203 74.346C83.8323 73.722 83.4843 73.278 83.0763 73.014C82.6803 72.75 82.1823 72.618 81.5823 72.618H79.9263V76.956C79.9263 77.328 79.8303 77.622 79.6383 77.838C79.4463 78.042 79.1583 78.144 78.7743 78.144ZM89.6311 78.144C89.3431 78.144 89.1091 78.078 88.9291 77.946C88.7611 77.814 88.6591 77.64 88.6231 77.424C88.5871 77.196 88.6291 76.944 88.7491 76.668L93.5011 66.138C93.6571 65.79 93.8431 65.544 94.0591 65.4C94.2871 65.244 94.5451 65.166 94.8331 65.166C95.1091 65.166 95.3551 65.244 95.5711 65.4C95.7991 65.544 95.9911 65.79 96.1471 66.138L100.917 76.668C101.049 76.944 101.097 77.196 101.061 77.424C101.025 77.652 100.923 77.832 100.755 77.964C100.587 78.084 100.365 78.144 100.089 78.144C99.7531 78.144 99.4891 78.066 99.2971 77.91C99.1171 77.742 98.9551 77.49 98.8111 77.154L97.6411 74.436L98.6131 75.066H91.0171L91.9891 74.436L90.8371 77.154C90.6811 77.502 90.5191 77.754 90.3511 77.91C90.1831 78.066 89.9431 78.144 89.6311 78.144ZM94.7971 67.812L92.2771 73.806L91.8091 73.23H97.8211L97.3711 73.806L94.8331 67.812H94.7971ZM110.658 78.144C110.298 78.144 110.022 78.042 109.83 77.838C109.638 77.622 109.542 77.328 109.542 76.956V72.618H108.336C107.724 72.618 107.214 72.756 106.806 73.032C106.41 73.296 106.068 73.734 105.78 74.346L104.358 77.406C104.226 77.682 104.046 77.88 103.818 78C103.602 78.108 103.374 78.15 103.134 78.126C102.906 78.102 102.696 78.024 102.504 77.892C102.324 77.748 102.204 77.556 102.144 77.316C102.096 77.076 102.15 76.806 102.306 76.506L103.782 73.482C104.166 72.678 104.634 72.06 105.186 71.628C105.738 71.184 106.398 70.902 107.166 70.782L106.266 71.448L103.242 66.822C103.074 66.558 102.996 66.312 103.008 66.084C103.032 65.856 103.122 65.664 103.278 65.508C103.434 65.352 103.62 65.25 103.836 65.202C104.052 65.154 104.274 65.172 104.502 65.256C104.73 65.34 104.922 65.508 105.078 65.76L108.39 70.998L107.958 70.692H109.542V66.336C109.542 65.952 109.638 65.664 109.83 65.472C110.022 65.268 110.298 65.166 110.658 65.166C111.006 65.166 111.276 65.268 111.468 65.472C111.66 65.664 111.756 65.952 111.756 66.336V70.692H113.358L112.908 70.998L116.22 65.76C116.388 65.508 116.58 65.34 116.796 65.256C117.024 65.172 117.246 65.154 117.462 65.202C117.678 65.25 117.864 65.352 118.02 65.508C118.176 65.664 118.26 65.856 118.272 66.084C118.296 66.312 118.224 66.558 118.056 66.822L115.032 71.448L114.132 70.782C114.648 70.854 115.11 71.004 115.518 71.232C115.926 71.46 116.292 71.76 116.616 72.132C116.952 72.504 117.246 72.954 117.498 73.482L118.974 76.506C119.13 76.806 119.178 77.076 119.118 77.316C119.07 77.556 118.95 77.748 118.758 77.892C118.578 78.024 118.368 78.102 118.128 78.126C117.9 78.15 117.672 78.108 117.444 78C117.228 77.88 117.054 77.682 116.922 77.406L115.5 74.346C115.212 73.722 114.864 73.278 114.456 73.014C114.06 72.75 113.562 72.618 112.962 72.618H111.756V76.956C111.756 77.328 111.66 77.622 111.468 77.838C111.276 78.042 111.006 78.144 110.658 78.144ZM122.118 78.144C121.962 78.144 121.824 78.12 121.704 78.072C121.584 78.024 121.482 77.952 121.398 77.856C121.314 77.748 121.248 77.622 121.2 77.478C121.164 77.334 121.146 77.166 121.146 76.974V66.264C121.146 65.916 121.236 65.646 121.416 65.454C121.608 65.262 121.878 65.166 122.226 65.166C122.574 65.166 122.838 65.262 123.018 65.454C123.198 65.646 123.288 65.916 123.288 66.264V74.778H122.874L129.714 65.832C129.894 65.592 130.068 65.424 130.236 65.328C130.404 65.22 130.626 65.166 130.902 65.166C131.094 65.166 131.256 65.208 131.388 65.292C131.532 65.376 131.64 65.502 131.712 65.67C131.796 65.826 131.838 66.012 131.838 66.228V77.028C131.838 77.388 131.748 77.664 131.568 77.856C131.388 78.048 131.124 78.144 130.776 78.144C130.428 78.144 130.158 78.048 129.966 77.856C129.786 77.664 129.696 77.388 129.696 77.028V68.514H130.092L123.27 77.46C123.078 77.7 122.904 77.874 122.748 77.982C122.604 78.09 122.394 78.144 122.118 78.144ZM140.469 78.144C140.313 78.144 140.175 78.12 140.055 78.072C139.935 78.024 139.833 77.952 139.749 77.856C139.665 77.748 139.599 77.622 139.551 77.478C139.515 77.334 139.497 77.166 139.497 76.974V66.264C139.497 65.916 139.587 65.646 139.767 65.454C139.959 65.262 140.229 65.166 140.577 65.166C140.925 65.166 141.189 65.262 141.369 65.454C141.549 65.646 141.639 65.916 141.639 66.264V74.778H141.225L148.065 65.832C148.245 65.592 148.419 65.424 148.587 65.328C148.755 65.22 148.977 65.166 149.253 65.166C149.445 65.166 149.607 65.208 149.739 65.292C149.883 65.376 149.991 65.502 150.063 65.67C150.147 65.826 150.189 66.012 150.189 66.228V77.028C150.189 77.388 150.099 77.664 149.919 77.856C149.739 78.048 149.475 78.144 149.127 78.144C148.779 78.144 148.509 78.048 148.317 77.856C148.137 77.664 148.047 77.388 148.047 77.028V68.514H148.443L141.621 77.46C141.429 77.7 141.255 77.874 141.099 77.982C140.955 78.09 140.745 78.144 140.469 78.144ZM154.114 78.144C153.742 78.144 153.454 78.042 153.25 77.838C153.058 77.622 152.962 77.328 152.962 76.956V66.354C152.962 65.97 153.058 65.676 153.25 65.472C153.454 65.268 153.742 65.166 154.114 65.166C154.486 65.166 154.768 65.268 154.96 65.472C155.164 65.676 155.266 65.97 155.266 66.354V70.602H161.8V66.354C161.8 65.97 161.896 65.676 162.088 65.472C162.292 65.268 162.58 65.166 162.952 65.166C163.324 65.166 163.606 65.268 163.798 65.472C164.002 65.676 164.104 65.97 164.104 66.354V76.956C164.104 77.328 164.002 77.622 163.798 77.838C163.606 78.042 163.324 78.144 162.952 78.144C162.58 78.144 162.292 78.042 162.088 77.838C161.896 77.622 161.8 77.328 161.8 76.956V72.528H155.266V76.956C155.266 77.328 155.17 77.622 154.978 77.838C154.786 78.042 154.498 78.144 154.114 78.144ZM167.01 78.144C166.722 78.144 166.488 78.078 166.308 77.946C166.14 77.814 166.038 77.64 166.002 77.424C165.966 77.196 166.008 76.944 166.128 76.668L170.88 66.138C171.036 65.79 171.222 65.544 171.438 65.4C171.666 65.244 171.924 65.166 172.212 65.166C172.488 65.166 172.734 65.244 172.95 65.4C173.178 65.544 173.37 65.79 173.526 66.138L178.296 76.668C178.428 76.944 178.476 77.196 178.44 77.424C178.404 77.652 178.302 77.832 178.134 77.964C177.966 78.084 177.744 78.144 177.468 78.144C177.132 78.144 176.868 78.066 176.676 77.91C176.496 77.742 176.334 77.49 176.19 77.154L175.02 74.436L175.992 75.066H168.396L169.368 74.436L168.216 77.154C168.06 77.502 167.898 77.754 167.73 77.91C167.562 78.066 167.322 78.144 167.01 78.144ZM172.176 67.812L169.656 73.806L169.188 73.23H175.2L174.75 73.806L172.212 67.812H172.176ZM188.268 78.144C187.896 78.144 187.608 78.042 187.404 77.838C187.212 77.622 187.116 77.328 187.116 76.956V73.05C186.792 73.206 186.372 73.332 185.856 73.428C185.352 73.524 184.848 73.572 184.344 73.572C183.252 73.572 182.322 73.374 181.554 72.978C180.786 72.582 180.204 71.994 179.808 71.214C179.412 70.422 179.214 69.432 179.214 68.244V66.354C179.214 65.97 179.31 65.676 179.502 65.472C179.706 65.268 179.994 65.166 180.366 65.166C180.738 65.166 181.02 65.268 181.212 65.472C181.416 65.676 181.518 65.97 181.518 66.354V68.136C181.518 69.336 181.776 70.212 182.292 70.764C182.808 71.316 183.576 71.592 184.596 71.592C185.028 71.592 185.46 71.55 185.892 71.466C186.336 71.37 186.744 71.226 187.116 71.034V66.354C187.116 65.97 187.212 65.676 187.404 65.472C187.608 65.268 187.896 65.166 188.268 65.166C188.64 65.166 188.922 65.268 189.114 65.472C189.318 65.676 189.42 65.97 189.42 66.354V76.956C189.42 77.328 189.324 77.622 189.132 77.838C188.94 78.042 188.652 78.144 188.268 78.144ZM193.403 78C193.007 78 192.701 77.898 192.485 77.694C192.281 77.478 192.179 77.172 192.179 76.776V66.534C192.179 66.138 192.281 65.838 192.485 65.634C192.701 65.418 193.007 65.31 193.403 65.31H199.829C200.129 65.31 200.357 65.388 200.513 65.544C200.681 65.7 200.765 65.922 200.765 66.21C200.765 66.51 200.681 66.744 200.513 66.912C200.357 67.068 200.129 67.146 199.829 67.146H194.393V70.638H199.433C199.745 70.638 199.979 70.716 200.135 70.872C200.291 71.028 200.369 71.256 200.369 71.556C200.369 71.856 200.291 72.084 200.135 72.24C199.979 72.396 199.745 72.474 199.433 72.474H194.393V76.164H199.829C200.129 76.164 200.357 76.242 200.513 76.398C200.681 76.554 200.765 76.782 200.765 77.082C200.765 77.382 200.681 77.61 200.513 77.766C200.357 77.922 200.129 78 199.829 78H193.403ZM203.783 74.346C203.555 74.346 203.375 74.274 203.243 74.13C203.123 73.986 203.051 73.782 203.027 73.518L202.487 66.642C202.451 66.198 202.547 65.844 202.775 65.58C203.003 65.304 203.339 65.166 203.783 65.166C204.215 65.166 204.539 65.304 204.755 65.58C204.983 65.844 205.079 66.198 205.043 66.642L204.503 73.518C204.491 73.782 204.419 73.986 204.287 74.13C204.167 74.274 203.999 74.346 203.783 74.346ZM203.783 78.09C203.375 78.09 203.045 77.964 202.793 77.712C202.553 77.46 202.433 77.136 202.433 76.74C202.433 76.356 202.553 76.044 202.793 75.804C203.045 75.552 203.375 75.426 203.783 75.426C204.203 75.426 204.527 75.552 204.755 75.804C204.995 76.044 205.115 76.356 205.115 76.74C205.115 77.136 204.995 77.46 204.755 77.712C204.527 77.964 204.203 78.09 203.783 78.09Z" fill="white"/>
<defs>
<filter id="filter0_i_133_184" x="68.44" y="11.32" width="137.487" height="44.68" filterUnits="userSpaceOnUse" color-interpolation-filters="sRGB">
<feFlood flood-opacity="0" result="BackgroundImageFix"/>
<feBlend mode="normal" in="SourceGraphic" in2="BackgroundImageFix" result="shape"/>
<feColorMatrix in="SourceAlpha" type="matrix" values="0 0 0 0 0 0 0 0 0 0 0 0 0 0 0 0 0 0 127 0" result="hardAlpha"/>
<feOffset dx="2" dy="1"/>
<feGaussianBlur stdDeviation="1.8"/>
<feComposite in2="hardAlpha" operator="arithmetic" k2="-1" k3="1"/>
<feColorMatrix type="matrix" values="0 0 0 0 0.6 0 0 0 0 0.8 0 0 0 0 1 0 0 0 0.58 0"/>
<feBlend mode="normal" in2="shape" result="effect1_innerShadow_133_184"/>
</filter>
</defs>
</svg>
