<svg width="173" height="269" viewBox="0 0 173 269" fill="none" xmlns="http://www.w3.org/2000/svg">
<g clip-path="url(#clip0_108_959)">
<path d="M183.482 134.374C186.633 141.519 184.593 144.201 188.669 151.569C195.016 163.038 204.493 165.953 202.924 171.852C202.438 173.684 199.913 177.154 197.586 178.861C191.936 183.006 186.429 181.041 178.734 184.774C162.964 192.424 163.543 197.294 156.757 198.323C149.894 199.362 148.065 189.97 141.977 177.217C137.052 166.903 133.063 165.191 129.57 158.95C120.071 141.978 125.197 111.089 140.154 105.246C154.39 99.6861 176.496 118.531 183.482 134.374Z" fill="#FF8409"/>
<path d="M144.116 131.659C144.558 141.173 138.036 149.207 129.549 149.601C121.061 149.996 113.822 142.604 113.379 133.088C112.936 123.574 119.458 115.541 127.945 115.146C136.434 114.751 143.673 122.144 144.116 131.659Z" fill="#FF8409"/>
<path d="M155.29 126.238C162.489 132.475 172.835 132.326 178.399 125.904C183.962 119.482 182.638 109.22 175.439 102.983C168.24 96.7456 157.894 96.8953 152.33 103.317C146.766 109.739 148.091 120.001 155.29 126.238Z" fill="#FF8409"/>
<path d="M153.227 43.6457C146.801 38.0767 137.081 38.769 131.517 45.1915C128.526 48.6422 127.347 53.0469 127.891 57.247C124.591 57.5324 121.305 58.409 118.171 59.9294C115.985 60.9895 114.001 62.3031 112.23 63.8191C109.488 61.7953 104.064 59.8668 100.395 60.0377C91.9068 60.432 85.254 68.5374 85.6485 77.031C86.026 85.143 94.7 91.3943 102.685 91.6057C103.186 94.4011 104.075 97.1856 105.382 99.88C112.701 114.967 130.293 121.542 144.675 114.565C159.057 107.588 164.783 89.7019 157.464 74.6146C156.16 71.9271 154.529 69.5122 152.65 67.3929C153.414 66.7942 154.131 66.1157 154.79 65.3555C160.353 58.9334 159.655 49.2136 153.227 43.6457Z" fill="#FF8409"/>
<path d="M139.195 192.992C147.353 200.061 158.478 200.585 164.042 194.163C169.606 187.741 167.502 176.805 159.344 169.737C151.186 162.668 140.062 162.143 134.497 168.565C128.934 174.987 131.037 185.923 139.195 192.992Z" fill="#FF8409"/>
<path d="M204.802 161.341C205.304 172.124 198.83 181.185 190.342 181.58C181.854 181.975 174.567 173.553 174.066 162.771C173.564 151.987 180.038 142.926 188.526 142.531C197.013 142.137 204.301 150.558 204.802 161.341Z" fill="#FF8409"/>
<path d="M91.7864 67.5885C88.3749 71.132 88.742 76.8542 90.9628 81.2618C92.1814 83.6804 93.9754 85.791 96.0077 87.556C97.3166 88.6927 99.6718 89.8879 100.756 87.8371C101.852 85.7662 100.802 83.1356 100.486 80.9862C100.075 78.1927 101.079 75.6885 102.502 73.3674C103.809 71.2338 105.914 69.1383 106.317 66.5726C106.541 65.1449 101.685 57.3088 91.7864 67.5885Z" fill="#FFCC23"/>
<path d="M132.097 48.0225C128.909 51.4553 130.421 56.6873 129.868 58.3416C120.332 61.0046 112.129 67.9469 108.037 76.9812C107.022 79.2221 106.254 81.6667 106.357 84.1529C106.472 86.9117 107.8 89.3317 109.221 91.628C110.017 92.9149 110.842 94.1861 111.517 95.5423C112.185 96.8807 112.709 98.2837 113.235 99.682C114.195 102.232 115.192 104.828 116.979 106.93C119.783 110.226 124.111 112.06 128.428 112.157C133.015 112.26 141.945 108.214 144.183 106.89C148.158 104.537 151.988 101.014 153.961 96.709C156.047 92.1585 155.029 86.7846 153.945 81.9988C152.878 77.2811 149.698 72.8269 146.261 69.3839C144.443 67.5622 142.317 66.3498 140.177 64.9633C139.511 64.5312 136.559 62.5548 137.584 61.5687C138.483 60.7037 140.564 61.5284 141.562 61.739C143.056 62.055 144.55 62.37 146.042 62.6864C146.152 62.7091 146.277 62.6752 146.313 62.5549C146.657 61.4308 145.342 60.8305 144.524 60.4422C143.07 59.7516 141.537 59.222 139.967 58.8663C138.6 58.5572 136.705 58.6033 135.7 57.4853C134.548 56.2017 135.347 54.2543 136.22 53.0599C138.156 50.4093 141.955 49.6852 145.203 50.9159C148.464 52.1511 148.973 54.7922 149.913 57.7303C150.124 58.3905 150.35 59.0479 150.625 59.6852C150.848 60.1962 151.103 60.9335 151.61 61.2406C152.628 61.8547 153.933 61.2238 154.395 60.5445C156.418 57.565 155.23 52.9592 154.692 50.4558C153.228 43.6459 141.339 38.0725 132.097 48.0225Z" fill="#FFCC23"/>
<path d="M136.648 66.3542C131.097 56.7557 107.438 69.4753 114.737 79.3897C116.201 81.3782 120.581 82.3333 123.325 80.2248C128.3 76.401 125.203 71.9903 132.422 71.7685C134.355 71.7092 138.25 69.1251 136.648 66.3542C137.181 67.2744 136.111 65.4241 136.648 66.3542Z" fill="#FFE943"/>
<path d="M141.168 86.8578C139.393 85.5202 137.303 84.8343 135.076 85.0152C130.456 85.391 125.509 87.7861 123.119 91.8823C122.548 92.8608 122.119 93.9248 121.882 95.0345C121.672 96.0177 121.452 97.3718 121.834 98.3392C122.143 99.1199 123.055 99.3106 123.51 98.5551C123.848 97.9935 124.061 97.3006 124.273 96.6846C124.382 96.3686 124.482 96.0495 124.575 95.7288C124.648 95.476 124.918 94.3537 125.386 94.4325C126.274 96.0717 127.74 97.6105 129.727 97.6404C130.747 97.6557 131.728 97.2824 132.642 96.8679C133.715 96.3807 134.797 95.8654 135.778 95.2095C137.397 94.1277 138.782 92.3344 138.452 90.273C138.385 89.8559 138.234 89.4739 138.023 89.1096C137.915 88.9216 137.801 88.7375 137.699 88.5446C137.399 87.9747 137.356 87.5621 138.454 87.9031C139.056 88.0494 139.691 88.4851 140.252 88.7485C140.831 89.0213 141.448 89.4168 142.068 89.5808C142.674 89.7393 143.102 89.3255 142.929 88.7174C142.709 87.9469 141.777 87.3153 141.168 86.8578Z" fill="#FF8409"/>
<path d="M141.61 76.0033C142.619 78.0817 141.752 80.584 139.673 81.5926C137.593 82.6013 135.091 81.7332 134.083 79.6548C133.075 77.5764 133.942 75.0741 136.021 74.0655C138.1 73.0568 140.602 73.9249 141.61 76.0033Z" fill="#FF8409"/>
<path d="M139.078 75.7636C137.942 75.318 136.751 75.6324 136.171 76.588C135.595 77.5393 136.971 79.8147 137.796 80.3842C138.793 81.0713 140.294 79.7357 140.457 78.7421C140.717 77.1691 140.069 76.1511 139.078 75.7636Z" fill="#FFE943"/>
<path d="M122.043 85.4954C123.052 87.5738 122.184 90.0765 120.105 91.0849C118.026 92.0933 115.524 91.2255 114.516 89.1471C113.507 87.0688 114.375 84.5661 116.454 83.5577C118.532 82.5493 121.035 83.417 122.043 85.4954Z" fill="#FF8409"/>
<path d="M116.277 87.3253C116.583 88.4823 117.473 90.3143 118.818 90.2055C120.93 90.0341 121.599 87.5973 121.001 86.3657C119.229 82.7121 115.813 85.565 116.277 87.3253Z" fill="#FFE943"/>
<path d="M143.228 93.9782C142.38 93.8804 141.939 95.0549 141.746 95.8009C141.419 97.0735 138.254 101.28 136.554 99.9735C136.223 99.7201 136.105 99.3294 135.991 98.9411C135.774 98.1957 135.54 97.1206 134.609 96.9728C134.585 96.9683 134.559 96.9676 134.535 96.9649C134.494 96.9293 134.437 96.9129 134.366 96.9354C134.311 96.9521 134.26 96.9717 134.211 96.9923C133.886 97.0754 133.619 97.3185 133.526 97.6316C133.399 97.8747 133.332 98.1598 133.315 98.4637C133.261 99.4668 134.015 100.453 133.722 101.448C133.377 102.621 131.717 103.18 130.651 103.354C129.375 103.562 128.183 103.222 126.955 102.925C126.353 102.78 125.231 102.356 124.761 102.949C124.402 103.404 124.746 104.608 126.374 105.071C128.936 105.801 132.239 105.182 136.487 103.162C140.971 101.03 142.688 99.3655 144.029 96.4278C144.463 95.479 144.147 94.0846 143.228 93.9782Z" fill="#FF8409"/>
<path d="M135.554 117.327C132.84 115.724 130.266 116.526 128.941 117.09C126.327 118.204 124.001 120.2 122.459 122.517C116.136 132.022 120.7 141.976 124.822 145.272C126.867 146.907 129.623 146.987 132.124 146.08C137.697 144.061 140.498 137.961 140.703 132.524C140.829 129.16 140.19 125.699 138.991 122.581C138.267 120.697 136.832 118.082 135.554 117.327Z" fill="#FFCC23"/>
<path d="M171.851 109.554C170.045 105.83 165.147 101.479 159.561 102.819C154.562 104.018 150.806 108.794 151.283 114.545C151.543 117.656 153.208 120.381 155.206 122.699C157.258 125.081 164.972 131.345 170.287 126.985C174.794 123.287 174.83 115.698 171.851 109.554Z" fill="#FFCC23"/>
<path d="M136.146 123.523C136.927 121.076 134.943 119.236 133.39 119.383C129.626 119.399 126.171 123.444 124.546 126.544C123.29 128.941 123.23 131.508 123.756 134.133C124.269 136.689 125.286 139.382 127.007 141.378C128.292 142.869 130.217 144 132.214 143.382C134.157 142.781 135.476 140.816 135.667 138.834C135.914 136.263 132.652 134.163 133.158 130.916C133.714 127.352 135.322 126.106 136.146 123.523Z" fill="#FFE943"/>
<path d="M162.47 106.397C159.777 105.605 156.384 108.3 154.939 110.54C153.204 113.232 154.343 117.74 155.666 120.236C157.927 124.502 163.738 125.513 166.598 123.421C169.495 121.302 165.892 119.889 164.236 116.079C162.921 113.055 165.923 107.757 162.47 106.397Z" fill="#FFE943"/>
<path d="M164.24 127.035C160.861 125.636 157.47 123.97 151.977 116.083C149.473 112.489 141.856 113.818 140.567 118.205C139.361 122.311 140.784 132.345 140.269 135.86C139.765 139.296 139.096 142.902 137.772 146.115C135.49 151.652 136.71 161.473 142.258 164.952C148.359 168.777 152.413 170.496 157.991 172.791C166.067 176.113 177.235 172.158 178.472 165.606C178.922 163.218 179.312 158.608 179.878 156.786C181.407 151.869 182.765 146.784 178.469 137.927C174.272 129.277 166.679 128.044 164.24 127.035Z" fill="#FFCC23"/>
<path d="M165.561 134.961C161.336 131.574 156.879 130.629 153.375 126.039C151.935 124.151 149.381 117.902 146.222 118.084C141.368 118.363 143.994 126.058 144.593 128.757C145.739 133.935 145.465 140.388 143.83 145.503C139.986 157.519 157.048 168.577 166.398 164.861C179.543 159.635 174.216 141.895 165.561 134.961Z" fill="#FFE943"/>
<path d="M159.381 171.047C156.4 168.718 153.041 166.363 149.021 165.938C137.488 164.718 135.538 176.58 137.201 182.24C138.167 185.528 140.04 188.548 142.33 191.108C144.368 193.385 146.969 195.014 150.286 195.416C156.457 196.163 162.811 192.757 165.242 187.108C166.39 184.438 166.622 181.497 165.748 178.914C164.674 175.739 162.031 173.119 159.381 171.047Z" fill="#FFCC23"/>
<path d="M196.467 148.534C194.772 146.756 192 145.05 189.455 145.31C186.625 145.304 184.108 147.112 182.253 149.165C180.136 151.506 178.539 154.319 177.58 157.343C175.514 163.859 176.79 169.755 179.02 174.353C181.407 179.272 187.07 181.407 191.13 178.694C192.405 177.842 193.517 176.763 194.544 175.621C198.499 171.228 200.787 165.271 200.534 159.286C200.369 155.417 199.194 151.393 196.467 148.534Z" fill="#FFCC23"/>
<path d="M157.989 180.741C156.365 180.648 151.457 180.002 150.637 173.33C150.097 168.94 146.067 168.935 142.549 171.895C140.305 173.782 140.562 176.718 140.847 178.953C141.499 184.069 144.853 188.623 150.001 190.818C152.323 191.808 155.032 191.988 157.8 190.648C163.031 188.116 163.656 181.064 157.989 180.741Z" fill="#FFE943"/>
<path d="M179.489 157.539C177.952 161.901 178.325 166.753 180.624 170.258C181.643 171.811 183.25 173.067 185.449 173.186C187.795 173.313 189.848 171.867 191.195 170.067C192.531 168.282 192.529 166.328 191.475 164.742C190.872 163.833 189.957 163.161 189.237 162.338C188.358 161.336 188.067 160.164 188.442 158.79C189.045 156.578 191.068 154.587 191.016 153.262C190.87 149.519 182.912 147.825 179.489 157.539Z" fill="#FFE943"/>
<path d="M134.033 88.1888C132.526 87.264 128.472 88.915 127.203 91.0729C126.249 92.6964 127.251 95.0744 129.238 95.4128C131.361 95.7742 133.943 94.8306 135.046 92.9198C135.973 91.3132 135.796 89.2702 134.033 88.1888Z" fill="#FFE943"/>
<path d="M117.944 74.8099C117.99 74.6295 118.042 74.4516 118.106 74.2766C118.138 74.1884 118.173 74.1023 118.21 74.0171C118.277 73.8646 118.404 73.7955 118.178 74.0719C118.396 73.806 118.556 73.4694 118.77 73.1928C118.903 73.0197 118.456 73.5093 118.728 73.2478C118.781 73.1959 118.833 73.1417 118.887 73.0904C119.022 72.9631 119.164 72.8423 119.313 72.7301C119.367 72.6897 119.643 72.4952 119.389 72.6704C119.13 72.8482 119.438 72.6476 119.476 72.627C119.639 72.5351 119.807 72.4557 119.978 72.3816C120.831 72.0143 121.242 70.829 120.799 70.0124C120.324 69.1356 119.345 68.7968 118.43 69.1908C116.585 69.9851 115.087 71.6956 114.593 73.6485C114.365 74.5469 114.716 75.6139 115.687 75.9045C116.543 76.1615 117.701 75.7707 117.944 74.8099Z" fill="white"/>
<path d="M124.367 69.7081C125.07 69.2802 125.81 68.921 126.584 68.6424C126.649 68.6199 126.964 68.4824 126.692 68.6034C126.422 68.7231 126.734 68.5925 126.802 68.5719C127.008 68.5109 127.216 68.4556 127.425 68.4052C127.826 68.3089 128.229 68.2328 128.637 68.1764C128.83 68.1489 129.025 68.1272 129.22 68.109C129.317 68.1009 129.415 68.0947 129.512 68.0867C129.734 68.0674 129.136 68.0975 129.464 68.0896C129.874 68.0796 130.284 68.0819 130.695 68.1087C131.105 68.1364 131.513 68.1828 131.919 68.2516C132.03 68.2704 132.152 68.3069 132.265 68.3153C132.17 68.308 131.941 68.2418 132.164 68.2966C132.393 68.3522 132.62 68.4106 132.845 68.4763C133.736 68.7346 134.817 68.331 135.103 67.3812C135.367 66.4995 134.96 65.4006 134.008 65.1248C130.293 64.0471 126.142 64.4905 122.819 66.5167C122.407 66.7691 122.081 67.0606 121.918 67.5313C121.775 67.9432 121.788 68.4973 121.998 68.8867C122.42 69.6655 123.519 70.2262 124.367 69.7081Z" fill="white"/>
<path d="M135.255 52.481C135.601 51.8335 135.99 51.2096 136.455 50.6412C136.504 50.5801 136.562 50.5225 136.607 50.4585C136.554 50.5346 136.376 50.71 136.539 50.5434C136.658 50.421 136.777 50.2976 136.903 50.1805C137.133 49.9648 137.378 49.7723 137.63 49.5823C137.828 49.4335 137.567 49.6244 137.503 49.6603C137.565 49.6253 137.625 49.5822 137.687 49.5453C137.81 49.4701 137.936 49.3986 138.064 49.3305C138.338 49.1849 138.621 49.0579 138.911 48.9479C138.996 48.915 139.089 48.8907 139.171 48.8531C139.1 48.8857 138.801 48.9659 139.04 48.8982C139.187 48.8571 139.333 48.8146 139.481 48.7777C139.826 48.6924 140.176 48.6269 140.528 48.5728C141.445 48.4321 142.161 47.419 141.95 46.5059C141.728 45.5456 140.866 44.934 139.883 45.0842C138.249 45.3339 136.732 45.9062 135.378 46.8532C134.067 47.7712 133.056 49.1066 132.309 50.5068C132.085 50.9255 131.948 51.3321 132.037 51.8157C132.117 52.2494 132.411 52.735 132.794 52.967C133.548 53.4262 134.788 53.3558 135.255 52.481Z" fill="white"/>
<path d="M144.223 48.9934C144.277 48.9983 144.786 49.0814 144.791 49.0708C144.547 49.0173 144.49 49.0045 144.619 49.0344C144.672 49.0466 144.725 49.0598 144.778 49.0748C144.848 49.0928 144.917 49.1122 144.986 49.1339C145.155 49.186 145.321 49.246 145.483 49.3148C145.531 49.3344 145.578 49.3563 145.626 49.3782C145.748 49.4344 145.69 49.4049 145.452 49.2898C145.506 49.3429 145.61 49.3757 145.676 49.414C145.822 49.5012 145.962 49.5943 146.099 49.6952C146.169 49.7457 146.233 49.7984 146.3 49.8512C146.544 50.042 146.069 49.6266 146.222 49.783C146.477 50.0444 146.719 50.3044 146.935 50.5997C147.484 51.3501 148.789 51.3847 149.438 50.762C150.181 50.0485 150.189 49.0626 149.6 48.2585C148.39 46.6052 146.514 45.6566 144.497 45.4557C143.572 45.3648 142.623 46.1454 142.592 47.0878C142.558 48.066 143.236 48.8958 144.223 48.9934Z" fill="white"/>
<path d="M95.0793 73.6461C95.0697 73.5582 95.0686 73.4628 95.0535 73.3752C95.1352 73.8614 95.066 73.6233 95.0663 73.465C95.067 73.2914 95.0758 73.1184 95.0914 72.9446C95.1079 72.7679 95.1367 72.5923 95.1618 72.4162C95.2126 72.059 95.0603 72.8262 95.1486 72.4741C95.173 72.3768 95.1964 72.28 95.2229 72.184C95.3225 71.8264 95.4499 71.4765 95.6019 71.1382C95.6784 70.9675 95.8214 70.8653 95.5767 71.1761C95.637 71.1 95.6744 70.9905 95.7224 70.9064C95.8152 70.7442 95.9139 70.5851 96.0186 70.4301C96.1228 70.2765 96.2329 70.1258 96.3494 69.9815C96.4749 69.8245 96.6226 69.7904 96.3079 70.0203C96.3725 69.9738 96.425 69.8956 96.4809 69.8392C96.6088 69.7092 96.7431 69.5855 96.883 69.4685C96.9592 69.4057 97.0364 69.3449 97.1153 69.2855C97.2733 69.1679 97.4438 69.1566 97.0427 69.3266C97.2031 69.2581 97.3521 69.1437 97.5112 69.0665C97.599 69.0251 97.688 68.9854 97.778 68.9488C98.0563 68.8372 97.759 68.9592 97.6472 68.983C97.8397 68.9423 98.0252 68.8792 98.2205 68.8477C98.3052 68.8336 98.4464 68.8471 98.5173 68.8103C98.4317 68.8144 98.3455 68.8176 98.2598 68.8217C98.3279 68.8191 98.3958 68.8177 98.4643 68.8185C99.3906 68.8177 100.335 68.1955 100.37 67.1879C100.401 66.2888 99.7285 65.2809 98.7383 65.2822C96.4164 65.2843 94.4424 66.4902 93.1287 68.3724C91.9345 70.0819 91.3559 72.2177 91.5907 74.2915C91.6948 75.2142 92.7695 75.919 93.6571 75.7133C94.6484 75.483 95.1916 74.6351 95.0793 73.6461Z" fill="white"/>
<path d="M160.751 117.223C160.682 117.127 160.609 116.989 160.526 116.904C160.596 116.976 160.709 117.192 160.586 116.987C160.476 116.802 160.365 116.618 160.265 116.426C160.181 116.265 160.102 116.1 160.029 115.934C159.96 115.774 159.806 115.181 159.945 115.767C159.873 115.467 159.78 115.179 159.734 114.873C159.712 114.733 159.707 114.592 159.688 114.452C159.772 115.047 159.696 114.57 159.704 114.391C159.708 114.264 159.718 114.138 159.733 114.012C159.744 113.924 159.827 113.484 159.752 113.84C159.679 114.186 159.779 113.753 159.807 113.659C159.84 113.553 159.876 113.448 159.916 113.345C159.954 113.247 159.999 113.151 160.04 113.053C160.144 112.805 159.848 113.408 159.934 113.268C159.96 113.226 159.981 113.18 160.005 113.137C160.106 112.96 160.219 112.791 160.34 112.628C160.9 111.886 160.642 110.646 159.854 110.168C158.997 109.645 157.991 109.86 157.393 110.654C156.644 111.649 156.19 112.949 156.165 114.195C156.121 116.195 156.933 117.97 158.086 119.564C158.63 120.317 159.943 120.346 160.589 119.726C161.336 119.01 161.335 118.031 160.751 117.223Z" fill="white"/>
<path d="M128.828 132.207C128.732 131.509 128.668 130.811 128.599 130.11C128.608 130.198 128.614 130.557 128.609 130.266C128.607 130.181 128.604 130.096 128.604 130.01C128.603 129.856 128.605 129.703 128.612 129.549C128.626 129.234 128.674 128.929 128.713 128.617C128.74 128.412 128.608 129.056 128.678 128.786C128.699 128.709 128.718 128.63 128.739 128.554C128.78 128.412 128.827 128.271 128.88 128.134C128.909 128.059 128.943 127.985 128.973 127.91C129.08 127.645 128.941 127.991 128.896 128.057C128.99 127.92 129.059 127.762 129.151 127.623C129.24 127.488 129.338 127.361 129.436 127.233C129.669 126.931 129.239 127.433 129.373 127.301C129.428 127.246 129.48 127.186 129.536 127.13C129.829 126.835 130.151 126.575 130.488 126.331C131.243 125.788 131.269 124.474 130.651 123.828C129.932 123.08 128.956 123.084 128.147 123.666C126.673 124.727 125.619 126.219 125.246 128.003C124.911 129.604 125.12 131.247 125.339 132.852C125.465 133.771 126.503 134.484 127.406 134.274C128.379 134.049 128.963 133.192 128.828 132.207Z" fill="white"/>
<path d="M145.37 174.635C144.858 176.298 145.147 178 145.735 179.6C146.296 181.124 147.247 182.571 148.403 183.71C149.062 184.359 150.181 184.569 150.907 183.872C151.559 183.247 151.777 182.066 151.069 181.369C150.821 181.125 150.585 180.87 150.364 180.602C150.258 180.473 150.156 180.342 150.056 180.208C150 180.134 149.947 180.058 149.893 179.982C149.859 179.933 149.709 179.709 149.867 179.95C150.037 180.208 149.854 179.925 149.818 179.868C149.769 179.789 149.721 179.71 149.674 179.629C149.591 179.486 149.51 179.341 149.433 179.193C149.274 178.887 149.129 178.573 149.002 178.251C148.977 178.185 148.951 178.118 148.926 178.052C148.825 177.777 148.919 178.017 148.954 178.153C148.915 178.002 148.864 177.855 148.825 177.704C148.745 177.398 148.685 177.086 148.648 176.772C148.641 176.708 148.636 176.644 148.629 176.58C148.59 176.243 148.624 176.904 148.636 176.709C148.644 176.572 148.635 176.433 148.643 176.295C148.652 176.147 148.674 176.001 148.694 175.853C148.724 175.619 148.67 176.007 148.653 176.043C148.685 175.975 148.7 175.869 148.722 175.797C148.995 174.91 148.567 173.821 147.627 173.54C146.733 173.272 145.662 173.688 145.37 174.635Z" fill="white"/>
<path d="M153.038 186.964C153.899 187.312 154.845 187.457 155.767 187.311C156.776 187.151 157.72 186.584 158.423 185.857C159.065 185.192 159.286 184.084 158.585 183.354C157.964 182.707 156.772 182.477 156.082 183.191C155.953 183.324 155.822 183.452 155.68 183.569C155.621 183.618 155.559 183.661 155.5 183.709C155.324 183.852 155.862 183.506 155.581 183.649C155.446 183.718 155.311 183.778 155.173 183.839C155.005 183.912 155.528 183.78 155.351 183.775C155.285 183.773 155.187 183.812 155.123 183.822C155.069 183.831 154.991 183.824 154.94 183.845C154.988 183.826 155.361 183.849 155.126 183.831C154.987 183.82 154.851 183.812 154.714 183.796C154.42 183.762 154.753 183.773 154.838 183.826C154.792 183.797 154.708 183.791 154.655 183.776C154.501 183.729 154.35 183.673 154.2 183.613C153.337 183.264 152.209 183.821 151.944 184.707C151.656 185.666 152.118 186.592 153.038 186.964Z" fill="white"/>
<path d="M133.147 92.3775C133.981 91.9726 134.425 90.8505 133.968 90.0078C133.511 89.1618 132.494 88.752 131.599 89.1862C130.765 89.5908 130.32 90.7125 130.778 91.5556C131.235 92.4016 132.253 92.8113 133.147 92.3775Z" fill="white"/>
<path d="M94.0963 80.4676C94.9313 80.0626 95.3745 78.9404 94.9179 78.0971C94.4595 77.2514 93.4427 76.8419 92.548 77.2759C91.7134 77.6808 91.2699 78.8021 91.7265 79.6453C92.1848 80.491 93.202 80.9015 94.0963 80.4676Z" fill="white"/>
<path d="M130.015 138.8C130.85 138.395 131.293 137.273 130.837 136.429C130.379 135.584 129.362 135.174 128.467 135.608C127.633 136.013 127.189 137.135 127.646 137.978C128.104 138.824 129.121 139.234 130.015 138.8Z" fill="white"/>
</g>
<defs>
<clipPath id="clip0_108_959">
<rect width="201" height="201" fill="white" transform="translate(0 87.7289) rotate(-25.8784)"/>
</clipPath>
</defs>
</svg>
