<svg width="151" height="280" viewBox="0 0 151 280" fill="none" xmlns="http://www.w3.org/2000/svg">
<path d="M52.4415 176.674C49.7964 185.1 46.0418 185.857 44.0231 195.164C40.8819 209.653 46.821 219.207 41.0643 223.05C39.278 224.244 34.5182 225.308 31.2474 225.021C23.3051 224.324 20.0563 218.542 10.6693 215.968C-8.56606 210.694 -11.7132 215.266 -18.2975 211.072C-24.9564 206.83 -19.4969 197.481 -15.1734 182.094C-11.6777 169.65 -13.8148 165.215 -12.1395 157.302C-7.58224 135.782 19.9176 113.353 37.1051 119.558C53.4626 125.463 58.3072 157.99 52.4415 176.674Z" fill="#D2D2D2"/>
<path d="M20.7408 144.967C14.0024 153.385 2.40417 155.343 -5.16373 149.34C-12.7329 143.336 -13.4053 131.646 -6.66634 123.227C0.0715924 114.81 11.6697 112.852 19.2376 118.855C26.8071 124.859 27.4787 136.549 20.7408 144.967Z" fill="#D2D2D2"/>
<path d="M34.3707 148.704C35.8736 159.382 44.8507 166.982 54.4223 165.678C63.9938 164.375 70.5357 154.663 69.033 143.985C67.5309 133.307 58.5529 125.708 48.9812 127.011C39.4099 128.314 32.8677 138.027 34.3707 148.704Z" fill="#D2D2D2"/>
<path d="M94.3899 76.9607C93.0498 67.4282 84.2029 60.7575 74.6302 62.0611C69.4864 62.7609 65.1805 65.624 62.5045 69.6002C59.4639 67.3788 55.9918 65.6695 52.169 64.6213C49.5032 63.8903 46.8201 63.5249 44.1689 63.4911C43.3331 59.723 40.1279 54.0329 36.856 51.4381C29.2879 45.4345 17.5237 47.3556 11.5078 54.8698C5.76277 62.0469 8.51884 73.8383 15.2032 79.9814C13.5408 82.7313 12.2194 85.7618 11.3237 89.0283C6.30858 107.318 16.4646 126.044 34.0076 130.855C51.5509 135.665 69.8372 124.738 74.8524 106.448C75.7458 103.19 76.1552 99.9196 76.1302 96.7147C77.2324 96.776 78.3549 96.7353 79.4879 96.5808C89.0595 95.277 95.7325 86.4939 94.3899 76.9607Z" fill="#D2D2D2"/>
<path d="M-29.358 193.425C-27.6556 205.526 -18.5154 214.28 -8.94377 212.976C0.627687 211.673 7.00675 200.807 5.30423 188.706C3.60125 176.604 -5.53829 167.851 -15.1104 169.154C-24.6821 170.458 -31.061 181.324 -29.358 193.425Z" fill="#D2D2D2"/>
<path d="M50.537 215.518C42.9001 225.058 30.5741 227.925 23.0058 221.922C15.4374 215.919 15.4931 203.319 23.1299 193.779C30.7668 184.238 43.0928 181.371 50.6612 187.374C58.2295 193.377 58.1738 205.978 50.537 215.518Z" fill="#D2D2D2"/>
<path d="M23.831 51.4275C18.257 51.8917 14.2908 57.0298 12.8965 62.4347C12.1314 65.4006 12.0898 68.5344 12.5108 71.5523C12.782 73.496 13.906 76.2708 16.3694 75.3375C18.8578 74.3957 19.926 71.3757 21.2631 69.3126C23.0005 66.631 25.7338 65.2519 28.6895 64.3417C31.4059 63.5044 34.7772 63.2953 37.0418 61.4154C38.3023 60.3695 40.0035 50.0825 23.831 51.4275Z" fill="#F2F2F2"/>
<path d="M73.0099 64.901C67.7097 65.4378 65.0912 71.014 63.3803 72.0076C53.2165 67.1492 40.9938 66.9239 30.7293 71.5473C28.1836 72.6944 25.6959 74.1981 23.9249 76.3887C21.9597 78.8197 21.2868 81.8681 20.7868 84.8813C20.5059 86.5694 20.2624 88.2665 19.8263 89.9235C19.3968 91.5594 18.7963 93.1434 18.2014 94.7251C17.1164 97.6096 16.0279 100.561 15.9873 103.682C15.9245 108.578 18.2604 113.368 21.8874 116.675C25.7412 120.188 36.4195 123.418 39.3271 123.964C44.494 124.932 50.4112 124.798 55.3223 122.612C60.5141 120.302 63.6617 114.974 66.3135 110.097C68.9282 105.29 69.5357 99.129 69.1662 93.6357C68.9709 90.7293 68.056 88.1109 67.2599 85.3345C67.0124 84.4699 65.9614 80.5853 67.5771 80.5124C68.9947 80.4487 70.1613 82.704 70.8591 83.6286C71.9027 85.0127 72.9467 86.3957 73.9891 87.7795C74.0662 87.8807 74.1982 87.9448 74.3197 87.8701C75.455 87.1712 74.7773 85.6789 74.3666 84.7378C73.6375 83.065 72.7206 81.4704 71.6406 79.9949C70.701 78.7118 69.0427 77.3357 69.0181 75.635C68.9907 73.6832 71.1324 72.6248 72.774 72.2616C76.4158 71.4544 80.2128 73.6761 82.0752 77.1477C83.9454 80.6329 82.4059 83.2582 81.0134 86.4574C80.7 87.1759 80.402 87.9037 80.1613 88.651C79.9698 89.2516 79.6369 90.069 79.8414 90.7084C80.2544 91.9907 81.845 92.4294 82.7488 92.1969C86.7115 91.1752 89.1383 86.3724 90.5504 83.8432C94.39 76.9612 88.3724 63.3454 73.0099 64.901Z" fill="#F2F2F2"/>
<path d="M63.1957 83.8816C65.6193 71.5771 35.8311 64.7199 34.669 78.5985C34.4358 81.382 37.4741 85.4645 41.4024 85.7213C48.526 86.1864 49.1724 80.125 55.524 85.3276C57.2246 86.7206 62.4954 87.433 63.1957 83.8816C62.9637 85.0615 63.4309 82.6896 63.1957 83.8816Z" fill="white"/>
<path d="M51.7304 104.685C51.2098 102.222 49.9317 100.078 47.8885 98.5694C43.6483 95.4383 37.6176 93.7796 32.5057 95.4769C31.2842 95.882 30.1203 96.4657 29.0872 97.232C28.1715 97.9107 26.9704 98.8976 26.5742 100.005C26.2546 100.9 26.8936 101.743 27.8488 101.441C28.5586 101.216 29.2593 100.786 29.902 100.421C30.2317 100.233 30.556 100.037 30.8759 99.8337C31.127 99.6729 32.1984 98.921 32.5404 99.3374C32.075 101.394 32.1799 103.797 33.8602 105.306C34.7229 106.081 35.8422 106.496 36.9362 106.827C38.2199 107.213 39.5323 107.583 40.8639 107.759C43.0605 108.048 45.5886 107.558 46.8481 105.56C47.1027 105.155 47.2588 104.717 47.3508 104.25C47.3986 104.01 47.4388 103.768 47.4956 103.528C47.6647 102.819 47.9365 102.437 48.6221 103.546C49.0284 104.12 49.247 104.965 49.5308 105.608C49.823 106.272 50.0557 107.069 50.4643 107.672C50.865 108.259 51.5411 108.227 51.8478 107.581C52.2354 106.761 51.9092 105.528 51.7304 104.685Z" fill="#D2D2D2"/>
<path d="M60.2292 95.789C59.5383 98.3086 56.9236 99.7881 54.3874 99.0927C51.8512 98.3973 50.3568 95.791 51.0477 93.2714C51.7386 90.7518 54.3533 89.2723 56.8895 89.9677C59.4257 90.6631 60.9201 93.2694 60.2292 95.789Z" fill="#D2D2D2"/>
<path d="M58.2385 93.694C57.5987 92.4671 56.3425 91.8444 55.1311 92.224C53.9255 92.602 53.4027 95.564 53.6839 96.6645C54.0234 97.9924 56.3088 97.9782 57.1917 97.2553C58.5914 96.1125 58.7977 94.7633 58.2385 93.694Z" fill="white"/>
<path d="M36.3616 89.2444C35.6707 91.764 33.055 93.2433 30.5195 92.5481C27.9838 91.8528 26.4886 89.2463 27.1795 86.7267C27.8704 84.2071 30.4859 82.7278 33.0216 83.423C35.5571 84.1183 37.0525 86.7249 36.3616 89.2444Z" fill="#D2D2D2"/>
<path d="M30.052 86.4937C29.4482 87.7053 28.8402 89.9271 30.0747 90.8396C32.0122 92.2707 34.4085 90.6991 34.8179 89.2061C36.0324 84.7769 30.9707 84.6505 30.052 86.4937Z" fill="white"/>
<path d="M48.1681 112.275C47.5146 111.559 46.2581 112.228 45.5353 112.718C44.3025 113.555 38.4442 114.768 37.9651 112.388C37.8708 111.925 38.0621 111.505 38.2549 111.09C38.6264 110.294 39.2297 109.205 38.5432 108.385C38.5254 108.362 38.5042 108.343 38.4851 108.322C38.4769 108.261 38.4401 108.205 38.3623 108.171C38.3034 108.145 38.245 108.123 38.187 108.104C37.8468 107.932 37.4355 107.939 37.1218 108.135C36.8313 108.247 36.5602 108.439 36.3184 108.685C35.522 109.497 35.4304 110.899 34.4353 111.526C33.2623 112.265 31.4214 111.5 30.3772 110.853C29.1286 110.077 28.3617 108.897 27.5315 107.727C27.1248 107.155 26.4804 105.956 25.6333 106.11C24.9859 106.228 24.3796 107.509 25.4281 109.118C27.0778 111.651 30.3705 113.592 35.522 115.048C40.9596 116.584 43.6755 116.451 47.0227 114.956C48.1042 114.474 48.8766 113.053 48.1681 112.275Z" fill="#D2D2D2"/>
<path d="M24.1258 126.391C22.9989 123.002 20.1939 121.761 18.6362 121.251C15.5632 120.246 12.0778 120.205 9.02268 121.024C-3.50572 124.38 -7.04218 136.25 -5.97573 142.13C-5.447 145.047 -3.14455 147.172 -0.322844 148.27C5.96278 150.715 12.9266 147.622 17.1692 143.153C19.7939 140.388 21.8347 136.969 23.1408 133.423C23.9298 131.282 24.6562 127.988 24.1258 126.391Z" fill="#F2F2F2"/>
<path d="M61.0429 146.89C62.2814 142.377 61.339 135.021 55.55 131.988C50.3697 129.274 43.5782 130.528 39.6855 135.773C37.5801 138.611 36.9685 142.171 36.9466 145.633C36.9229 149.19 38.8467 160.276 46.6631 160.54C53.2912 160.762 58.9991 154.337 61.0429 146.89Z" fill="#F2F2F2"/>
<path d="M19.9987 132.1C22.4974 130.603 22.1741 127.557 20.7341 126.523C17.496 123.725 11.5097 124.583 7.79831 126.005C4.92901 127.104 2.95661 129.241 1.44409 131.865C-0.028578 134.421 -1.17181 137.47 -1.19016 140.452C-1.20427 142.679 -0.401653 145.077 1.77224 146.044C3.8866 146.984 6.48665 146.298 8.13342 144.756C10.2687 142.756 9.04391 138.534 11.9064 136.153C15.0495 133.538 17.3598 133.68 19.9987 132.1Z" fill="white"/>
<path d="M55.3661 137.202C53.6504 134.517 48.728 134.274 45.8135 135.099C42.3129 136.091 39.9168 140.774 39.1836 143.884C37.9296 149.199 42.1523 154.397 46.1677 154.755C50.2351 155.118 48.2057 151.226 49.6363 146.75C50.7718 143.197 57.3077 140.936 55.3661 137.202Z" fill="white"/>
<path d="M41.4443 156.066C39.5955 152.353 37.9356 148.404 39.1289 137.598C39.6722 132.673 32.1508 128.115 27.7642 130.881C23.6589 133.471 17.3725 143.063 14.3017 145.665C11.2995 148.209 8.0288 150.775 4.49023 152.517C-1.60698 155.52 -7.9083 164.778 -5.75708 171.879C-3.39166 179.686 -1.20341 184.175 1.85959 190.291C6.29494 199.147 18.8231 204.125 24.7843 199.479C26.956 197.786 30.74 194.159 32.5874 193.033C37.5756 189.995 42.5437 186.687 45.4876 175.95C48.363 165.464 42.7789 158.745 41.4443 156.066Z" fill="#F2F2F2"/>
<path d="M36.6471 163.789C35.5596 157.755 32.4471 153.624 32.8794 147.105C33.0572 144.424 35.5444 137.206 32.7005 135.001C28.3329 131.614 24.8268 140.115 23.32 142.857C20.4286 148.114 15.3673 153.394 10.1389 156.521C-2.14373 163.864 4.20445 186.005 14.9957 189.829C30.1691 195.205 38.8751 176.147 36.6471 163.789Z" fill="white"/>
<path d="M4.35519 189.847C3.54368 185.641 2.4269 181.131 -0.699843 177.768C-9.66944 168.118 -20.2146 176.744 -23.0236 182.797C-24.6553 186.313 -25.3099 190.279 -25.2626 194.166C-25.2204 197.622 -24.2095 200.95 -21.6677 203.768C-16.9386 209.012 -8.94634 210.862 -2.63736 207.876C0.343775 206.464 2.74237 204.138 3.92634 201.289C5.38041 197.789 5.07677 193.587 4.35519 189.847Z" fill="#F2F2F2"/>
<path d="M52.9756 198.407C52.8527 195.63 51.754 192.11 49.3793 190.43C46.9579 188.311 43.4487 187.969 40.3235 188.328C36.7584 188.737 33.2856 189.936 30.2019 191.79C23.5569 195.786 20.2392 201.75 18.7109 207.324C17.0755 213.288 20.331 219.331 25.8397 220.058C27.5691 220.285 29.3305 220.199 31.0637 219.995C37.7397 219.214 44.1567 215.859 48.4166 210.583C51.1701 207.172 53.1728 202.874 52.9756 198.407Z" fill="#F2F2F2"/>
<path d="M-4.08907 197.048C-5.41179 195.756 -9.13336 191.541 -4.84537 185.258C-2.02357 181.123 -5.47345 178.109 -10.7019 177.998C-14.0363 177.926 -16.0129 180.613 -17.4404 182.725C-20.7088 187.562 -21.2416 193.937 -18.4728 199.647C-17.2233 202.223 -15.0366 204.399 -11.6633 205.327C-5.28666 207.082 0.525352 201.554 -4.08907 197.048Z" fill="white"/>
<path d="M31.6901 193.382C27.1104 195.942 23.8002 200.345 23.1481 205.04C22.8595 207.122 23.2967 209.39 25.0923 211.133C27.0074 212.993 29.849 213.297 32.3495 212.773C34.8294 212.253 36.2895 210.591 36.5735 208.456C36.7364 207.232 36.4547 205.979 36.4529 204.741C36.4504 203.233 37.0774 202.019 38.4269 201.131C40.5981 199.702 43.8211 199.52 44.7679 198.355C47.4421 195.064 41.8907 187.682 31.6901 193.382Z" fill="white"/>
<path d="M44.6204 100.488C44.021 98.5762 39.312 96.952 36.6104 97.8385C34.5785 98.5061 33.658 101.276 35.1072 103.047C36.6563 104.94 39.5748 106.066 41.9495 105.266C43.9454 104.592 45.3224 102.724 44.6204 100.488Z" fill="white"/>
<path d="M40.8426 77.1002C41.017 76.9813 41.1948 76.8691 41.3808 76.7682C41.4742 76.7173 41.5684 76.67 41.6642 76.6255C41.8355 76.5457 41.9959 76.5817 41.5952 76.6477C41.9809 76.5844 42.3703 76.4183 42.76 76.3424C43.0041 76.2952 42.2547 76.3774 42.6828 76.3578C42.7676 76.3536 42.852 76.346 42.9371 76.343C43.1483 76.3358 43.3603 76.3392 43.5718 76.3549C43.6483 76.3611 44.0303 76.4018 43.6815 76.361C43.3262 76.3184 43.7409 76.3784 43.7889 76.3893C43.9969 76.4327 44.2004 76.4907 44.4022 76.5552C45.4078 76.88 46.6466 76.1794 46.8782 75.1546C47.127 74.0546 46.5413 73.0353 45.4628 72.687C43.2878 71.9844 40.7246 72.3196 38.8402 73.6106C37.973 74.2042 37.4752 75.373 38.0903 76.3455C38.6312 77.203 39.916 77.7357 40.8426 77.1002Z" fill="#DDFDFF"/>
<path d="M50.1634 77.5609C51.0856 77.7219 51.9887 77.9696 52.8604 78.3107C52.9322 78.3396 53.305 78.4579 52.9815 78.3577C52.6612 78.2584 53.0261 78.3803 53.0991 78.4129C53.3216 78.5152 53.5413 78.6237 53.7584 78.7371C54.1735 78.9542 54.5762 79.1909 54.9677 79.4474C55.1539 79.5684 55.3372 79.6956 55.5175 79.8254C55.6069 79.8912 55.6956 79.9591 55.785 80.0249C55.9889 80.1738 55.4543 79.7529 55.7411 79.9911C56.1004 80.2893 56.4501 80.5974 56.7822 80.9272C57.1122 81.2564 57.4276 81.601 57.7235 81.9622C57.8048 82.0614 57.8822 82.1835 57.9726 82.2749C57.8967 82.1979 57.75 81.9706 57.9005 82.184C58.0544 82.4017 58.2056 82.6211 58.3496 82.8453C58.9198 83.7303 60.148 84.1945 61.103 83.6003C61.9888 83.0479 62.4622 81.8099 61.853 80.8649C59.4762 77.1746 55.5872 74.4512 51.2242 73.692C50.6818 73.5984 50.1851 73.6034 49.6932 73.8816C49.2627 74.125 48.8586 74.6052 48.7478 75.0934C48.5262 76.07 49.049 77.3678 50.1634 77.5609Z" fill="#DDFDFF"/>
<path d="M72.3806 71.0491C73.1613 70.757 73.9612 70.5171 74.7848 70.3812C74.8722 70.3657 74.9656 70.3604 75.052 70.3397C74.9495 70.3647 74.6657 70.3807 74.9296 70.3604C75.1237 70.3458 75.3181 70.3299 75.5134 70.3242C75.8718 70.3126 76.2256 70.3319 76.5835 70.3584C76.8645 70.3799 76.4983 70.3474 76.4162 70.3298C76.496 70.3468 76.5795 70.3548 76.66 70.3695C76.8223 70.398 76.9834 70.431 77.1444 70.469C77.4876 70.5495 77.8256 70.6533 78.1559 70.776C78.253 70.8112 78.3514 70.8604 78.4501 70.89C78.3641 70.8639 78.0487 70.7095 78.3038 70.8301C78.4608 70.9053 78.6173 70.9778 78.7719 71.0572C79.1311 71.2421 79.4797 71.4476 79.8226 71.6651C80.7135 72.2303 82.085 71.9039 82.587 70.97C83.1148 69.9876 82.8338 68.8241 81.8795 68.218C80.2926 67.2101 78.5644 66.5634 76.6956 66.3571C74.8856 66.1583 73.02 66.5381 71.3324 67.1704C70.8273 67.3591 70.4064 67.6029 70.1203 68.08C69.8649 68.5087 69.7535 69.1412 69.908 69.6242C70.2106 70.5776 71.3258 71.4438 72.3806 71.0491Z" fill="#DDFDFF"/>
<path d="M82.6735 74.7816C82.7164 74.8262 83.0899 75.2766 83.1023 75.2715C82.9334 75.0439 82.8941 74.9906 82.982 75.112C83.0184 75.1621 83.0546 75.2134 83.0881 75.2652C83.1345 75.3326 83.1794 75.4009 83.2226 75.4712C83.3278 75.6411 83.4254 75.8163 83.5132 75.9961C83.5393 76.0483 83.5636 76.1024 83.588 76.1565C83.6503 76.2953 83.6226 76.2268 83.5047 75.9512C83.5118 76.0371 83.576 76.1423 83.6037 76.2241C83.6637 76.4072 83.7147 76.5915 83.7563 76.7793C83.778 76.8741 83.7941 76.9673 83.8121 77.0623C83.8781 77.4064 83.782 76.6988 83.7962 76.946C83.819 77.3586 83.8314 77.7598 83.7955 78.1721C83.7051 79.2203 84.7972 80.2242 85.8193 80.1796C86.9901 80.1284 87.7338 79.2958 87.8312 78.1728C88.031 75.8638 87.133 73.6565 85.5548 71.9791C84.8302 71.2111 83.4335 71.1663 82.7013 71.9437C81.9405 72.7497 81.9008 73.9615 82.6735 74.7816Z" fill="#DDFDFF"/>
<path d="M22.1211 59.0356C22.1786 58.9538 22.2491 58.8718 22.3017 58.7861C22.0079 59.2604 22.1268 59.0063 22.2454 58.872C22.3759 58.7249 22.5129 58.5845 22.6563 58.4484C22.8026 58.3106 22.9586 58.1828 23.1119 58.0518C23.4226 57.7861 22.7182 58.3245 23.0572 58.0912C23.1509 58.0267 23.2434 57.9618 23.3379 57.9C23.6908 57.6706 24.0617 57.4683 24.445 57.2941C24.6382 57.2062 24.8373 57.2262 24.3951 57.3076C24.5037 57.288 24.6176 57.2228 24.7217 57.1871C24.9225 57.1186 25.1261 57.057 25.3318 57.0035C25.536 56.9507 25.743 56.9049 25.9509 56.8692C26.1758 56.8296 26.3279 56.9108 25.8863 56.8713C25.9764 56.8799 26.0799 56.8527 26.17 56.8465C26.3769 56.8316 26.5845 56.8267 26.7919 56.8317C26.9041 56.8353 27.0158 56.8412 27.1279 56.8496C27.3512 56.8676 27.5057 56.9854 27.0348 56.8303C27.2236 56.892 27.4368 56.9059 27.6309 56.9592C27.7371 56.9895 27.8431 57.0223 27.9476 57.0584C28.2695 57.1713 27.9235 57.053 27.8099 56.9897C28.0053 57.0989 28.2114 57.1838 28.4023 57.3029C28.4855 57.3542 28.5963 57.471 28.6846 57.4928C28.6082 57.4323 28.532 57.3706 28.4555 57.3101C28.5157 57.3587 28.575 57.4083 28.6332 57.4601C29.4274 58.1512 30.7024 58.3278 31.4857 57.4972C32.1847 56.7559 32.3628 55.3972 31.5134 54.6589C29.5223 52.9267 26.9286 52.4774 24.3949 53.0962C22.0927 53.6575 19.9992 55.0408 18.649 56.9789C18.048 57.8409 18.4416 59.2426 19.356 59.7307C20.3777 60.2752 21.4774 59.9602 22.1211 59.0356Z" fill="#DDFDFF"/>
<path d="M45.7949 145.12C45.8071 144.986 45.8472 144.815 45.8408 144.681C45.8463 144.794 45.7811 145.062 45.8296 144.796C45.8732 144.557 45.9167 144.317 45.9741 144.08C46.023 143.88 46.0784 143.681 46.1407 143.485C46.2014 143.298 46.5121 142.678 46.1932 143.281C46.3559 142.972 46.4913 142.658 46.6809 142.362C46.7671 142.228 46.8681 142.104 46.9565 141.97C46.5833 142.539 46.8752 142.078 47.0157 141.931C47.1139 141.826 47.2176 141.726 47.3244 141.631C47.3996 141.564 47.7991 141.252 47.4685 141.498C47.1483 141.738 47.5579 141.444 47.652 141.386C47.7591 141.32 47.8686 141.258 47.9795 141.2C48.0862 141.145 48.196 141.098 48.3046 141.045C48.5794 140.912 47.8745 141.202 48.0532 141.148C48.1069 141.131 48.159 141.109 48.2116 141.09C48.4308 141.014 48.6541 140.955 48.8801 140.907C49.9149 140.695 50.6207 139.448 50.3039 138.453C49.9598 137.369 48.9382 136.8 47.8314 137.028C46.4447 137.315 45.0843 138.081 44.1297 139.121C42.5958 140.789 41.9641 142.904 41.7597 145.119C41.6625 146.167 42.7655 147.171 43.7831 147.127C44.9593 147.076 45.6908 146.243 45.7949 145.12Z" fill="#DDFDFF"/>
<path d="M7.2311 134.016C7.67103 133.351 8.13797 132.71 8.60343 132.063C8.54524 132.144 8.28225 132.454 8.49538 132.203C8.55771 132.129 8.61861 132.055 8.68216 131.982C8.79629 131.85 8.91267 131.721 9.03416 131.595C9.28121 131.338 9.55114 131.114 9.81809 130.879C9.99436 130.724 9.3996 131.174 9.66139 130.996C9.73716 130.946 9.81189 130.893 9.88798 130.844C10.0289 130.754 10.1742 130.67 10.3222 130.593C10.4033 130.551 10.4877 130.513 10.5701 130.472C10.8596 130.327 10.4814 130.517 10.3936 130.539C10.5766 130.493 10.7542 130.411 10.9375 130.361C11.1142 130.313 11.2935 130.278 11.4727 130.242C11.8982 130.159 11.154 130.265 11.3674 130.253C11.4569 130.247 11.5458 130.235 11.636 130.229C12.107 130.198 12.5785 130.217 13.0491 130.262C14.1024 130.364 15.1079 129.266 15.0609 128.256C15.005 127.083 14.1656 126.357 13.0365 126.248C10.98 126.048 8.96068 126.53 7.30706 127.767C5.82177 128.879 4.7712 130.431 3.75939 131.958C3.17919 132.834 3.53503 134.215 4.46571 134.711C5.46811 135.246 6.60937 134.954 7.2311 134.016Z" fill="#DDFDFF"/>
<path d="M35.7787 194.543C33.5747 194.532 31.588 195.662 29.9899 197.081C28.4112 198.483 27.1051 200.281 26.1602 202.16C25.633 203.209 25.1731 204.313 24.8882 205.454C24.6343 206.471 25.223 207.676 26.3038 207.922C27.3505 208.16 28.5083 207.612 28.7805 206.521C28.881 206.12 29.0026 205.724 29.1433 205.334C29.2091 205.154 29.2628 204.933 29.3623 204.769C29.384 204.735 29.1596 205.23 29.2525 205.028C29.2741 204.98 29.2942 204.932 29.315 204.885C29.3648 204.773 29.416 204.662 29.4689 204.552C29.8645 203.717 30.3315 202.916 30.8591 202.156C30.9844 201.975 31.1133 201.796 31.2467 201.62C31.2804 201.576 31.3147 201.533 31.3468 201.489C31.4765 201.313 31.1766 201.701 31.1937 201.68C31.2768 201.582 31.3549 201.481 31.4365 201.383C31.738 201.024 32.0558 200.679 32.3911 200.352C32.7028 200.047 33.0324 199.766 33.3721 199.493C33.6285 199.286 32.9529 199.784 33.3256 199.53C33.4085 199.474 33.4893 199.417 33.5729 199.362C33.7497 199.246 33.9299 199.136 34.1157 199.034C34.2497 198.96 34.5541 198.733 34.7096 198.742C34.749 198.744 34.2538 198.914 34.4461 198.849C34.5036 198.829 34.5613 198.805 34.6181 198.785C34.7181 198.749 34.8182 198.717 34.9201 198.687C35.1344 198.624 35.3522 198.589 35.5701 198.542C35.7353 198.506 35.2696 198.593 35.2685 198.581C35.2691 198.579 35.4287 198.566 35.4427 198.566C35.5585 198.558 35.6736 198.556 35.7897 198.557C36.8455 198.562 37.8526 197.63 37.8016 196.55C37.7507 195.46 36.909 194.548 35.7787 194.543Z" fill="#DDFDFF"/>
<path d="M40.7273 103.386C41.7453 103.665 42.9646 103.043 43.2037 101.986C43.4447 100.925 42.8795 99.8173 41.788 99.518C40.7709 99.2391 39.5509 99.8604 39.3124 100.919C39.0714 101.979 39.6366 103.087 40.7273 103.386Z" fill="#DDFDFF"/>
<path d="M16.1754 64.0997C17.1938 64.379 18.4129 63.7561 18.6525 62.6985C18.8923 61.6375 18.3274 60.5302 17.2363 60.231C16.2184 59.9519 14.9997 60.5737 14.7601 61.6312C14.5201 62.6922 15.0847 63.8007 16.1754 64.0997Z" fill="#DDFDFF"/>
<path d="M3.31618 140.506C4.33401 140.786 5.5533 140.163 5.79325 139.106C6.03279 138.045 5.46794 136.937 4.37696 136.638C3.35914 136.359 2.14002 136.981 1.9007 138.038C1.66035 139.099 2.2252 140.207 3.31618 140.506Z" fill="#DDFDFF"/>
</svg>
