<svg width="390" height="281" viewBox="0 0 390 281" fill="none" xmlns="http://www.w3.org/2000/svg">
<path d="M52.4415 176.674C49.7964 185.1 46.0418 185.857 44.0231 195.164C40.8819 209.653 46.821 219.207 41.0643 223.05C39.278 224.244 34.5182 225.308 31.2474 225.021C23.3051 224.324 20.0563 218.542 10.6693 215.968C-8.56606 210.694 -11.7132 215.266 -18.2975 211.072C-24.9564 206.83 -19.4969 197.481 -15.1734 182.094C-11.6777 169.65 -13.8148 165.215 -12.1395 157.302C-7.58224 135.782 19.9176 113.353 37.1051 119.558C53.4626 125.463 58.3072 157.99 52.4415 176.674Z" fill="#D2D2D2"/>
<path d="M20.7408 144.967C14.0024 153.385 2.40417 155.343 -5.16373 149.34C-12.7329 143.336 -13.4053 131.646 -6.66634 123.227C0.0715924 114.81 11.6697 112.852 19.2376 118.855C26.8071 124.859 27.4787 136.549 20.7408 144.967Z" fill="#D2D2D2"/>
<path d="M34.3707 148.704C35.8736 159.382 44.8507 166.982 54.4223 165.678C63.9938 164.375 70.5357 154.663 69.033 143.985C67.5309 133.307 58.5529 125.708 48.9812 127.011C39.4099 128.314 32.8677 138.027 34.3707 148.704Z" fill="#D2D2D2"/>
<path d="M94.3899 76.9607C93.0498 67.4282 84.2029 60.7575 74.6302 62.0611C69.4864 62.7609 65.1805 65.624 62.5045 69.6002C59.4639 67.3788 55.9918 65.6695 52.169 64.6213C49.5032 63.8903 46.8201 63.5249 44.1689 63.4911C43.3331 59.723 40.1279 54.0329 36.856 51.4381C29.2879 45.4345 17.5237 47.3556 11.5078 54.8698C5.76277 62.0469 8.51884 73.8383 15.2032 79.9814C13.5408 82.7313 12.2194 85.7618 11.3237 89.0283C6.30858 107.318 16.4646 126.044 34.0076 130.855C51.5509 135.665 69.8372 124.738 74.8524 106.448C75.7458 103.19 76.1552 99.9196 76.1302 96.7147C77.2324 96.776 78.3549 96.7353 79.4879 96.5808C89.0595 95.277 95.7325 86.4939 94.3899 76.9607Z" fill="#D2D2D2"/>
<path d="M-29.358 193.425C-27.6556 205.526 -18.5154 214.28 -8.94377 212.976C0.627687 211.673 7.00675 200.807 5.30423 188.706C3.60125 176.604 -5.53829 167.851 -15.1104 169.154C-24.6821 170.458 -31.061 181.324 -29.358 193.425Z" fill="#D2D2D2"/>
<path d="M50.537 215.518C42.9001 225.058 30.5741 227.925 23.0058 221.922C15.4374 215.919 15.4931 203.319 23.1299 193.779C30.7668 184.238 43.0928 181.371 50.6612 187.374C58.2295 193.377 58.1738 205.978 50.537 215.518Z" fill="#D2D2D2"/>
<path d="M23.831 51.4275C18.257 51.8917 14.2908 57.0298 12.8965 62.4347C12.1314 65.4006 12.0898 68.5344 12.5108 71.5523C12.782 73.496 13.906 76.2708 16.3694 75.3375C18.8578 74.3957 19.926 71.3757 21.2631 69.3126C23.0005 66.631 25.7338 65.2519 28.6895 64.3417C31.4059 63.5044 34.7772 63.2953 37.0418 61.4154C38.3023 60.3695 40.0035 50.0825 23.831 51.4275Z" fill="#F2F2F2"/>
<path d="M73.0099 64.901C67.7097 65.4378 65.0912 71.014 63.3803 72.0076C53.2165 67.1492 40.9938 66.9239 30.7293 71.5473C28.1836 72.6944 25.6959 74.1981 23.9249 76.3887C21.9597 78.8197 21.2868 81.8681 20.7868 84.8813C20.5059 86.5694 20.2624 88.2665 19.8263 89.9235C19.3968 91.5594 18.7963 93.1434 18.2014 94.7251C17.1164 97.6096 16.0279 100.561 15.9873 103.682C15.9245 108.578 18.2604 113.368 21.8874 116.675C25.7412 120.188 36.4195 123.418 39.3271 123.964C44.494 124.932 50.4112 124.798 55.3223 122.612C60.5141 120.302 63.6617 114.974 66.3135 110.097C68.9282 105.29 69.5357 99.129 69.1662 93.6357C68.9709 90.7293 68.056 88.1109 67.2599 85.3345C67.0124 84.4699 65.9614 80.5853 67.5771 80.5124C68.9947 80.4487 70.1613 82.704 70.8591 83.6286C71.9027 85.0127 72.9467 86.3957 73.9891 87.7795C74.0662 87.8807 74.1982 87.9448 74.3197 87.8701C75.455 87.1712 74.7773 85.6789 74.3666 84.7378C73.6375 83.065 72.7206 81.4704 71.6406 79.9949C70.701 78.7118 69.0427 77.3357 69.0181 75.635C68.9907 73.6832 71.1324 72.6248 72.774 72.2616C76.4158 71.4544 80.2128 73.6761 82.0752 77.1477C83.9454 80.6329 82.4059 83.2582 81.0134 86.4574C80.7 87.1759 80.402 87.9037 80.1613 88.651C79.9698 89.2516 79.6369 90.069 79.8414 90.7084C80.2544 91.9907 81.845 92.4294 82.7488 92.1969C86.7115 91.1752 89.1383 86.3724 90.5504 83.8432C94.39 76.9612 88.3724 63.3454 73.0099 64.901Z" fill="#F2F2F2"/>
<path d="M63.1957 83.8816C65.6193 71.5771 35.8311 64.7199 34.669 78.5985C34.4358 81.382 37.4741 85.4645 41.4024 85.7213C48.526 86.1864 49.1724 80.125 55.524 85.3276C57.2246 86.7206 62.4954 87.433 63.1957 83.8816C62.9637 85.0615 63.4309 82.6896 63.1957 83.8816Z" fill="white"/>
<path d="M51.7304 104.685C51.2098 102.222 49.9317 100.078 47.8885 98.5694C43.6483 95.4383 37.6176 93.7796 32.5057 95.4769C31.2842 95.882 30.1203 96.4657 29.0872 97.232C28.1715 97.9107 26.9704 98.8976 26.5742 100.005C26.2546 100.9 26.8936 101.743 27.8488 101.441C28.5586 101.216 29.2593 100.786 29.902 100.421C30.2317 100.233 30.556 100.037 30.8759 99.8337C31.127 99.6729 32.1984 98.921 32.5404 99.3374C32.075 101.394 32.1799 103.797 33.8602 105.306C34.7229 106.081 35.8422 106.496 36.9362 106.827C38.2199 107.213 39.5323 107.583 40.8639 107.759C43.0605 108.048 45.5886 107.558 46.8481 105.56C47.1027 105.155 47.2588 104.717 47.3508 104.25C47.3986 104.01 47.4388 103.768 47.4956 103.528C47.6647 102.819 47.9365 102.437 48.6221 103.546C49.0284 104.12 49.247 104.965 49.5308 105.608C49.823 106.272 50.0557 107.069 50.4643 107.672C50.865 108.259 51.5411 108.227 51.8478 107.581C52.2354 106.761 51.9092 105.528 51.7304 104.685Z" fill="#D2D2D2"/>
<path d="M60.2292 95.789C59.5383 98.3086 56.9236 99.7881 54.3874 99.0927C51.8512 98.3973 50.3568 95.791 51.0477 93.2714C51.7386 90.7518 54.3533 89.2723 56.8895 89.9677C59.4257 90.6631 60.9201 93.2694 60.2292 95.789Z" fill="#D2D2D2"/>
<path d="M58.2385 93.694C57.5987 92.4671 56.3425 91.8444 55.1311 92.224C53.9255 92.602 53.4027 95.564 53.6839 96.6645C54.0234 97.9924 56.3088 97.9782 57.1917 97.2553C58.5914 96.1125 58.7977 94.7633 58.2385 93.694Z" fill="white"/>
<path d="M36.3616 89.2444C35.6707 91.764 33.055 93.2433 30.5195 92.5481C27.9838 91.8528 26.4886 89.2463 27.1795 86.7267C27.8704 84.2071 30.4859 82.7278 33.0216 83.423C35.5571 84.1183 37.0525 86.7249 36.3616 89.2444Z" fill="#D2D2D2"/>
<path d="M30.052 86.4937C29.4482 87.7053 28.8402 89.9271 30.0747 90.8396C32.0122 92.2707 34.4085 90.6991 34.8179 89.2061C36.0324 84.7769 30.9707 84.6505 30.052 86.4937Z" fill="white"/>
<path d="M48.1681 112.275C47.5146 111.559 46.2581 112.228 45.5353 112.718C44.3025 113.555 38.4442 114.768 37.9651 112.388C37.8708 111.925 38.0621 111.505 38.2549 111.09C38.6264 110.294 39.2297 109.205 38.5432 108.385C38.5254 108.362 38.5042 108.343 38.4851 108.322C38.4769 108.261 38.4401 108.205 38.3623 108.171C38.3034 108.145 38.245 108.123 38.187 108.104C37.8468 107.932 37.4355 107.939 37.1218 108.135C36.8313 108.247 36.5602 108.439 36.3184 108.685C35.522 109.497 35.4304 110.899 34.4353 111.526C33.2623 112.265 31.4214 111.5 30.3772 110.853C29.1286 110.077 28.3617 108.897 27.5315 107.727C27.1248 107.155 26.4804 105.956 25.6333 106.11C24.9859 106.228 24.3796 107.509 25.4281 109.118C27.0778 111.651 30.3705 113.592 35.522 115.048C40.9596 116.584 43.6755 116.451 47.0227 114.956C48.1042 114.474 48.8766 113.053 48.1681 112.275Z" fill="#D2D2D2"/>
<path d="M24.1258 126.391C22.9989 123.002 20.1939 121.761 18.6362 121.251C15.5632 120.246 12.0778 120.205 9.02268 121.024C-3.50572 124.38 -7.04218 136.25 -5.97573 142.13C-5.447 145.047 -3.14455 147.172 -0.322844 148.27C5.96278 150.715 12.9266 147.622 17.1692 143.153C19.7939 140.388 21.8347 136.969 23.1408 133.423C23.9298 131.282 24.6562 127.988 24.1258 126.391Z" fill="#F2F2F2"/>
<path d="M61.0429 146.89C62.2814 142.377 61.339 135.021 55.55 131.988C50.3697 129.274 43.5782 130.528 39.6855 135.773C37.5801 138.611 36.9685 142.171 36.9466 145.633C36.9229 149.19 38.8467 160.276 46.6631 160.54C53.2912 160.762 58.9991 154.337 61.0429 146.89Z" fill="#F2F2F2"/>
<path d="M19.9987 132.1C22.4974 130.603 22.1741 127.557 20.7341 126.523C17.496 123.725 11.5097 124.583 7.79831 126.005C4.92901 127.104 2.95661 129.241 1.44409 131.865C-0.028578 134.421 -1.17181 137.47 -1.19016 140.452C-1.20427 142.679 -0.401653 145.077 1.77224 146.044C3.8866 146.984 6.48665 146.298 8.13342 144.756C10.2687 142.756 9.04391 138.534 11.9064 136.153C15.0495 133.538 17.3598 133.68 19.9987 132.1Z" fill="white"/>
<path d="M55.3661 137.202C53.6504 134.517 48.728 134.274 45.8135 135.099C42.3129 136.091 39.9168 140.774 39.1836 143.884C37.9296 149.199 42.1523 154.397 46.1677 154.755C50.2351 155.118 48.2057 151.226 49.6363 146.75C50.7718 143.197 57.3077 140.936 55.3661 137.202Z" fill="white"/>
<path d="M41.4443 156.066C39.5955 152.353 37.9356 148.404 39.1289 137.598C39.6722 132.673 32.1508 128.115 27.7642 130.881C23.6589 133.471 17.3725 143.063 14.3017 145.665C11.2995 148.209 8.0288 150.775 4.49023 152.517C-1.60698 155.52 -7.9083 164.778 -5.75708 171.879C-3.39166 179.686 -1.20341 184.175 1.85959 190.291C6.29494 199.147 18.8231 204.125 24.7843 199.479C26.956 197.786 30.74 194.159 32.5874 193.033C37.5756 189.995 42.5437 186.687 45.4876 175.95C48.363 165.464 42.7789 158.745 41.4443 156.066Z" fill="#F2F2F2"/>
<path d="M36.6471 163.789C35.5596 157.755 32.4471 153.624 32.8794 147.105C33.0572 144.424 35.5444 137.206 32.7005 135.001C28.3329 131.614 24.8268 140.115 23.32 142.857C20.4286 148.114 15.3673 153.394 10.1389 156.521C-2.14373 163.864 4.20445 186.005 14.9957 189.829C30.1691 195.205 38.8751 176.147 36.6471 163.789Z" fill="white"/>
<path d="M4.35519 189.847C3.54368 185.641 2.4269 181.131 -0.699843 177.768C-9.66944 168.118 -20.2146 176.744 -23.0236 182.797C-24.6553 186.313 -25.3099 190.279 -25.2626 194.166C-25.2204 197.622 -24.2095 200.95 -21.6677 203.768C-16.9386 209.012 -8.94634 210.862 -2.63736 207.876C0.343775 206.464 2.74237 204.138 3.92634 201.289C5.38041 197.789 5.07677 193.587 4.35519 189.847Z" fill="#F2F2F2"/>
<path d="M52.9756 198.407C52.8527 195.63 51.754 192.11 49.3793 190.43C46.9579 188.311 43.4487 187.969 40.3235 188.328C36.7584 188.737 33.2856 189.936 30.2019 191.79C23.5569 195.786 20.2392 201.75 18.7109 207.324C17.0755 213.288 20.331 219.331 25.8397 220.058C27.5691 220.285 29.3305 220.199 31.0637 219.995C37.7397 219.214 44.1567 215.859 48.4166 210.583C51.1701 207.172 53.1728 202.874 52.9756 198.407Z" fill="#F2F2F2"/>
<path d="M-4.08907 197.048C-5.41179 195.756 -9.13336 191.541 -4.84537 185.258C-2.02357 181.123 -5.47345 178.109 -10.7019 177.998C-14.0363 177.926 -16.0129 180.613 -17.4404 182.725C-20.7088 187.562 -21.2416 193.937 -18.4728 199.647C-17.2233 202.223 -15.0366 204.399 -11.6633 205.327C-5.28666 207.082 0.525352 201.554 -4.08907 197.048Z" fill="white"/>
<path d="M31.6901 193.382C27.1104 195.942 23.8002 200.345 23.1481 205.04C22.8595 207.122 23.2967 209.39 25.0923 211.133C27.0074 212.993 29.849 213.297 32.3495 212.773C34.8294 212.253 36.2895 210.591 36.5735 208.456C36.7364 207.232 36.4547 205.979 36.4529 204.741C36.4504 203.233 37.0774 202.019 38.4269 201.131C40.5981 199.702 43.8211 199.52 44.7679 198.355C47.4421 195.064 41.8907 187.682 31.6901 193.382Z" fill="white"/>
<path d="M44.6204 100.488C44.021 98.5762 39.312 96.952 36.6104 97.8385C34.5785 98.5061 33.658 101.276 35.1072 103.047C36.6563 104.94 39.5748 106.066 41.9495 105.266C43.9454 104.592 45.3224 102.724 44.6204 100.488Z" fill="white"/>
<path d="M40.8426 77.1002C41.017 76.9813 41.1948 76.8691 41.3808 76.7682C41.4742 76.7173 41.5684 76.67 41.6642 76.6255C41.8355 76.5457 41.9959 76.5817 41.5952 76.6477C41.9809 76.5844 42.3703 76.4183 42.76 76.3424C43.0041 76.2952 42.2547 76.3774 42.6828 76.3578C42.7676 76.3536 42.852 76.346 42.9371 76.343C43.1483 76.3358 43.3603 76.3392 43.5718 76.3549C43.6483 76.3611 44.0303 76.4018 43.6815 76.361C43.3262 76.3184 43.7409 76.3784 43.7889 76.3893C43.9969 76.4327 44.2004 76.4907 44.4022 76.5552C45.4078 76.88 46.6466 76.1794 46.8782 75.1546C47.127 74.0546 46.5413 73.0353 45.4628 72.687C43.2878 71.9844 40.7246 72.3196 38.8402 73.6106C37.973 74.2042 37.4752 75.373 38.0903 76.3455C38.6312 77.203 39.916 77.7357 40.8426 77.1002Z" fill="#DDFDFF"/>
<path d="M50.1634 77.5609C51.0856 77.7219 51.9887 77.9696 52.8604 78.3107C52.9322 78.3396 53.305 78.4579 52.9815 78.3577C52.6612 78.2584 53.0261 78.3803 53.0991 78.4129C53.3216 78.5152 53.5413 78.6237 53.7584 78.7371C54.1735 78.9542 54.5762 79.1909 54.9677 79.4474C55.1539 79.5684 55.3372 79.6956 55.5175 79.8254C55.6069 79.8912 55.6956 79.9591 55.785 80.0249C55.9889 80.1738 55.4543 79.7529 55.7411 79.9911C56.1004 80.2893 56.4501 80.5974 56.7822 80.9272C57.1122 81.2564 57.4276 81.601 57.7235 81.9622C57.8048 82.0614 57.8822 82.1835 57.9726 82.2749C57.8967 82.1979 57.75 81.9706 57.9005 82.184C58.0544 82.4017 58.2056 82.6211 58.3496 82.8453C58.9198 83.7303 60.148 84.1945 61.103 83.6003C61.9888 83.0479 62.4622 81.8099 61.853 80.8649C59.4762 77.1746 55.5872 74.4512 51.2242 73.692C50.6818 73.5984 50.1851 73.6034 49.6932 73.8816C49.2627 74.125 48.8586 74.6052 48.7478 75.0934C48.5262 76.07 49.049 77.3678 50.1634 77.5609Z" fill="#DDFDFF"/>
<path d="M72.3806 71.0491C73.1613 70.757 73.9612 70.5171 74.7848 70.3812C74.8722 70.3657 74.9656 70.3604 75.052 70.3397C74.9495 70.3647 74.6657 70.3807 74.9296 70.3604C75.1237 70.3458 75.3181 70.3299 75.5134 70.3242C75.8718 70.3126 76.2256 70.3319 76.5835 70.3584C76.8645 70.3799 76.4983 70.3474 76.4162 70.3298C76.496 70.3468 76.5795 70.3548 76.66 70.3695C76.8223 70.398 76.9834 70.431 77.1444 70.469C77.4876 70.5495 77.8256 70.6533 78.1559 70.776C78.253 70.8112 78.3514 70.8604 78.4501 70.89C78.3641 70.8639 78.0487 70.7095 78.3038 70.8301C78.4608 70.9053 78.6173 70.9778 78.7719 71.0572C79.1311 71.2421 79.4797 71.4476 79.8226 71.6651C80.7135 72.2303 82.085 71.9039 82.587 70.97C83.1148 69.9876 82.8338 68.8241 81.8795 68.218C80.2926 67.2101 78.5644 66.5634 76.6956 66.3571C74.8856 66.1583 73.02 66.5381 71.3324 67.1704C70.8273 67.3591 70.4064 67.6029 70.1203 68.08C69.8649 68.5087 69.7535 69.1412 69.908 69.6242C70.2106 70.5776 71.3258 71.4438 72.3806 71.0491Z" fill="#DDFDFF"/>
<path d="M82.6735 74.7816C82.7164 74.8262 83.0899 75.2766 83.1023 75.2715C82.9334 75.0439 82.8941 74.9906 82.982 75.112C83.0184 75.1621 83.0546 75.2134 83.0881 75.2652C83.1345 75.3326 83.1794 75.4009 83.2226 75.4712C83.3278 75.6411 83.4254 75.8163 83.5132 75.9961C83.5393 76.0483 83.5636 76.1024 83.588 76.1565C83.6503 76.2953 83.6226 76.2268 83.5047 75.9512C83.5118 76.0371 83.576 76.1423 83.6037 76.2241C83.6637 76.4072 83.7147 76.5915 83.7563 76.7793C83.778 76.8741 83.7941 76.9673 83.8121 77.0623C83.8781 77.4064 83.782 76.6988 83.7962 76.946C83.819 77.3586 83.8314 77.7598 83.7955 78.1721C83.7051 79.2203 84.7972 80.2242 85.8193 80.1796C86.9901 80.1284 87.7338 79.2958 87.8312 78.1728C88.031 75.8638 87.133 73.6565 85.5548 71.9791C84.8302 71.2111 83.4335 71.1663 82.7013 71.9437C81.9405 72.7497 81.9008 73.9615 82.6735 74.7816Z" fill="#DDFDFF"/>
<path d="M22.1211 59.0356C22.1786 58.9538 22.2491 58.8718 22.3017 58.7861C22.0079 59.2604 22.1268 59.0063 22.2454 58.872C22.3759 58.7249 22.5129 58.5845 22.6563 58.4484C22.8026 58.3106 22.9586 58.1828 23.1119 58.0518C23.4226 57.7861 22.7182 58.3245 23.0572 58.0912C23.1509 58.0267 23.2434 57.9618 23.3379 57.9C23.6908 57.6706 24.0617 57.4683 24.445 57.2941C24.6382 57.2062 24.8373 57.2262 24.3951 57.3076C24.5037 57.288 24.6176 57.2228 24.7217 57.1871C24.9225 57.1186 25.1261 57.057 25.3318 57.0035C25.536 56.9507 25.743 56.9049 25.9509 56.8692C26.1758 56.8296 26.3279 56.9108 25.8863 56.8713C25.9764 56.8799 26.0799 56.8527 26.17 56.8465C26.3769 56.8316 26.5845 56.8267 26.7919 56.8317C26.9041 56.8353 27.0158 56.8412 27.1279 56.8496C27.3512 56.8676 27.5057 56.9854 27.0348 56.8303C27.2236 56.892 27.4368 56.9059 27.6309 56.9592C27.7371 56.9895 27.8431 57.0223 27.9476 57.0584C28.2695 57.1713 27.9235 57.053 27.8099 56.9897C28.0053 57.0989 28.2114 57.1838 28.4023 57.3029C28.4855 57.3542 28.5963 57.471 28.6846 57.4928C28.6082 57.4323 28.532 57.3706 28.4555 57.3101C28.5157 57.3587 28.575 57.4083 28.6332 57.4601C29.4274 58.1512 30.7024 58.3278 31.4857 57.4972C32.1847 56.7559 32.3628 55.3972 31.5134 54.6589C29.5223 52.9267 26.9286 52.4774 24.3949 53.0962C22.0927 53.6575 19.9992 55.0408 18.649 56.9789C18.048 57.8409 18.4416 59.2426 19.356 59.7307C20.3777 60.2752 21.4774 59.9602 22.1211 59.0356Z" fill="#DDFDFF"/>
<path d="M45.7949 145.12C45.8071 144.986 45.8472 144.815 45.8408 144.681C45.8463 144.794 45.7811 145.062 45.8296 144.796C45.8732 144.557 45.9167 144.317 45.9741 144.08C46.023 143.88 46.0784 143.681 46.1407 143.485C46.2014 143.298 46.5121 142.678 46.1932 143.281C46.3559 142.972 46.4913 142.658 46.6809 142.362C46.7671 142.228 46.8681 142.104 46.9565 141.97C46.5833 142.539 46.8752 142.078 47.0157 141.931C47.1139 141.826 47.2176 141.726 47.3244 141.631C47.3996 141.564 47.7991 141.252 47.4685 141.498C47.1483 141.738 47.5579 141.444 47.652 141.386C47.7591 141.32 47.8686 141.258 47.9795 141.2C48.0862 141.145 48.196 141.098 48.3046 141.045C48.5794 140.912 47.8745 141.202 48.0532 141.148C48.1069 141.131 48.159 141.109 48.2116 141.09C48.4308 141.014 48.6541 140.955 48.8801 140.907C49.9149 140.695 50.6207 139.448 50.3039 138.453C49.9598 137.369 48.9382 136.8 47.8314 137.028C46.4447 137.315 45.0843 138.081 44.1297 139.121C42.5958 140.789 41.9641 142.904 41.7597 145.119C41.6625 146.167 42.7655 147.171 43.7831 147.127C44.9593 147.076 45.6908 146.243 45.7949 145.12Z" fill="#DDFDFF"/>
<path d="M7.2311 134.016C7.67103 133.351 8.13797 132.71 8.60343 132.063C8.54524 132.144 8.28225 132.454 8.49538 132.203C8.55771 132.129 8.61861 132.055 8.68216 131.982C8.79629 131.85 8.91267 131.721 9.03416 131.595C9.28121 131.338 9.55114 131.114 9.81809 130.879C9.99436 130.724 9.3996 131.174 9.66139 130.996C9.73716 130.946 9.81189 130.893 9.88798 130.844C10.0289 130.754 10.1742 130.67 10.3222 130.593C10.4033 130.551 10.4877 130.513 10.5701 130.472C10.8596 130.327 10.4814 130.517 10.3936 130.539C10.5766 130.493 10.7542 130.411 10.9375 130.361C11.1142 130.313 11.2935 130.278 11.4727 130.242C11.8982 130.159 11.154 130.265 11.3674 130.253C11.4569 130.247 11.5458 130.235 11.636 130.229C12.107 130.198 12.5785 130.217 13.0491 130.262C14.1024 130.364 15.1079 129.266 15.0609 128.256C15.005 127.083 14.1656 126.357 13.0365 126.248C10.98 126.048 8.96068 126.53 7.30706 127.767C5.82177 128.879 4.7712 130.431 3.75939 131.958C3.17919 132.834 3.53503 134.215 4.46571 134.711C5.46811 135.246 6.60937 134.954 7.2311 134.016Z" fill="#DDFDFF"/>
<path d="M35.7787 194.543C33.5747 194.532 31.588 195.662 29.9899 197.081C28.4112 198.483 27.1051 200.281 26.1602 202.16C25.633 203.209 25.1731 204.313 24.8882 205.454C24.6343 206.471 25.223 207.676 26.3038 207.922C27.3505 208.16 28.5083 207.612 28.7805 206.521C28.881 206.12 29.0026 205.724 29.1433 205.334C29.2091 205.154 29.2628 204.933 29.3623 204.769C29.384 204.735 29.1596 205.23 29.2525 205.028C29.2741 204.98 29.2942 204.932 29.315 204.885C29.3648 204.773 29.416 204.662 29.4689 204.552C29.8645 203.717 30.3315 202.916 30.8591 202.156C30.9844 201.975 31.1133 201.796 31.2467 201.62C31.2804 201.576 31.3147 201.533 31.3468 201.489C31.4765 201.313 31.1766 201.701 31.1937 201.68C31.2768 201.582 31.3549 201.481 31.4365 201.383C31.738 201.024 32.0558 200.679 32.3911 200.352C32.7028 200.047 33.0324 199.766 33.3721 199.493C33.6285 199.286 32.9529 199.784 33.3256 199.53C33.4085 199.474 33.4893 199.417 33.5729 199.362C33.7497 199.246 33.9299 199.136 34.1157 199.034C34.2497 198.96 34.5541 198.733 34.7096 198.742C34.749 198.744 34.2538 198.914 34.4461 198.849C34.5036 198.829 34.5613 198.805 34.6181 198.785C34.7181 198.749 34.8182 198.717 34.9201 198.687C35.1344 198.624 35.3522 198.589 35.5701 198.542C35.7353 198.506 35.2696 198.593 35.2685 198.581C35.2691 198.579 35.4287 198.566 35.4427 198.566C35.5585 198.558 35.6736 198.556 35.7897 198.557C36.8455 198.562 37.8526 197.63 37.8016 196.55C37.7507 195.46 36.909 194.548 35.7787 194.543Z" fill="#DDFDFF"/>
<path d="M40.7273 103.386C41.7453 103.665 42.9646 103.043 43.2037 101.986C43.4447 100.925 42.8795 99.8173 41.788 99.518C40.7709 99.2391 39.5509 99.8604 39.3124 100.919C39.0714 101.979 39.6366 103.087 40.7273 103.386Z" fill="#DDFDFF"/>
<path d="M16.1754 64.0997C17.1938 64.379 18.4129 63.7561 18.6525 62.6985C18.8923 61.6375 18.3274 60.5302 17.2363 60.231C16.2184 59.9519 14.9997 60.5737 14.7601 61.6312C14.5201 62.6922 15.0847 63.8007 16.1754 64.0997Z" fill="#DDFDFF"/>
<path d="M3.31618 140.506C4.33401 140.786 5.5533 140.163 5.79325 139.106C6.03279 138.045 5.46794 136.937 4.37696 136.638C3.35914 136.359 2.14002 136.981 1.9007 138.038C1.66035 139.099 2.2252 140.207 3.31618 140.506Z" fill="#DDFDFF"/>
<g clip-path="url(#clip0_155_183)">
<path d="M400.482 146.374C403.633 153.519 401.593 156.201 405.669 163.569C412.016 175.038 421.493 177.953 419.924 183.852C419.438 185.684 416.913 189.154 414.586 190.861C408.936 195.006 403.429 193.041 395.734 196.774C379.964 204.424 380.543 209.294 373.757 210.323C366.894 211.362 365.065 201.97 358.977 189.217C354.052 178.903 350.063 177.191 346.57 170.95C337.071 153.978 342.197 123.089 357.154 117.246C371.39 111.686 393.496 130.531 400.482 146.374Z" fill="#FF8409"/>
<path d="M361.116 143.659C361.558 153.173 355.036 161.207 346.549 161.601C338.061 161.996 330.822 154.604 330.379 145.088C329.936 135.574 336.458 127.541 344.945 127.146C353.434 126.751 360.673 134.144 361.116 143.659Z" fill="#FF8409"/>
<path d="M372.29 138.238C379.489 144.475 389.835 144.326 395.399 137.904C400.962 131.482 399.638 121.22 392.439 114.983C385.24 108.746 374.894 108.895 369.33 115.317C363.766 121.739 365.091 132.001 372.29 138.238Z" fill="#FF8409"/>
<path d="M370.227 55.6457C363.801 50.0767 354.081 50.769 348.517 57.1915C345.526 60.6422 344.347 65.0469 344.891 69.247C341.591 69.5324 338.305 70.409 335.171 71.9294C332.985 72.9895 331.001 74.3031 329.23 75.8191C326.488 73.7953 321.064 71.8668 317.395 72.0377C308.907 72.432 302.254 80.5374 302.648 89.031C303.026 97.143 311.7 103.394 319.685 103.606C320.186 106.401 321.075 109.186 322.382 111.88C329.701 126.967 347.293 133.542 361.675 126.565C376.057 119.588 381.783 101.702 374.464 86.6146C373.16 83.9271 371.529 81.5122 369.65 79.3929C370.414 78.7942 371.131 78.1157 371.79 77.3555C377.353 70.9334 376.655 61.2136 370.227 55.6457Z" fill="#FF8409"/>
<path d="M356.195 204.992C364.353 212.061 375.478 212.585 381.042 206.163C386.606 199.741 384.502 188.805 376.344 181.737C368.186 174.668 357.062 174.143 351.497 180.565C345.934 186.987 348.037 197.923 356.195 204.992Z" fill="#FF8409"/>
<path d="M421.802 173.341C422.304 184.124 415.83 193.185 407.342 193.58C398.854 193.975 391.567 185.553 391.066 174.771C390.564 163.987 397.038 154.926 405.526 154.531C414.013 154.137 421.301 162.558 421.802 173.341Z" fill="#FF8409"/>
<path d="M308.786 79.5885C305.375 83.132 305.742 88.8542 307.963 93.2618C309.181 95.6804 310.975 97.791 313.008 99.556C314.317 100.693 316.672 101.888 317.756 99.8371C318.852 97.7662 317.802 95.1356 317.486 92.9862C317.075 90.1927 318.079 87.6885 319.502 85.3674C320.809 83.2338 322.914 81.1383 323.317 78.5726C323.541 77.1449 318.685 69.3088 308.786 79.5885Z" fill="#FFCC23"/>
<path d="M349.097 60.0225C345.909 63.4553 347.421 68.6873 346.868 70.3416C337.332 73.0046 329.129 79.9469 325.037 88.9812C324.022 91.2221 323.254 93.6667 323.357 96.1529C323.472 98.9117 324.8 101.332 326.221 103.628C327.017 104.915 327.842 106.186 328.517 107.542C329.185 108.881 329.709 110.284 330.235 111.682C331.195 114.232 332.192 116.828 333.979 118.93C336.783 122.226 341.111 124.06 345.428 124.157C350.015 124.26 358.945 120.214 361.183 118.89C365.158 116.537 368.988 113.014 370.961 108.709C373.047 104.158 372.029 98.7846 370.945 93.9988C369.878 89.2811 366.698 84.8269 363.261 81.3839C361.443 79.5622 359.317 78.3498 357.177 76.9633C356.511 76.5312 353.559 74.5548 354.584 73.5687C355.483 72.7037 357.564 73.5284 358.562 73.739C360.056 74.055 361.55 74.37 363.042 74.6864C363.152 74.7091 363.277 74.6752 363.313 74.5549C363.657 73.4308 362.342 72.8305 361.524 72.4422C360.07 71.7516 358.537 71.222 356.967 70.8663C355.6 70.5572 353.705 70.6033 352.7 69.4853C351.548 68.2017 352.347 66.2543 353.22 65.0599C355.156 62.4093 358.955 61.6852 362.203 62.9159C365.464 64.1511 365.973 66.7922 366.913 69.7303C367.124 70.3905 367.35 71.0479 367.625 71.6852C367.848 72.1962 368.103 72.9335 368.61 73.2406C369.628 73.8547 370.933 73.2238 371.395 72.5445C373.418 69.565 372.23 64.9592 371.692 62.4558C370.228 55.6459 358.339 50.0725 349.097 60.0225Z" fill="#FFCC23"/>
<path d="M353.648 78.3542C348.097 68.7557 324.438 81.4753 331.737 91.3897C333.201 93.3782 337.581 94.3333 340.325 92.2248C345.3 88.401 342.203 83.9903 349.422 83.7685C351.355 83.7092 355.25 81.1251 353.648 78.3542C354.181 79.2744 353.111 77.4241 353.648 78.3542Z" fill="#FFE943"/>
<path d="M358.168 98.8578C356.393 97.5202 354.303 96.8343 352.076 97.0152C347.456 97.391 342.509 99.7861 340.119 103.882C339.548 104.861 339.119 105.925 338.882 107.035C338.672 108.018 338.452 109.372 338.834 110.339C339.143 111.12 340.055 111.311 340.51 110.555C340.848 109.994 341.061 109.301 341.273 108.685C341.382 108.369 341.482 108.049 341.575 107.729C341.648 107.476 341.918 106.354 342.386 106.432C343.274 108.072 344.74 109.611 346.727 109.64C347.747 109.656 348.728 109.282 349.642 108.868C350.715 108.381 351.797 107.865 352.778 107.209C354.397 106.128 355.782 104.334 355.452 102.273C355.385 101.856 355.234 101.474 355.023 101.11C354.915 100.922 354.801 100.737 354.699 100.545C354.399 99.9747 354.356 99.5621 355.454 99.9031C356.056 100.049 356.691 100.485 357.252 100.749C357.831 101.021 358.448 101.417 359.068 101.581C359.674 101.739 360.102 101.325 359.929 100.717C359.709 99.9469 358.777 99.3153 358.168 98.8578Z" fill="#FF8409"/>
<path d="M358.61 88.0033C359.619 90.0817 358.752 92.584 356.673 93.5926C354.593 94.6013 352.091 93.7332 351.083 91.6548C350.075 89.5764 350.942 87.0741 353.021 86.0655C355.1 85.0568 357.602 85.9249 358.61 88.0033Z" fill="#FF8409"/>
<path d="M356.078 87.7636C354.942 87.318 353.751 87.6324 353.171 88.588C352.595 89.5393 353.971 91.8147 354.796 92.3842C355.793 93.0713 357.294 91.7357 357.457 90.7421C357.717 89.1691 357.069 88.1511 356.078 87.7636Z" fill="#FFE943"/>
<path d="M339.043 97.4954C340.052 99.5738 339.184 102.077 337.105 103.085C335.026 104.093 332.524 103.226 331.516 101.147C330.507 99.0688 331.375 96.5661 333.454 95.5577C335.532 94.5493 338.035 95.417 339.043 97.4954Z" fill="#FF8409"/>
<path d="M333.277 99.3253C333.583 100.482 334.473 102.314 335.818 102.205C337.93 102.034 338.599 99.5973 338.001 98.3657C336.229 94.7121 332.813 97.565 333.277 99.3253Z" fill="#FFE943"/>
<path d="M360.228 105.978C359.38 105.88 358.939 107.055 358.746 107.801C358.419 109.074 355.254 113.28 353.554 111.974C353.223 111.72 353.105 111.329 352.991 110.941C352.774 110.196 352.54 109.121 351.609 108.973C351.585 108.968 351.559 108.968 351.535 108.965C351.494 108.929 351.437 108.913 351.366 108.935C351.311 108.952 351.26 108.972 351.211 108.992C350.886 109.075 350.619 109.319 350.526 109.632C350.399 109.875 350.332 110.16 350.315 110.464C350.261 111.467 351.015 112.453 350.722 113.448C350.377 114.621 348.717 115.18 347.651 115.354C346.375 115.562 345.183 115.222 343.955 114.925C343.353 114.78 342.231 114.356 341.761 114.949C341.402 115.404 341.746 116.608 343.374 117.071C345.936 117.801 349.239 117.182 353.487 115.162C357.971 113.03 359.688 111.365 361.029 108.428C361.463 107.479 361.147 106.085 360.228 105.978Z" fill="#FF8409"/>
<path d="M352.554 129.327C349.84 127.724 347.266 128.526 345.941 129.09C343.327 130.204 341.001 132.2 339.459 134.517C333.136 144.022 337.7 153.976 341.822 157.272C343.867 158.907 346.623 158.987 349.124 158.08C354.697 156.061 357.498 149.961 357.703 144.524C357.829 141.16 357.19 137.699 355.991 134.581C355.267 132.697 353.832 130.082 352.554 129.327Z" fill="#FFCC23"/>
<path d="M388.851 121.554C387.045 117.83 382.147 113.479 376.561 114.819C371.562 116.018 367.806 120.794 368.283 126.545C368.543 129.656 370.208 132.381 372.206 134.699C374.258 137.081 381.972 143.345 387.287 138.985C391.794 135.287 391.83 127.698 388.851 121.554Z" fill="#FFCC23"/>
<path d="M353.146 135.523C353.927 133.076 351.943 131.236 350.39 131.383C346.626 131.399 343.171 135.444 341.546 138.544C340.29 140.941 340.23 143.508 340.756 146.133C341.269 148.689 342.286 151.382 344.007 153.378C345.292 154.869 347.217 156 349.214 155.382C351.157 154.781 352.476 152.816 352.667 150.834C352.914 148.263 349.652 146.163 350.158 142.916C350.714 139.352 352.322 138.106 353.146 135.523Z" fill="#FFE943"/>
<path d="M379.47 118.397C376.777 117.605 373.384 120.3 371.939 122.54C370.204 125.232 371.343 129.74 372.666 132.236C374.927 136.502 380.738 137.513 383.598 135.421C386.495 133.302 382.892 131.889 381.236 128.079C379.921 125.055 382.923 119.757 379.47 118.397Z" fill="#FFE943"/>
<path d="M381.24 139.035C377.861 137.636 374.47 135.97 368.977 128.083C366.473 124.489 358.856 125.818 357.567 130.205C356.361 134.311 357.784 144.345 357.269 147.86C356.765 151.296 356.096 154.902 354.772 158.115C352.49 163.652 353.71 173.473 359.258 176.952C365.359 180.777 369.413 182.496 374.991 184.791C383.067 188.113 394.235 184.158 395.472 177.606C395.922 175.218 396.312 170.608 396.878 168.786C398.407 163.869 399.765 158.784 395.469 149.927C391.272 141.277 383.679 140.044 381.24 139.035Z" fill="#FFCC23"/>
<path d="M382.561 146.961C378.336 143.574 373.879 142.629 370.375 138.039C368.935 136.151 366.381 129.902 363.222 130.084C358.368 130.363 360.994 138.058 361.593 140.757C362.739 145.935 362.465 152.388 360.83 157.503C356.986 169.519 374.048 180.577 383.398 176.861C396.543 171.635 391.216 153.895 382.561 146.961Z" fill="#FFE943"/>
<path d="M376.381 183.047C373.4 180.718 370.041 178.363 366.021 177.938C354.488 176.718 352.538 188.58 354.201 194.24C355.167 197.528 357.04 200.548 359.33 203.108C361.368 205.385 363.969 207.014 367.286 207.416C373.457 208.163 379.811 204.757 382.242 199.108C383.39 196.438 383.622 193.497 382.748 190.914C381.674 187.739 379.031 185.119 376.381 183.047Z" fill="#FFCC23"/>
<path d="M413.467 160.534C411.772 158.756 409 157.05 406.455 157.31C403.625 157.304 401.108 159.112 399.253 161.165C397.136 163.506 395.539 166.319 394.58 169.343C392.514 175.859 393.79 181.755 396.02 186.353C398.407 191.272 404.07 193.407 408.13 190.694C409.405 189.842 410.517 188.763 411.544 187.621C415.499 183.228 417.787 177.271 417.534 171.286C417.369 167.417 416.194 163.393 413.467 160.534Z" fill="#FFCC23"/>
<path d="M374.989 192.741C373.365 192.648 368.457 192.002 367.637 185.33C367.097 180.94 363.067 180.935 359.549 183.895C357.305 185.782 357.562 188.718 357.847 190.953C358.499 196.069 361.853 200.623 367.001 202.818C369.323 203.808 372.032 203.988 374.8 202.648C380.031 200.116 380.656 193.064 374.989 192.741Z" fill="#FFE943"/>
<path d="M396.489 169.539C394.952 173.901 395.325 178.753 397.624 182.258C398.643 183.811 400.25 185.067 402.449 185.186C404.795 185.313 406.848 183.867 408.195 182.067C409.531 180.282 409.529 178.328 408.475 176.742C407.872 175.833 406.957 175.161 406.237 174.338C405.358 173.336 405.067 172.164 405.442 170.79C406.045 168.578 408.068 166.587 408.016 165.262C407.87 161.519 399.912 159.825 396.489 169.539Z" fill="#FFE943"/>
<path d="M351.033 100.189C349.526 99.264 345.472 100.915 344.203 103.073C343.249 104.696 344.251 107.074 346.238 107.413C348.361 107.774 350.943 106.831 352.046 104.92C352.973 103.313 352.796 101.27 351.033 100.189Z" fill="#FFE943"/>
<path d="M334.944 86.8099C334.99 86.6295 335.042 86.4516 335.106 86.2766C335.138 86.1884 335.173 86.1023 335.21 86.0171C335.277 85.8646 335.404 85.7955 335.178 86.0719C335.396 85.806 335.556 85.4694 335.77 85.1928C335.903 85.0197 335.456 85.5093 335.728 85.2478C335.781 85.1959 335.833 85.1417 335.887 85.0904C336.022 84.9631 336.164 84.8423 336.313 84.7301C336.367 84.6897 336.643 84.4952 336.389 84.6704C336.13 84.8482 336.438 84.6476 336.476 84.627C336.639 84.5351 336.807 84.4557 336.978 84.3816C337.831 84.0143 338.242 82.829 337.799 82.0124C337.324 81.1356 336.345 80.7968 335.43 81.1908C333.585 81.9851 332.087 83.6956 331.593 85.6485C331.365 86.5469 331.716 87.6139 332.687 87.9045C333.543 88.1615 334.701 87.7707 334.944 86.8099Z" fill="white"/>
<path d="M341.367 81.7081C342.07 81.2802 342.81 80.921 343.584 80.6424C343.649 80.6199 343.964 80.4824 343.692 80.6034C343.422 80.7231 343.734 80.5925 343.802 80.5719C344.008 80.5109 344.216 80.4556 344.425 80.4052C344.826 80.3089 345.229 80.2328 345.637 80.1764C345.83 80.1489 346.025 80.1272 346.22 80.109C346.317 80.1009 346.415 80.0947 346.512 80.0867C346.734 80.0674 346.136 80.0975 346.464 80.0896C346.874 80.0796 347.284 80.0819 347.695 80.1087C348.105 80.1364 348.513 80.1828 348.919 80.2516C349.03 80.2704 349.152 80.3069 349.265 80.3153C349.17 80.308 348.941 80.2418 349.164 80.2966C349.393 80.3522 349.62 80.4106 349.845 80.4763C350.736 80.7346 351.817 80.331 352.103 79.3812C352.367 78.4995 351.96 77.4006 351.008 77.1248C347.293 76.0471 343.142 76.4905 339.819 78.5167C339.407 78.7691 339.081 79.0606 338.918 79.5313C338.775 79.9432 338.788 80.4973 338.998 80.8867C339.42 81.6655 340.519 82.2262 341.367 81.7081Z" fill="white"/>
<path d="M352.255 64.481C352.601 63.8335 352.99 63.2096 353.455 62.6412C353.504 62.5801 353.562 62.5225 353.607 62.4585C353.554 62.5346 353.376 62.71 353.539 62.5434C353.658 62.421 353.777 62.2976 353.903 62.1805C354.133 61.9648 354.378 61.7723 354.63 61.5823C354.828 61.4335 354.567 61.6244 354.503 61.6603C354.565 61.6253 354.625 61.5822 354.687 61.5453C354.81 61.4701 354.936 61.3986 355.064 61.3305C355.338 61.1849 355.621 61.0579 355.911 60.9479C355.996 60.915 356.089 60.8907 356.171 60.8531C356.1 60.8857 355.801 60.9659 356.04 60.8982C356.187 60.8571 356.333 60.8146 356.481 60.7777C356.826 60.6924 357.176 60.6269 357.528 60.5728C358.445 60.4321 359.161 59.419 358.95 58.5059C358.728 57.5456 357.866 56.934 356.883 57.0842C355.249 57.3339 353.732 57.9062 352.378 58.8532C351.067 59.7712 350.056 61.1066 349.309 62.5068C349.085 62.9255 348.948 63.3321 349.037 63.8157C349.117 64.2494 349.411 64.735 349.794 64.967C350.548 65.4262 351.788 65.3558 352.255 64.481Z" fill="white"/>
<path d="M361.223 60.9934C361.277 60.9983 361.786 61.0814 361.791 61.0708C361.547 61.0173 361.49 61.0045 361.619 61.0344C361.672 61.0466 361.725 61.0598 361.778 61.0748C361.848 61.0928 361.917 61.1122 361.986 61.1339C362.155 61.186 362.321 61.246 362.483 61.3148C362.531 61.3344 362.578 61.3563 362.626 61.3782C362.748 61.4344 362.69 61.4049 362.452 61.2898C362.506 61.3429 362.61 61.3757 362.676 61.414C362.822 61.5012 362.962 61.5943 363.099 61.6952C363.169 61.7457 363.233 61.7984 363.3 61.8512C363.544 62.042 363.069 61.6266 363.222 61.783C363.477 62.0444 363.719 62.3044 363.935 62.5997C364.484 63.3501 365.789 63.3847 366.438 62.762C367.181 62.0485 367.189 61.0626 366.6 60.2585C365.39 58.6052 363.514 57.6566 361.497 57.4557C360.572 57.3648 359.623 58.1454 359.592 59.0878C359.558 60.066 360.236 60.8958 361.223 60.9934Z" fill="white"/>
<path d="M312.079 85.6461C312.07 85.5582 312.069 85.4628 312.054 85.3752C312.135 85.8614 312.066 85.6233 312.066 85.465C312.067 85.2914 312.076 85.1184 312.091 84.9446C312.108 84.7679 312.137 84.5923 312.162 84.4162C312.213 84.059 312.06 84.8262 312.149 84.4741C312.173 84.3768 312.196 84.28 312.223 84.184C312.323 83.8264 312.45 83.4765 312.602 83.1382C312.678 82.9675 312.821 82.8653 312.577 83.1761C312.637 83.1 312.674 82.9905 312.722 82.9064C312.815 82.7442 312.914 82.5851 313.019 82.4301C313.123 82.2765 313.233 82.1258 313.349 81.9815C313.475 81.8245 313.623 81.7904 313.308 82.0203C313.372 81.9738 313.425 81.8956 313.481 81.8392C313.609 81.7092 313.743 81.5855 313.883 81.4685C313.959 81.4057 314.036 81.3449 314.115 81.2855C314.273 81.1679 314.444 81.1566 314.043 81.3266C314.203 81.2581 314.352 81.1437 314.511 81.0665C314.599 81.0251 314.688 80.9854 314.778 80.9488C315.056 80.8372 314.759 80.9592 314.647 80.983C314.84 80.9423 315.025 80.8792 315.221 80.8477C315.305 80.8336 315.446 80.8471 315.517 80.8103C315.432 80.8144 315.346 80.8176 315.26 80.8217C315.328 80.8191 315.396 80.8177 315.464 80.8185C316.391 80.8177 317.335 80.1955 317.37 79.1879C317.401 78.2888 316.728 77.2809 315.738 77.2822C313.416 77.2843 311.442 78.4902 310.129 80.3724C308.934 82.0819 308.356 84.2177 308.591 86.2915C308.695 87.2142 309.77 87.919 310.657 87.7133C311.648 87.483 312.192 86.6351 312.079 85.6461Z" fill="white"/>
<path d="M377.751 129.223C377.682 129.127 377.609 128.989 377.526 128.904C377.596 128.976 377.709 129.192 377.586 128.987C377.476 128.802 377.365 128.618 377.265 128.426C377.181 128.265 377.102 128.1 377.029 127.934C376.96 127.774 376.806 127.181 376.945 127.767C376.873 127.467 376.78 127.179 376.734 126.873C376.712 126.733 376.707 126.592 376.688 126.452C376.772 127.047 376.696 126.57 376.704 126.391C376.708 126.264 376.718 126.138 376.733 126.012C376.744 125.924 376.827 125.484 376.752 125.84C376.679 126.186 376.779 125.753 376.807 125.659C376.84 125.553 376.876 125.448 376.916 125.345C376.954 125.247 376.999 125.151 377.04 125.053C377.144 124.805 376.848 125.408 376.934 125.268C376.96 125.226 376.981 125.18 377.005 125.137C377.106 124.96 377.219 124.791 377.34 124.628C377.9 123.886 377.642 122.646 376.854 122.168C375.997 121.645 374.991 121.86 374.393 122.654C373.644 123.649 373.19 124.949 373.165 126.195C373.121 128.195 373.933 129.97 375.086 131.564C375.63 132.317 376.943 132.346 377.589 131.726C378.336 131.01 378.335 130.031 377.751 129.223Z" fill="white"/>
<path d="M345.828 144.207C345.732 143.509 345.668 142.811 345.599 142.11C345.608 142.198 345.614 142.557 345.609 142.266C345.607 142.181 345.604 142.096 345.604 142.01C345.603 141.856 345.605 141.703 345.612 141.549C345.626 141.234 345.674 140.929 345.713 140.617C345.74 140.412 345.608 141.056 345.678 140.786C345.699 140.709 345.718 140.63 345.739 140.554C345.78 140.412 345.827 140.271 345.88 140.134C345.909 140.059 345.943 139.985 345.973 139.91C346.08 139.645 345.941 139.991 345.896 140.057C345.99 139.92 346.059 139.762 346.151 139.623C346.24 139.488 346.338 139.361 346.436 139.233C346.669 138.931 346.239 139.433 346.373 139.301C346.428 139.246 346.48 139.186 346.536 139.13C346.829 138.835 347.151 138.575 347.488 138.331C348.243 137.788 348.269 136.474 347.651 135.828C346.932 135.08 345.956 135.084 345.147 135.666C343.673 136.727 342.619 138.219 342.246 140.003C341.911 141.604 342.12 143.247 342.339 144.852C342.465 145.771 343.503 146.484 344.406 146.274C345.379 146.049 345.963 145.192 345.828 144.207Z" fill="white"/>
<path d="M362.37 186.635C361.858 188.298 362.147 190 362.735 191.6C363.296 193.124 364.247 194.571 365.403 195.71C366.062 196.359 367.181 196.569 367.907 195.872C368.559 195.247 368.777 194.066 368.069 193.369C367.821 193.125 367.585 192.87 367.364 192.602C367.258 192.473 367.156 192.342 367.056 192.208C367 192.134 366.947 192.058 366.893 191.982C366.859 191.933 366.709 191.709 366.867 191.95C367.037 192.208 366.854 191.925 366.818 191.868C366.769 191.789 366.721 191.71 366.674 191.629C366.591 191.486 366.51 191.341 366.433 191.193C366.274 190.887 366.129 190.573 366.002 190.251C365.977 190.185 365.951 190.118 365.926 190.052C365.825 189.777 365.919 190.017 365.954 190.153C365.915 190.002 365.864 189.855 365.825 189.704C365.745 189.398 365.685 189.086 365.648 188.772C365.641 188.708 365.636 188.644 365.629 188.58C365.59 188.243 365.624 188.904 365.636 188.709C365.644 188.572 365.635 188.433 365.643 188.295C365.652 188.147 365.674 188.001 365.694 187.853C365.724 187.619 365.67 188.007 365.653 188.043C365.685 187.975 365.7 187.869 365.722 187.797C365.995 186.91 365.567 185.821 364.627 185.54C363.733 185.272 362.662 185.688 362.37 186.635Z" fill="white"/>
<path d="M370.038 198.964C370.899 199.312 371.845 199.457 372.767 199.311C373.776 199.151 374.72 198.584 375.423 197.857C376.065 197.192 376.286 196.084 375.585 195.354C374.964 194.707 373.772 194.477 373.082 195.191C372.953 195.324 372.822 195.452 372.68 195.569C372.621 195.618 372.559 195.661 372.5 195.709C372.324 195.852 372.862 195.506 372.581 195.649C372.446 195.718 372.311 195.778 372.173 195.839C372.005 195.912 372.528 195.78 372.351 195.775C372.285 195.773 372.187 195.812 372.123 195.822C372.069 195.831 371.991 195.824 371.94 195.845C371.988 195.826 372.361 195.849 372.126 195.831C371.987 195.82 371.851 195.812 371.714 195.796C371.42 195.762 371.753 195.773 371.838 195.826C371.792 195.797 371.708 195.791 371.655 195.776C371.501 195.729 371.35 195.673 371.2 195.613C370.337 195.264 369.209 195.821 368.944 196.707C368.656 197.666 369.118 198.592 370.038 198.964Z" fill="white"/>
<path d="M350.147 104.377C350.981 103.973 351.425 102.85 350.968 102.008C350.511 101.162 349.494 100.752 348.599 101.186C347.765 101.591 347.32 102.712 347.778 103.556C348.235 104.402 349.253 104.811 350.147 104.377Z" fill="white"/>
<path d="M311.096 92.4676C311.931 92.0626 312.374 90.9404 311.918 90.0971C311.46 89.2514 310.443 88.8419 309.548 89.2759C308.713 89.6808 308.27 90.8021 308.726 91.6453C309.185 92.491 310.202 92.9015 311.096 92.4676Z" fill="white"/>
<path d="M347.015 150.8C347.85 150.395 348.293 149.273 347.837 148.429C347.379 147.584 346.362 147.174 345.467 147.608C344.633 148.013 344.189 149.135 344.646 149.978C345.104 150.824 346.121 151.234 347.015 150.8Z" fill="white"/>
</g>
<g filter="url(#filter0_i_155_183)">
<path d="M142.06 95V84.98H132.28V95H122.44V80.12C122.44 77.48 122.74 74.86 123.34 72.26C123.94 69.66 124.84 67.22 126.04 64.94C127.24 62.66 128.74 60.58 130.54 58.7C132.34 56.82 134.46 55.24 136.9 53.96C138.22 53.28 139.46 52.78 140.62 52.46C141.82 52.1 143 51.84 144.16 51.68C145.36 51.52 146.58 51.44 147.82 51.44C149.1 51.4 150.46 51.36 151.9 51.32V95H142.06ZM142.06 62.42C140.78 62.98 139.62 63.72 138.58 64.64C137.58 65.52 136.68 66.52 135.88 67.64C135.12 68.76 134.48 69.96 133.96 71.24C133.44 72.52 133.06 73.82 132.82 75.14H142.06V62.42ZM154.784 95V51.44H164.684V85.16H176.624V95H154.784ZM179.51 95V51.44H189.41V95H179.51ZM211.904 95V84.98H202.124V95H192.284V80.12C192.284 77.48 192.584 74.86 193.184 72.26C193.784 69.66 194.684 67.22 195.884 64.94C197.084 62.66 198.584 60.58 200.384 58.7C202.184 56.82 204.304 55.24 206.744 53.96C208.064 53.28 209.304 52.78 210.464 52.46C211.664 52.1 212.844 51.84 214.004 51.68C215.204 51.52 216.424 51.44 217.664 51.44C218.944 51.4 220.304 51.36 221.744 51.32V95H211.904ZM211.904 62.42C210.624 62.98 209.464 63.72 208.424 64.64C207.424 65.52 206.524 66.52 205.724 67.64C204.964 68.76 204.324 69.96 203.804 71.24C203.284 72.52 202.904 73.82 202.664 75.14H211.904V62.42ZM240.708 85.16H254.508V95H224.628L241.848 61.34H230.268V51.44H257.928L240.708 85.16Z" fill="white"/>
</g>
<defs>
<filter id="filter0_i_155_183" x="122.44" y="51.32" width="135.487" height="47.68" filterUnits="userSpaceOnUse" color-interpolation-filters="sRGB">
<feFlood flood-opacity="0" result="BackgroundImageFix"/>
<feBlend mode="normal" in="SourceGraphic" in2="BackgroundImageFix" result="shape"/>
<feColorMatrix in="SourceAlpha" type="matrix" values="0 0 0 0 0 0 0 0 0 0 0 0 0 0 0 0 0 0 127 0" result="hardAlpha"/>
<feOffset dy="4"/>
<feGaussianBlur stdDeviation="2"/>
<feComposite in2="hardAlpha" operator="arithmetic" k2="-1" k3="1"/>
<feColorMatrix type="matrix" values="0 0 0 0 0.6 0 0 0 0 0.8 0 0 0 0 1 0 0 0 0.58 0"/>
<feBlend mode="normal" in2="shape" result="effect1_innerShadow_155_183"/>
</filter>
<clipPath id="clip0_155_183">
<rect width="201" height="201" fill="white" transform="translate(217 99.7289) rotate(-25.8784)"/>
</clipPath>
</defs>
</svg>
