<?xml version="1.0" encoding="UTF-8" standalone="no"?>
<svg
   xmlns:dc="http://purl.org/dc/elements/1.1/"
   xmlns:cc="http://creativecommons.org/ns#"
   xmlns:rdf="http://www.w3.org/1999/02/22-rdf-syntax-ns#"
   xmlns:svg="http://www.w3.org/2000/svg"
   xmlns="http://www.w3.org/2000/svg"
   viewBox="0 0 2370.3601 2359.5332"
   height="2359.5332"
   width="2370.3601"
   xml:space="preserve"
   id="svg2"
   version="1.1"><metadata
     id="metadata8"><rdf:RDF><cc:Work
         rdf:about=""><dc:format>image/svg+xml</dc:format><dc:type
           rdf:resource="http://purl.org/dc/dcmitype/StillImage" /></cc:Work></rdf:RDF></metadata><defs
     id="defs6" /><g
     transform="matrix(1.3333333,0,0,-1.3333333,0,2359.5333)"
     id="g10"><g
       transform="scale(0.1)"
       id="g12"><g
         transform="scale(1.07762)"
         id="g14"><path
           id="path16"
           style="fill:#4a5a65;fill-opacity:1;fill-rule:nonzero;stroke:none"
           d="m 16263.8,10218.4 c -80.4,-1112.08 -545.7,-2192.59 -1298.9,-3014.77 -424.5,-463.5 -962.9,-857.7 -1584.6,-958.01 -1.3,0 -3.9,-1.3 -5.1,-1.21 -436.1,-68.48 -866.5,157.76 -1059.6,555.21 -13.9,29.32 -27.6,59.85 -40.1,91.68 -126.4,311.96 -156,656.34 -155.2,994.17 4.9,1409.8 548.4,2812.43 1494.6,3859.53 308.3,339.7 692.6,660 1151.3,695.2 507,38.8 990.1,-298.2 1238.8,-741.8 248.8,-443.5 295,-973.4 258.8,-1480" /></g><g
         transform="scale(1.07762)"
         id="g18"><path
           id="path20"
           style="fill:#3d4a56;fill-opacity:1;fill-rule:nonzero;stroke:none"
           d="m 16263.8,10218.4 c -80.5,-1112.07 -545.7,-2192.6 -1298.9,-3014.78 -424.5,-463.49 -962.9,-857.69 -1584.7,-958 -1.2,0 -3.8,-1.21 -5,-1.21 -436.1,-68.39 -866.5,157.76 -1059.6,555.21 -13.9,29.32 -27.6,59.85 -40.1,91.68 -120.4,296.91 -152.9,623.19 -155.1,945.29 156.5,-188.1 373.8,-326.37 612.9,-379.36 262.6,-58.18 540.5,-18.09 790.8,79.9 510.5,199.89 906.7,631.21 1152.8,1121.08 246.1,489.97 355.4,1037.1 419.4,1581.59 52.4,444.7 74.4,907.5 -77.1,1329 -111.3,310.2 -307,573.9 -536.8,812.4 91.2,30.9 185.8,51.5 283.8,59.1 507,38.7 990.1,-298.3 1238.8,-741.9 248.7,-443.5 295,-973.4 258.8,-1480" /></g><g
         transform="scale(1.07836)"
         id="g22"><path
           id="path24"
           style="fill:#4a5a65;fill-opacity:1;fill-rule:nonzero;stroke:none"
           d="m 8881.29,10667 c -334.7,1497.2 -98.79,3115.3 652,4453.5 245.1,435.1 575.21,867.1 1052.21,1015.2 528.9,164.3 1122.7,-75.5 1493.3,-486.4 370.6,-409.8 548.7,-960.4 631.6,-1506.7 184.3,-1198 -48.1,-2455.7 -647.3,-3509.3 -338.8,-594.4 -814.3,-1142.3 -1449.3,-1398.57 -1.3,-1.26 -3.8,-2.51 -5.1,-2.51 -445.3,-178.74 -957.26,-42.31 -1256.98,332.7 -22.72,28.06 -44.14,56.12 -65.47,86.71 -208.84,300.83 -323.41,658.17 -404.96,1015.37" /></g><g
         transform="scale(1.07827)"
         id="g26"><path
           id="path28"
           style="fill:#4a5a65;fill-opacity:1;fill-rule:nonzero;stroke:none"
           d="m 4423.87,10633.2 c -600.22,1053.4 -832.34,2311.5 -648.5,3508.6 83.35,546.6 260.65,1097.7 631.3,1507.9 370.62,410.3 964.89,650.3 1493.21,487.1 476.34,-148.9 807.5,-580 1052.33,-1015.6 750.79,-1337.5 988.31,-2956.1 652.83,-4453.1 -79.64,-358.7 -194.82,-715.95 -404.84,-1016.75 -20.5,-29.08 -42.25,-58.13 -65.28,-87.19 -299.34,-373.88 -810.46,-510.33 -1256.17,-332.41 -1.26,1.28 -3.8,1.3 -6.32,2.57 -633.08,256.52 -1109.51,803.98 -1448.56,1398.88" /></g><path
         id="path30"
         style="fill:#4a5a65;fill-opacity:1;fill-rule:nonzero;stroke:none"
         d="M 14327.6,2155.5 C 14137.1,1227.3 13411.9,365.402 12472.2,250.801 11234,98.3008 10229.4,1213.1 8890.86,1213.2 7552.26,1211.9 6547.56,97.1016 5309.86,249.902 4370.26,365.199 3644.76,1226.5 3453.36,2154.3 c -190,926.4 62.4,1892.5 449.6,2756.4 693.9,1549.2 2229.3,3279.28 3709.8,4103.68 792.5,439.9 1760.2,440.8 2552.64,0.6 1481.4,-823.5 3017.3,-2553.38 3712.6,-4102.98 386.1,-863.3 638.8,-1829.8 449.6,-2756.5" /><path
         id="path32"
         style="fill:#4a5a65;fill-opacity:1;fill-rule:nonzero;stroke:none"
         d="m 3366.69,6727.5 c -1.37,0.1 -4.11,1.4 -6.83,1.5 -668.64,108.1 -1249.08,531.9 -1707.21,1032.92 -811.63,885.09 -1313.599,2048.84 -1400.642,3246.98 -39.043,546.3 11.023,1118.2 278.14,1595.5 268.485,477.4 789.452,841 1335.302,799.3 493.86,-38.6 907.82,-382 1240.87,-749.5 1020.91,-1127.3 1605.6,-2637.8 1611.23,-4158.45 1.86,-364.08 -30.54,-734.8 -166.74,-1070.65 -13.9,-34.1 -27.78,-66.9 -43.05,-98.3 -207.95,-428.5 -672.06,-673.3 -1141.07,-599.3" /><path
         id="path34"
         style="fill:#3d4a56;fill-opacity:1;fill-rule:nonzero;stroke:none"
         d="m 4550.81,7425.1 c -13.9,-34.1 -27.8,-66.8 -43.1,-98.2 -207.9,-428.5 -672,-673.4 -1141,-599.3 -1.4,0 -4.1,1.4 -6.9,1.4 -668.6,108.2 -1249,531.9 -1707.2,1032.96 -268,292.4 -502.3,615.1 -698.997,959.4 328.597,-266.6 729.597,-425.3 1069.197,-476.3 581.9,-87.3 1202.5,167.4 1555.3,638.4 409.2,546.1 438.6,1287.74 350.9,1964.54 -43.7,336.9 -112.5,670.4 -205.2,997.1 635.8,-993.9 989.4,-2168.64 993.7,-3349.34 1.9,-364.1 -30.5,-734.8 -166.7,-1070.66" /><g
         transform="scale(1.0675)"
         id="g36"><path
           id="path38"
           style="fill:#3d4a56;fill-opacity:1;fill-rule:nonzero;stroke:none"
           d="m 12185.8,10741.5 c -342.2,-600.5 -822.6,-1154 -1464,-1412.83 -1.3,-1.31 -3.9,-2.53 -5.2,-2.53 -449.8,-180.61 -967.01,-42.72 -1269.77,336.02 -22.95,28.38 -44.59,56.77 -66.13,87.68 -187.25,269.66 -299.48,584.36 -379.95,904.06 231.95,-286.9 631.66,-397.2 1000.65,-370.7 589.6,42.5 1130.7,392.4 1488.4,862.9 357.9,470.6 547.1,1051.6 632.8,1636.5 176.8,1206.7 -79.1,2471 -704.3,3517.4 297.5,-83.5 575.2,-260.8 783.4,-491.6 374.3,-413.9 554.3,-970.1 638,-1522 186.1,-1210.2 -48.6,-2480.6 -653.9,-3544.9" /></g><g
         transform="scale(1.01871)"
         id="g40"><path
           id="path42"
           style="fill:#3d4a56;fill-opacity:1;fill-rule:nonzero;stroke:none"
           d="m 8049.71,11291.9 c -84.33,-379.7 -206.24,-757.8 -428.49,-1076.3 -21.79,-30.7 -44.76,-61.5 -69.1,-92.2 -316.88,-395.74 -857.85,-540.23 -1329.63,-351.86 -1.37,1.38 -4.02,1.38 -6.67,2.65 -670.17,271.51 -1174.43,851.11 -1533.32,1480.71 -80.2,140.8 -154.21,285 -221.75,432.1 460.98,-297.6 1029.83,-431.2 1573.27,-348.8 379.5,57.7 759,226.4 984.38,537 172.08,237 239.52,532.8 286.64,821.8 183.27,1124.1 168.64,2462.3 -127.32,3603 64.98,-96 125.16,-195.2 181.01,-294.7 794.64,-1415.7 1046.03,-3128.9 690.98,-4713.4" /></g><path
         id="path44"
         style="fill:#6e8690;fill-opacity:1;fill-rule:nonzero;stroke:none"
         d="m 1675.39,11457.1 c -68.77,-617.5 -50.04,-1126.4 -382.54,-1089.4 -332.498,37.1 -546.299,567.7 -477.53,1185.2 68.766,617.5 394.06,1088 726.56,1051 332.5,-37 202.28,-529.3 133.51,-1146.8" /><path
         id="path46"
         style="fill:#6e8690;fill-opacity:1;fill-rule:nonzero;stroke:none"
         d="m 5476.88,5189 c -144.32,-178.1 -280.17,-393.4 -445.3,-254.7 -156.39,131.3 -185.9,365.6 -7.3,657.7 118.84,194.4 354.39,205 479.26,100.2 v 0 c 107.58,-90.4 105.16,-340.5 -26.66,-503.2" /><path
         id="path48"
         style="fill:#6e8690;fill-opacity:1;fill-rule:nonzero;stroke:none"
         d="M 7350.24,7086.9 C 6547.01,6401.9 5944.5,5789.6 5727.41,6044.2 c -217.09,254.5 258.07,1016.2 1061.3,1701.17 803.22,684.98 1630.35,1033.9 1847.44,779.34 217.09,-254.56 -482.69,-752.83 -1285.91,-1437.81" /><path
         id="path50"
         style="fill:#6e8690;fill-opacity:1;fill-rule:nonzero;stroke:none"
         d="m 14574.4,11747.6 c 346.6,540.2 665.2,864.1 946.8,683.4 281.6,-180.6 128.2,-610.6 -218.5,-1150.8 -346.6,-540.2 -742.1,-926.3 -1023.6,-745.6 -281.6,180.7 -51.3,672.8 295.3,1213" /><g
         transform="scale(1.02701)"
         id="g52"><path
           id="path54"
           style="fill:#6e8690;fill-opacity:1;fill-rule:nonzero;stroke:none"
           d="m 5377.86,14866.7 c -200.17,-699.8 -289.15,-1288.1 -616.3,-1194.5 -327.15,93.6 -430.09,736.7 -229.92,1436.5 200.16,699.8 627.64,1191.3 954.79,1097.7 327.15,-93.6 91.6,-639.9 -108.57,-1339.7" /></g><g
         transform="scale(1.03274)"
         id="g56"><path
           id="path58"
           style="fill:#6e8690;fill-opacity:1;fill-rule:nonzero;stroke:none"
           d="m 11053.7,14767.3 c -219.9,-689.7 -663.3,-1257.3 -985.6,-1154.5 -322.45,102.8 -68.18,730.7 151.7,1420.4 219.8,689.6 562.6,1266.8 885,1164 322.4,-102.8 168.8,-740.3 -51.1,-1429.9" /></g><path
         id="path60"
         style="fill:#3d4a56;fill-opacity:1;fill-rule:nonzero;stroke:none"
         d="M 14327.5,2155.5 C 14137.1,1227.3 13411.9,365.402 12472.2,250.801 11234,98.3008 10229.4,1213.1 8890.81,1213.2 7552.21,1211.9 6547.51,97.1016 5309.81,249.902 4370.31,365.199 3644.71,1226.5 3453.41,2154.3 c -96.5,470.5 -78.9,951.2 12.5,1423.6 -3,-292.8 102.5,-595.4 288.1,-812.9 316.8,-371.4 809.3,-520.5 1276.8,-507.7 467.6,12.7 920.5,168.1 1365.6,323 445.1,155 897.2,312.3 1364.6,329.3 559.5,20.3 1105.7,-161.2 1655,-278.2 549.2,-117 1144.59,-163.8 1645.59,105.8 647.3,348.4 983.8,1147.5 1091.5,1919.5 174.1,1246.6 -153.8,2556.6 -851.9,3563.76 C 12379.5,7315.8 13361,6064.1 13877.9,4912 c 386.2,-863.3 638.9,-1829.8 449.6,-2756.5" /><path
         id="path62"
         style="fill:#040606;fill-opacity:1;fill-rule:nonzero;stroke:none"
         d="m 10877.9,10119.3 c 19.9,-1.9 43.3,-2.4 0,0 v 0" /><g
         transform="scale(1.08571)"
         id="g64"><path
           id="path66"
           style="fill:#040606;fill-opacity:1;fill-rule:nonzero;stroke:none"
           d="m 8908.4,12362.5 c 4.69,71.1 10.57,142 17.63,212.8 3.67,36.7 7.64,73.4 11.95,110.1 1.84,15.7 3.74,31.4 5.7,47.1 1.31,10.4 2.67,20.9 3.99,31.4 3.26,25.8 0.2,7.5 -1.17,-6.5 5.12,71.1 21.39,143.5 33.49,213.5 12.57,72.8 26.41,145.3 41.5,217.5 59.81,286.4 139.33,568.6 238.2,844 24.87,69.4 51.12,138.4 78.48,206.9 12.62,31.5 28.27,62.9 38.87,95.1 -17.87,-54.1 0,-0.5 5.62,12.6 8.38,19.4 16.85,38.7 25.42,57.9 58.94,132.5 122.59,262.8 190.84,390.7 64.75,121.4 133.64,240.8 209.45,355.7 36.47,55.3 74.88,109.3 114.67,162.3 1.75,2.2 3.96,5 6.91,8.6 8.93,11.2 18.05,22.4 27.17,33.4 22.75,27.5 46.18,54.5 70.18,80.9 44.5,48.8 91.2,95.7 140.5,139.7 18.5,16.6 37.6,32.3 56.7,48.2 6.5,4.4 16.8,13.6 17.9,14.4 13,9.6 26.3,19 39.7,28.2 53.5,36.8 109.4,69.9 167.6,98.5 13.5,6.6 27.3,12.8 40.9,19.2 2.3,0.8 5.2,1.9 8.7,3.3 30.7,11.7 61.9,22.3 93.4,31.4 29.2,8.5 58.7,15.8 88.5,21.9 15.8,3.3 31.8,6.2 47.9,8.7 6.8,1.2 13.8,1.9 20.6,3.2 -3.8,-0.7 -7.1,-1.4 -10.1,-2 64.2,6.5 128.7,7.8 193.1,4.1 26.5,-1.5 52.9,-5.2 79.2,-7.3 4.6,-0.7 9.2,-1.4 13.7,-2.2 16.1,-2.7 32,-5.8 47.9,-9.1 64.1,-13.4 127.1,-31.2 188.8,-53 15.5,-5.5 30.9,-11.2 46.2,-17.2 4.3,-1.6 10.7,-4.7 16.6,-7.7 -3.1,1.6 -6.6,3.5 -10.6,5.8 28.7,-15.9 60.2,-27.5 89.5,-42.4 59.1,-30.2 116.3,-64 171.3,-101.1 23.7,-15.9 46.7,-32.8 69.8,-49.6 3.6,-3 7.4,-6 11.1,-9 14.6,-11.9 29.1,-24.2 43.4,-36.6 49.7,-43.5 96.9,-89.9 141.2,-138.9 22.1,-24.4 43.5,-49.4 64.4,-74.9 10.4,-12.8 35,-56.5 7.6,-8.9 8.6,-14.9 21.5,-28.6 31.5,-42.6 41.4,-57.2 79.7,-116.6 115.1,-177.6 35.6,-61.1 68.4,-123.9 98.4,-187.9 14,-29.8 26.3,-60.5 40.4,-90.2 -25.6,53.7 -1.5,2.7 3.7,-10.6 7.6,-18.9 14.9,-37.9 21.9,-57 49.1,-131.6 88.8,-266.7 121.1,-403.3 16.5,-69.7 30.9,-139.8 43.8,-210.2 12.8,-70.4 18.3,-143.5 33.8,-213.1 0.6,-4.7 1.2,-9.5 1.8,-14.2 2.3,-18.5 4.5,-37 6.6,-55.5 4.1,-37 8,-74.1 11.4,-111.2 6.8,-74.3 12.1,-148.7 15.8,-223.1 7.2,-146.2 8.4,-292.8 3.8,-439.1 -4.8,-149 -15.8,-297.9 -32.7,-446 -2.2,-18.5 -4.4,-37 -6.7,-55.5 -0.3,-3.1 -0.7,-6.2 -1.2,-9.3 -6.8,-37.6 -10.7,-76.1 -16.7,-113.9 -11.7,-73.6 -24.9,-147 -39.6,-220.1 -58.3,-289.7 -140,-574.8 -244.4,-851.3 -12.2,-32.4 -24.8,-64.7 -37.6,-96.8 -6.9,-17.3 -13.9,-34.6 -21,-51.8 -2.6,-6.4 -5.2,-12.7 -7.9,-19 -0.2,-0.6 -0.5,-1.2 -0.7,-1.8 -29.7,-68.4 -60.3,-136.4 -92.5,-203.6 -62.4,-130 -130,-257.6 -203,-381.9 -68.8,-117.1 -142.6,-231.3 -222,-341.6 -18.4,-25.6 -37.2,-51 -56.2,-76.2 -2.9,-3.8 -5.9,-7.6 -8.8,-11.4 -11,-13.8 -21.8,-27.7 -33,-41.4 -41.2,-50.8 -83.6,-100.5 -127.6,-148.93 -90.6,-99.8 -187.3,-194.12 -290.4,-280.94 -23.6,-19.95 -48.6,-38.54 -72.4,-58.5 -2.2,-1.68 -4.4,-3.34 -6.6,-4.99 -15.3,-11.41 -30.8,-22.65 -46.3,-33.71 -54.6,-38.69 -110.6,-75.21 -168.1,-109.2 -57.7,-34.06 -116.8,-65.63 -177.2,-94.41 -13,-6.18 -26.1,-12.24 -39.3,-18.17 -3.9,-1.79 -15,-6.64 -23.9,-10.57 -1.1,-0.47 -2.1,-0.88 -2.9,-1.19 -16.4,-6.76 -104.3,-33.51 -17.9,-7.57 -15.4,-4.61 -30.2,-11.27 -45.4,-16.38 -56.6,-18.97 -114.1,-32.09 -172.6,-42.22 -4.6,-0.47 -9,-0.96 -13.5,-1.37 -15.6,-1.41 -31.1,-2.46 -46.7,-3.2 -31,-1.45 -62.2,-1.56 -93.2,-0.34 -28.8,1.14 -57.3,5.28 -86,6.83 4.2,-0.23 8,-0.44 11.3,-0.63 -4.2,0.42 -8.4,0.91 -11.5,1.47 -17.42,3.06 -34.74,6.53 -51.96,10.43 -27.91,6.34 -55.63,13.77 -83.08,22.28 -14.74,4.59 -29.38,9.52 -43.93,14.74 -4.89,1.77 -22.02,8.54 -32.34,12.53 -5.34,2.4 -10.59,4.73 -12.8,5.8 -14,6.63 -27.91,13.55 -41.63,20.77 -27.54,14.5 -54.53,30.18 -80.68,46.99 -13.18,8.44 -26.07,17.18 -38.87,26.18 -3.14,2.21 -6.27,4.46 -9.4,6.71 -21.27,19.6 -44.94,37.02 -66.04,56.95 -23.21,21.92 -45.41,44.92 -66.59,68.81 -9.21,10.35 -18.15,20.87 -26.9,31.54 -6.17,7.52 -12.24,15.16 -18.32,22.74 -18.24,22.6 -2.95,-1.37 6.53,-8.44 -25.14,18.75 -46.6,65.56 -63.55,91.97 -20.54,31.87 -40.06,64.37 -58.76,97.36 -37.3,66.14 -70.09,134.35 -101.32,203.56 -0.83,1.8 -1.47,3.2 -2.12,4.6 -0.37,0.8 -0.64,1.6 -1.01,2.5 -7.13,17.7 -14.22,35.3 -21.06,53.1 -14.67,38.1 -28.53,76.5 -41.65,115.2 -47.3,139.4 -84.93,281.8 -117.88,425.3 -32.01,144 -59.1,289.2 -80.72,435.2 -2.18,14.8 -4.27,29.6 -6.4,44.4 -0.63,4.8 -1.32,9.5 -1.93,14.3 -5.04,39.2 -9.7,78.4 -13.98,117.7 -7.71,70.8 -14.2,141.6 -19.47,212.6 -21.89,294.3 -22.89,590.2 -3.44,884.7 z m 3512.9,1557.8 c 0.3,-2.9 0.7,-5.7 1,-8.6 -1.7,11.1 -5.6,45.2 -1,8.6 z M 8947.8,11128.4 c 0.27,-2 0.47,-3.6 0.55,-4.4 -0.14,1.5 -0.36,2.9 -0.55,4.4 z m -2.35,17.1 c -1.42,10 -0.95,6.8 0,0 z M 8608.03,10536 c 135.44,-589.58 386.22,-1280.83 982.6,-1543.74 280,-123.43 590.47,-156.32 887.77,-75.1 30.9,8.45 61.5,18.27 91.4,29.44 8.7,3.21 17.3,6.54 25.9,9.98 1.9,0.79 86.8,36.45 37.3,15.83 22.4,9.47 44.8,18.81 67.2,28.45 63.9,27.53 126.3,58.17 187.2,91.63 134.1,73.72 258.3,161.94 378.4,256.58 457.6,360.83 801.1,864.03 1055.9,1383.13 286.1,583 466.4,1205.7 544.9,1849.7 75.5,619.6 48.3,1261.4 -95.4,1869.6 -142.5,603.1 -439.1,1186 -961,1543.4 -249.4,170.8 -541.9,275.1 -842.9,300.2 -298.2,24.7 -602.7,-54.2 -856,-212 -258.54,-161.1 -462.92,-389.3 -636.08,-637.1 -167.63,-239.8 -304.97,-501.6 -426.15,-767.5 -259.79,-569.8 -440.32,-1172.6 -527.16,-1793.2 -88.88,-635.2 -88.92,-1271.4 4.25,-1906.2 21.82,-148.7 49.28,-296.4 81.87,-443.1" /></g><g
         transform="scale(1.05581)"
         id="g68"><path
           id="path70"
           style="fill:#040606;fill-opacity:1;fill-rule:nonzero;stroke:none"
           d="m 11043.6,16300 c -0.2,0 -0.3,0 -0.5,0 -14.7,-1.5 -46.9,-9.3 0.5,0" /></g><g
         transform="scale(1.04966)"
         id="g72"><path
           id="path74"
           style="fill:#040606;fill-opacity:1;fill-rule:nonzero;stroke:none"
           d="m 11714,16300 c 25.9,-14.2 14.3,-7.3 0,0 v 0" /></g><g
         transform="scale(1.08567)"
         id="g76"><path
           id="path78"
           style="fill:#040606;fill-opacity:1;fill-rule:nonzero;stroke:none"
           d="m 3920.7,13585.3 c 4.63,71.7 10.7,143.3 18.24,214.7 3.91,37.1 8.2,74.1 12.9,111 0.62,4.9 1.35,9.8 2.01,14.7 2.57,17.7 5.06,35.4 7.74,53.1 42.49,280.1 108.15,558 213.32,821.6 1.12,2.8 6.18,15.2 10.33,25.4 1.05,2.5 2.05,4.9 2.62,6.1 4.15,9.3 8.19,18.6 12.36,27.8 14.59,32.3 29.82,64.3 45.73,96 31.72,63.2 66.19,125 103.5,185 18.64,30 38.01,59.5 58.1,88.5 8.62,12.5 17.37,24.8 26.26,37.1 4.37,6 8.82,12 13.25,18 48.12,46.7 86.82,105.6 134.26,153.7 46.52,47.2 96,90.9 147.29,132.9 0.24,0.1 0.41,0.3 0.64,0.5 13.29,9.6 26.47,19.4 39.92,28.9 27.16,19.1 54.87,37.4 83.1,54.8 56.34,34.9 114.73,66.4 174.84,94.2 5.31,2.5 10.65,4.9 15.97,7.3 11.84,4.6 23.54,9.8 35.39,14.3 30.69,11.6 61.75,22.3 93.14,31.9 62.34,19.2 125.93,34.3 190.3,44.8 2.84,0.4 5.19,0.8 7.23,1.2 12.44,1.3 24.88,2.6 37.35,3.7 34.49,2.9 69.11,4.4 103.72,4.5 29.98,0.1 59.96,-0.9 89.87,-3 14.7,-1 29.36,-2.8 44.05,-4 2.42,-0.4 4.85,-0.7 7.26,-1.1 64.5,-10.7 128.01,-27 189.7,-48.6 9.89,-3.5 19.67,-7.3 29.46,-11.1 6.8,-3.5 19.58,-7.8 21.54,-8.7 29.51,-13.5 58.48,-28.2 86.87,-44 55.95,-31 109,-66.4 160.5,-104.2 1.97,-1.6 4.38,-3.6 7.43,-6.1 10.87,-8.8 21.62,-17.8 32.26,-27 26.73,-22.9 52.75,-46.6 78.06,-71.1 47.72,-46.1 93.02,-94.7 136.13,-145.1 20.19,-23.6 39.89,-47.6 59.16,-72 0.9,-1.1 1.72,-2.1 2.49,-3.1 0.71,-1 1.5,-2.1 2.46,-3.4 10,-13.5 20.06,-26.9 29.93,-40.5 39.47,-54.5 77.05,-110.3 113.07,-167.1 74.87,-118 143.01,-240.3 207.37,-364.3 66.75,-128.6 128.86,-259.6 186.28,-392.6 1.35,-3.1 2.79,-6.3 4.19,-9.5 0.38,-0.9 0.81,-1.9 1.34,-3.2 7.03,-17 14.15,-34 21.11,-51.1 13.92,-34.2 27.53,-68.5 40.84,-102.9 26.63,-68.7 52.02,-138 76.19,-207.7 95.86,-276.4 172.29,-559.5 229.02,-846.5 14.31,-72.4 27.36,-145.1 39.16,-217.9 5.9,-36.4 11.48,-72.9 16.74,-109.5 1.06,-7.3 6.42,-47.2 4.78,-34 0.06,-0.4 0.12,-0.9 0.16,-1.2 1.35,-10.5 2.67,-20.9 3.97,-31.4 18.16,-146.5 31.24,-293.6 39.18,-441 15.74,-292.1 11.32,-585.3 -13.72,-876.7 -6.31,-73.6 -13.93,-146.9 -22.87,-220.2 -1.57,-12.8 -3.21,-25.6 -4.85,-38.5 0.21,1.5 0.39,2.6 0.52,3.2 -0.27,-1.3 -0.41,-2.7 -0.63,-4.1 -0.33,-2.5 -0.65,-5.1 -0.97,-7.6 -4.26,-33.5 -1.14,-7.1 0.71,6 -0.91,-5.9 -1.57,-11.9 -2.39,-17.7 -5.55,-39.2 -11.48,-78.3 -17.78,-117.3 -23.2,-143.5 -51.54,-286.2 -84.95,-427.7 -34.63,-146.6 -75.72,-291.9 -127.86,-433.2 -6.5,-17.6 -13.15,-35.2 -20.01,-52.7 -4.02,-10.2 -18.57,-33 -17.95,-44.1 -2.09,-4.7 -4.16,-9.5 -6.28,-14.2 -8.72,-19.5 -17.7,-38.9 -26.95,-58.19 -31.18,-64.99 -65.41,-128.54 -103.08,-190 -19.56,-31.92 -39.97,-63.36 -61.48,-93.99 -10.27,-14.61 -20.88,-28.95 -31.49,-43.3 -3.53,-4.78 -6.15,-8.36 -8.1,-11.04 -3.71,-4.05 -7.33,-7.79 -8.24,-8.86 -40.98,-48.66 -86.31,-93.64 -135.18,-134.34 -3.42,-2.84 -7.1,-5.6 -10.71,-8.4 -10.11,-7.21 -20.11,-14.57 -30.41,-21.53 -25.78,-17.44 -52.31,-33.77 -79.49,-48.92 -25.14,-14.02 -50.84,-27.02 -77,-38.99 -1.22,-0.56 -2.31,-1.06 -3.37,-1.55 -16.08,-6.04 -32.11,-12.17 -48.4,-17.68 -57.34,-19.35 -115.86,-33.05 -175.4,-43.41 -14.74,-1.25 -29.43,-2.82 -44.19,-3.78 -30.96,-2 -62.02,-2.68 -93.04,-2.02 -30.35,0.66 -60.67,2.63 -90.86,5.84 -16.67,3.25 -33.49,5.78 -50.13,9.29 -61.66,13.04 -121.2,32.13 -179.93,54.82 -1.08,0.42 -2.03,0.78 -2.96,1.14 -0.18,0.09 -0.32,0.15 -0.51,0.23 -13.13,5.87 -26.3,11.65 -39.36,17.68 -32.57,15.02 -64.77,30.86 -96.56,47.46 -59.21,30.91 -117,64.48 -173.29,100.41 -54.35,34.68 -106.87,71.85 -158.62,110.27 -0.55,0.41 -1,0.74 -1.49,1.11 -1.42,1.12 -2.96,2.35 -4.79,3.81 -13.12,10.41 -26.16,20.93 -39.07,31.58 -25.88,21.34 -51.38,43.16 -76.48,65.41 -101,89.56 -195.58,186.31 -284.16,288.15 -20.68,23.8 -41.02,47.8 -61.05,72.2 -10.81,13.1 -21.52,26.2 -32.13,39.5 -4.56,5.7 -9.08,11.4 -13.6,17.1 -0.75,1 -1.39,1.8 -2.06,2.6 -38.43,52.6 -77.94,104.2 -115,157.9 -74.42,107.7 -143.59,218.9 -208.59,332.5 -73.64,129.7 -142.08,262.3 -204.63,397.7 -14.52,31.4 -28.73,63 -42.63,94.7 -7.46,17 -15.81,33.9 -22.2,51.3 0.25,-0.7 16.28,-39.1 6.77,-16 -5.05,12.3 -10.21,24.6 -15.25,36.9 -27.2,66.6 -53.06,133.7 -77.57,201.3 -101.68,280.3 -180.19,569.1 -234.79,862.3 -13.16,70.7 -24.95,141.6 -35.33,212.7 -1.53,10.5 -2.98,21 -4.5,31.5 -0.25,2 -0.48,3.7 -0.61,4.7 -1.31,10.6 -2.67,21.2 -3.96,31.7 -4.51,37 -8.66,74.1 -12.42,111.1 -15.06,148.3 -24.02,297.3 -26.85,446.3 -2.82,149 0.51,298.1 10.09,446.8 z m 526.51,1699.2 c 1.52,2 3.04,4.1 4.57,6.2 15.38,20.9 4.45,3.6 -4.57,-6.2 z M 7005.72,14313 c -1.34,3.2 -3.99,9.5 -6.1,14.6 2.16,-4.9 4.22,-9.8 6.1,-14.6 z m 155.75,-4251.7 c -1.12,-2.5 -2.25,-5.1 -3.37,-7.6 1.22,6.8 19.84,44.9 3.37,7.6 z m -237.96,-415.31 c 3.35,4.52 6.55,8.98 6.46,9.28 0.36,-1.14 -2.76,-5.08 -6.46,-9.28 z M 4907.8,10182.4 c -13.46,17.1 -9.3,12.4 0,0 z m 1.94,-2.6 c 1.18,-1.6 2.4,-3.3 3.68,-5 -1.22,1.7 -2.46,3.3 -3.68,5 z m -914.89,674.3 c 63.47,-137.9 133.02,-272.9 207.98,-405 290.35,-507.65 673.58,-979.06 1173.76,-1292.16 251.3,-157.31 532.04,-277.36 831.97,-285.61 284.26,-7.83 578.51,83.33 805.03,255.81 275.18,209.55 448.5,506.83 576.82,823.09 116.28,286.57 185.39,592.47 236.98,896.67 104.75,618 123.73,1248 47.3,1870.4 -78.38,638.4 -243.8,1255.2 -498.82,1845.8 -234.02,542 -537.31,1100.8 -1021.81,1457.4 -241.38,177.7 -536.83,277.8 -836.93,278.7 -300.24,0.8 -600.06,-92.1 -857.59,-243.9 -543.07,-320.2 -865.44,-891.7 -1026.39,-1486 -82.59,-304.9 -128.13,-621.5 -151.27,-936.2 -22.63,-307.9 -18.39,-617.7 11.87,-925 63.36,-643.2 230.83,-1266.7 501.1,-1854" /></g><path
         id="path80"
         style="fill:#040606;fill-opacity:1;fill-rule:nonzero;stroke:none"
         d="m 8065.71,12102.9 c 0.04,0.3 0.08,0.7 0.12,1 -0.12,-0.8 -0.26,-1.8 -0.4,-2.8 0.09,0.6 0.18,1.2 0.28,1.8" /><g
         transform="scale(1.09067)"
         id="g82"><path
           id="path84"
           style="fill:#040606;fill-opacity:1;fill-rule:nonzero;stroke:none"
           d="m 15825.5,9854.78 c -0.6,-4.75 -1.2,-9.5 -1.8,-14.25 -4.6,-30.75 -8.7,-61.59 -13.6,-92.32 -20.1,-127.22 -45.4,-253.64 -75.4,-378.88 -60.7,-252.99 -141.4,-501.19 -240.7,-741.66 -0.7,-1.54 -1.3,-3.08 -1.9,-4.62 -6.7,-12.92 -11.7,-27.14 -17.5,-40.46 -14.2,-32.39 -28.7,-64.63 -43.5,-96.72 -26.6,-57.31 -54.2,-114.11 -82.9,-170.37 -59.7,-117.01 -124,-231.67 -192.6,-343.62 -67.4,-109.78 -139.1,-216.92 -214.9,-321.1 -19.2,-26.55 -38.8,-52.9 -58.6,-79.06 -4.1,-5.32 -8.7,-10.61 -12.6,-16.21 -7.5,-9.68 -15.1,-19.38 -22.7,-29.01 -41,-51.38 -82.9,-101.93 -125.9,-151.61 -167.8,-194.05 -351.4,-370.6 -550.7,-531.97 -1.4,-1.19 -2.8,-2.29 -4.3,-3.39 -11.9,-8.99 -23.8,-17.88 -35.7,-26.68 -28,-20.54 -56.3,-40.62 -84.9,-60.15 -50.8,-34.84 -102.8,-68.12 -155.9,-99.57 -54.9,-32.64 -111.1,-63.27 -168.3,-91.69 -26.3,-13.02 -52.8,-25.67 -79.5,-37.77 -3.3,-1.47 -18.8,-8.26 -28.9,-12.65 -9.7,-3.95 -22.7,-9.17 -26.7,-10.82 -116.3,-45.57 -236.4,-81.33 -358.9,-105.44 -24.9,-4.86 -52,-6.7 -76.8,-13.02 -0.8,-0.09 -1.7,-0.19 -2.5,-0.28 -15.6,-1.37 -31.2,-2.38 -46.8,-2.93 -26.7,-1.1 -53.3,-1.1 -80,0 -15.4,0.64 -30.8,1.65 -46.2,3.02 -3.9,0.37 -7.9,0.83 -11.8,1.2 -52,9.35 -103.2,20.62 -153.5,37.31 -12.4,4.13 -24.7,8.44 -36.9,13.02 -1.1,0.46 -3.2,1.29 -5.6,2.2 -6.2,2.85 -20.9,9.35 -25.3,11.46 -13.7,6.6 -27.2,13.48 -40.5,20.63 -24.7,13.48 -48.9,27.87 -72.5,43.37 -10.8,7.15 -21.6,14.49 -32.2,22.01 -2.3,1.65 -4.1,2.93 -5.8,4.12 -42.5,35.39 -82.7,73.07 -119.2,114.61 -7.9,8.99 -15.5,18.15 -23.2,27.32 0,0.19 -0.1,0.37 -0.3,0.55 -17.9,25.67 -35.5,51.35 -51.4,78.3 -13.8,23.38 -26.6,47.22 -38.5,71.61 -2.6,5.5 -22.8,40.16 -20.2,44.37 0,0 15.5,-38.6 5.9,-14.12 -3.9,10.37 -8.2,20.63 -12.3,31 -52,134.32 -86.5,274.88 -108.5,417.09 -1.3,8.17 -8.9,59.6 -4.3,28.55 4.6,-30.98 -2.2,20.52 -3.1,28.8 -4.3,38.82 -7.7,77.72 -10.6,116.67 -4.9,69.61 -7.8,139.39 -9,209.17 -2.4,134.69 0.9,269.49 8.7,403.96 7.6,128.89 19.7,257.52 36.1,385.59 0.2,2.03 0.5,4.06 0.8,6.09 2.4,16.09 4.6,32.18 7,48.27 4.8,32.56 10,65.07 15.4,97.53 10.8,64.95 22.7,129.71 35.7,194.24 51.7,255.77 120.9,508 206.5,754.48 21.6,62.24 44.3,124.11 68,185.59 11,28.37 22.1,56.66 33.6,84.86 5.7,14.1 11.4,28.18 17.2,42.23 1.8,4.35 3.6,8.7 5.4,13.04 52.2,120.13 106.9,238.93 166.3,355.63 118.4,232.5 252.6,457.2 401.5,671.5 36.1,52.1 73.1,103.5 111,154.3 10.5,14.2 21.3,28.3 32,42.5 1.3,1.7 2.6,3.5 4,5.3 21.3,23.8 39.9,50.9 60,75.8 82,101.8 167.5,201.2 257.2,296.4 86.5,91.8 177.5,179.7 274.7,260.2 11.4,9.5 23,18.8 34.5,28.1 1.4,1.1 2.5,2 3.5,2.9 1.5,1 2.9,2.1 4.7,3.4 25.5,19.2 51.5,37.8 77.9,55.7 52.4,35.5 106.5,68.4 162.4,97.9 25.6,13.5 51.5,26.3 77.9,38.2 0.9,0.5 2,0.9 3,1.3 14.8,3.9 29.9,12 44.4,17.2 58.6,21.2 118.9,38 180.1,49.7 8.9,1.7 17.8,3.2 26.8,4.6 8.9,0.9 23.8,2.9 22.5,2.7 30,2.7 60.1,4.1 90.2,4.2 27.4,0.1 54.7,-0.9 81.9,-2.9 11.2,-0.9 22.4,-2.1 33.6,-3.2 5.3,-0.8 10.5,-1.6 15.8,-2.6 55.8,-9.8 110.7,-24 164.4,-41.9 15.1,-5 30.1,-10.4 45,-16 2.7,-1.1 10,-4 16.7,-6.6 7.1,-3.2 15.7,-7 18.8,-8.5 14.5,-6.7 28.9,-13.8 43.1,-21.1 53.2,-27.3 104.6,-58.1 153.8,-92 11.4,-7.9 22.7,-16 33.9,-24.1 0.7,-0.6 1.6,-1.2 2.4,-1.8 22.1,-21.6 48.7,-39.8 71.6,-60.5 43.2,-39 84.2,-80.5 122.7,-124.1 18.2,-20.7 34.7,-43.1 53,-63.9 1.4,-1.9 2.8,-3.8 4.3,-5.8 9.5,-13.1 18.9,-26.4 28,-39.9 35.2,-51.6 67,-105.3 95.8,-160.7 14.5,-28.1 28.4,-56.4 41.5,-85.2 1.6,-3.5 7.1,-16.3 11.1,-25 0.3,-0.8 0.5,-1.5 0.7,-2 4.8,-12.2 9.6,-24.4 14.3,-36.7 47.4,-125.4 81.8,-255.4 105.6,-387.2 5.3,-29.5 5.6,-64.3 14.8,-92.7 0.6,-4.6 1.1,-9.1 1.7,-13.6 2.1,-18.4 4,-36.9 5.8,-55.3 6.6,-68.8 10.8,-137.8 13,-206.8 4,-132.8 0,-265.5 -9.2,-398 -4.8,-65.5 -10.8,-130.9 -18.3,-196.17 -1.7,-15.06 -3.4,-30.11 -5.3,-45.15 z m 11.1,925.12 c 0.4,-3.3 0.8,-6.5 1.1,-9.8 -1.9,9.5 -5.7,47.7 -1.1,9.8 z m 89.5,1013 c -158.3,228.2 -365.8,426.7 -613.6,555.4 -264.8,137.5 -551.5,190.3 -846.9,148.2 -556.2,-79.3 -997.2,-517.7 -1338,-932.3 -355.3,-432.1 -651.3,-909.7 -872.3,-1423.9 -228.8,-532.29 -380.9,-1085.29 -454.6,-1659.96 -35,-272.58 -50.9,-548.23 -44,-823.03 7.8,-312.34 47,-631.66 165.9,-922.58 59.8,-146.24 132.9,-275.24 237.7,-394.44 86.2,-98.1 193.4,-183.09 307.4,-246.63 247.8,-138.08 529.9,-181.72 808.4,-135.61 554.4,91.78 1048.8,406.18 1451.8,786.58 401.6,379.22 737,838.14 989.9,1328.52 255.2,494.76 435.6,1029.97 520.2,1580.53 22.5,146.79 40.3,294.34 51.2,442.42 40.1,576.2 -25,1209.9 -363.1,1696.8" /></g><path
         id="path86"
         style="fill:#040606;fill-opacity:1;fill-rule:nonzero;stroke:none"
         d="m 13966.6,1785.7 c -3,-7.4 -11.1,-39.8 -17.7,-43.6 4,9.4 7.9,18.9 11.9,28.4 -4.1,-9.6 -8.3,-19.2 -12.5,-28.8 -25.5,-57.4 -53,-114 -82.5,-169.5 -56.3,-106.2 -119.7,-208.7 -190,-306.2 -9.1,-12.7 -18.3,-25.3 -27.7,-37.9 -4.1,-5.5 -37.4,-39.7 -9.7,-12.9 28.2,27.1 -6.2,-7.5 -10.2,-12.4 -9.8,-12.1 -19.6,-24.2 -29.7,-36.1 -39.8,-47.6 -81.5,-93.8 -124.8,-138.2 -39.5,-40.5 -80.5,-79.598 -122.8,-117.199 -23,-20.403 -46.4,-40.301 -70.3,-59.699 -1.1,-0.899 -8.7,-6.903 -16.7,-13.102 3.6,2.301 1.7,0.402 -14.8,-11.801 -2.7,-2.199 -4.5,-3.699 -4.4,-3.898 -0.1,0.199 0.1,0.5 0.4,1 -0.2,-0.199 -0.3,-0.301 -0.6,-0.5 -93.9,-69.301 -193.4,-131 -297.8,-183.399 -27.1,-13.601 -54.7,-26.101 -82.3,-38.902 -0.5,-0.297 -1,-0.5 -1.5,-0.699 -13.1,-5.199 -26.2,-10.5 -39.4,-15.399 -57,-21.601 -115,-40.3 -173.8,-56 -54.3,-14.402 -109.3,-26.402 -164.8,-35.601 -9.1,-1.602 -18.1,-2.899 -27.2,-4.301 -0.3,0 -0.6,0 -0.9,-0.098 -35.8,-3.402 -71.4,-7.101 -107.2,-9.203 -114.9,-6.699 -230.4,-2.898 -344.8,10.102 1.5,-0.399 3.1,-0.801 4.7,-1.102 -2.5,0.5 -5.1,1 -7.7,1.5 -1.1,0.102 -2.2,0.301 -3.4,0.504 -8.5,1.297 -17.2,2.098 -25.6,3.399 -26.9,4.199 -53.8,8.898 -80.5,14 -58.5,11.097 -116.7,24.398 -174.3,39.398 -111.7,29 -221.7,64.602 -330.1,104.102 -52.6,19.199 -104.8,39.296 -156.7,60.199 -28.6,11.402 -56.9,23.199 -85.4,34.898 -0.2,0.102 -0.3,0.203 -0.5,0.203 -16.2,7 -32.5,13.996 -48.8,21 -459.5,199 -908.5,431.598 -1392.62,567.098 -255.52,71.5 -522.44,115.3 -788.07,118 -266.23,2.8 -535.01,-37.7 -791.98,-106 C 7637.52,1217.8 7186.64,986.602 6727.78,785.402 6701.76,774 6675.7,762.699 6649.59,751.5 c -0.02,0 -0.03,0 -0.05,0 -12.8,-1.598 -30.27,-12.699 -42.14,-17.598 -56.6,-23.402 -113.49,-46 -170.8,-67.5 -108.27,-40.699 -218,-77.601 -329.51,-108.402 -98.94,-27.199 -199.69,-41.398 -299.42,-62.598 7.1,1.2 -17.48,-5 -29.9,-6.601 -1.82,-0.403 -3.65,-0.699 -5.47,-1.199 1.72,0.398 3.31,0.796 4.89,1.199 -0.02,0 -0.04,0 -0.07,0 -14.78,-1.699 -29.59,-3.199 -44.41,-4.602 -24.75,-2.297 -49.54,-4.097 -74.36,-5.5 -60.06,-3.398 -120.28,-4.097 -180.41,-2 -30.48,1 -60.94,2.801 -91.34,5.301 -19.59,1.602 -55.44,11.699 -75.13,8.102 -14.92,2.398 -29.81,4.898 -44.67,7.699 -30.17,5.597 -60.18,12 -90.02,19.101 -56.84,13.598 -112.97,30.098 -168.21,49.2 -26.14,9 -52.08,18.699 -77.79,28.898 -8.05,9 -36.75,16 -47.68,21.102 -107.94,50.597 -211.11,111.097 -308.49,179.796 -3.67,2.602 -50.45,38.301 -59.9,44.204 -0.49,0.398 -0.99,0.796 -1.48,1.199 -11.96,9.597 -23.82,19.402 -35.58,29.301 -47.22,39.597 -92.81,81.097 -136.72,124.398 -40.49,39.9 -79.54,81.2 -117.12,123.8 -20.58,23.4 -40.73,47.1 -60.42,71.2 -6.58,8 -13.04,16.2 -19.58,24.3 -1.88,2.3 -3.45,4.3 -4.81,6 -1.78,2.4 -3.59,4.8 -5.37,7.1 -71.99,96.2 -137.27,197.4 -195.49,302.5 -27.91,50.4 -54.19,101.7 -78.82,153.7 -6.12,13 -43.93,73.9 -38.78,85.9 3.98,-9.5 7.96,-18.9 11.94,-28.4 -4.03,9.7 -7.99,19.3 -11.91,29 -5.86,14.6 -11.6,29.2 -17.21,43.8 -44.72,116.8 -81.22,236.7 -108.73,358.6 -14.95,66.3 -27.25,133.2 -37.46,200.3 -1.7,11.2 -3.63,22.5 -5,33.8 -0.81,8 -1.62,15.9 -1.96,18.9 -5.19,45.3 -9.41,90.7 -12.7,136.2 -10.79,149.3 -11.41,299.4 -3.18,448.8 3.95,71.8 9.94,143.4 17.8,214.7 2.15,19.6 4.62,39 6.86,58.5 0.33,2.9 0.6,5.3 0.85,7.5 0.3,2 0.64,4.1 1.02,6.6 5.91,39 11.7,77.9 18.33,116.7 25.52,149.4 58.58,297.6 97.79,444 39.4,147.2 85.05,292.7 135.74,436.4 25.36,71.9 52,143.3 79.77,214.3 13.26,33.8 26.78,67.6 40.56,101.3 7.49,18.3 14.7,36.9 22.73,55 -24.01,-54.2 10.46,24.2 14.58,33.7 102.72,237 218.7,467.8 346.11,692.4 132.16,233.1 275.78,459.6 428.28,679.8 78.64,113.6 159.69,225.5 242.92,335.8 10.95,14.4 21.93,28.9 32.95,43.4 2.29,3 8.82,11.5 14.33,18.7 17.92,23.3 36.1,46.4 54.29,69.4 47.24,59.8 95.13,119.2 143.65,178 356.26,431.9 745.73,837.3 1166.86,1206.38 102.26,89.61 206.45,177.03 312.64,261.94 27.32,21.84 54.86,43.4 82.36,65.02 1.29,1.01 2.43,1.91 3.52,2.77 0.94,0.72 1.88,1.43 2.96,2.25 13.8,10.48 27.54,21.03 41.36,31.48 54.79,41.42 110.1,82.14 165.96,122.1 205.9,147.32 419.21,286.07 641.54,407.42 59.22,32.32 119.67,62.37 181.2,90.04 3.3,1.49 12.1,5.51 20,9.15 13.42,5.68 27.07,10.97 40.59,16.27 33.91,13.29 68.08,25.89 102.5,37.77 131.09,45.23 265.77,80.06 402.35,104.09 17.74,3.12 35.51,6.06 53.31,8.82 2.43,0.37 6.52,1.16 11.11,2.1 27.84,5.57 57.55,6.57 85.75,9.18 71.56,6.63 143.4,10.32 215.26,11.09 71.85,0.76 143.73,-1.41 215.4,-6.51 29.88,-2.12 59.73,-4.76 89.52,-7.9 17.43,-1.84 36.49,-2.32 53.59,-6.21 -67.16,15.28 11.41,-1.99 25.27,-4.23 136.79,-22.09 271.81,-54.9 403.42,-98.24 59.14,-19.47 119.04,-39.91 176.18,-64.97 8.21,-3.79 17.83,-8.21 21.32,-9.78 13.94,-6.26 27.81,-12.67 41.63,-19.18 36.07,-16.99 71.76,-34.78 107.01,-53.4 224.7,-118.66 439.5,-258.16 646.7,-404.84 51.2,-36.26 102,-73.17 152.3,-110.67 27.8,-20.67 55.3,-41.65 82.9,-62.55 1.5,-1.17 2.9,-2.23 4.2,-3.19 0.7,-0.59 1.4,-1.14 2.3,-1.8 16,-12.58 32.1,-25.1 48.1,-37.74 108.8,-85.98 215.5,-174.59 320.1,-265.54 210,-182.45 411.9,-374.12 606,-573.32 196.5,-201.8 385.1,-411.5 565.1,-628.1 43,-51.6 85.4,-103.7 127.4,-156.1 22.8,-28.6 45.5,-57.2 68,-86 10.7,-13.6 21.4,-27.2 31.9,-40.9 5.8,-7.6 11.7,-15.4 14.1,-18.6 85.7,-112.4 169.2,-226.6 250.2,-342.5 300.3,-430.2 569,-884.7 779.9,-1365.5 7.9,-18.1 15.8,-36.2 23.6,-54.4 3.3,-7.8 30.5,-68.3 6.6,-15.5 13.6,-30.1 25.3,-61.1 37.6,-91.7 30.9,-76.8 60.4,-154.1 88.5,-231.9 52.8,-146.4 100.6,-294.8 141.9,-444.9 40.2,-146.2 74.5,-294.2 101.3,-443.5 5.8,-32.3 11.3,-64.7 16.4,-97.1 3.1,-19.5 5.8,-39 8.8,-58.4 0.4,-2.6 0.7,-4.9 1,-6.9 0.3,-2.2 0.6,-4.5 0.9,-7.2 9,-78 17.2,-155.9 22.4,-234.2 9.4,-143 10.8,-286.5 3.1,-429.6 -3.9,-71.6 -10.6,-142.9 -18.6,-214.2 -0.4,-3.7 -0.7,-6.7 -1,-9.3 -0.2,-1.4 -0.4,-2.9 -0.7,-4.5 -3,-19.4 -5.8,-38.8 -9,-58.2 -6.4,-38.8 -13.6,-77.5 -21.4,-116 -25.5,-122.4 -59.3,-242.7 -101.8,-360.3 -8.9,-24.5 -18.1,-49 -27.7,-73.3 z m -209.3,3886.6 c -288.9,502.7 -629.7,975.3 -1000.5,1420.6 -371.4,445.9 -778.3,863.62 -1219.4,1240.96 -218.4,186.82 -445.3,364.49 -680.7,529.47 -218.2,152.97 -445.2,300.84 -684.6,418.77 -560.3,276.04 -1188.38,362.47 -1802.97,254.13 C 7806.03,9436.97 7310.55,9142.58 6852.42,8813.17 6381.87,8474.82 5945.35,8090.27 5543.44,7673 4758.22,6857.7 4067.84,5914.7 3624.78,4868.7 3148.26,3743.6 2902.32,2409.2 3523.67,1287.6 3772.85,837.902 4153.67,436.602 4620.27,211.402 5107.07,-23.5 5641.32,-53.5 6162.46,76.1992 6652.18,198.203 7104.24,436.902 7564.42,637.5 c 25.63,11.199 51.34,22.199 77.02,33.203 13.49,5.598 26.97,11.199 40.49,16.797 63.52,26.102 127.42,51.301 191.79,75.199 114.07,42.403 229.66,80.801 347,113.199 122.69,33.801 246.82,59.704 372.55,79.004 0.98,0.098 1.91,0.2 3.01,0.297 16.14,1.703 32.24,3.703 48.38,5.403 27.05,2.699 54.14,5 81.26,6.8 71.47,4.899 143.15,6.7 214.77,5.297 60.16,-1.297 120.26,-4.797 180.17,-10.398 14.55,-1.301 88.87,0.101 96.67,-10.801 -10.61,1.402 -21.22,2.801 -31.82,4.203 10.63,-1.601 21.25,-3.101 31.86,-4.805 21.17,-3.296 42.3,-6.796 63.39,-10.597 120.36,-21.5 239.24,-50.801 356.37,-85.801 121.59,-36.297 241.28,-78.797 359.46,-124.898 44.71,-17.5 96.81,-32.102 140.81,-54.2 6.3,-4 15.6,-9.3 21.6,-11.902 14.5,-6.199 29,-12.5 43.5,-18.801 33.9,-14.597 67.6,-29.5 101.3,-44.5 456.5,-202.797 910.7,-437.5 1402.4,-543.0974 524.8,-112.8008 1060.9,-60.90238 1536.4,196.3984 456.4,247 825.5,658.199 1059.2,1118.3 115.7,227.6 204.9,469.8 257,719.9 129.3,643.8 70.2,1304.4 -103.3,1934.3 -158.3,574.9 -401.6,1129.8 -698.4,1646.3" /><path
         id="path88"
         style="fill:#040606;fill-opacity:1;fill-rule:nonzero;stroke:none"
         d="m 5777.77,488.801 c 9.96,2.301 19.93,4.5 29.9,6.601 -3.06,-0.5 -12.07,-2.402 -30.48,-6.601 0.19,0 0.39,0 0.58,0" /><path
         id="path90"
         style="fill:#040606;fill-opacity:1;fill-rule:nonzero;stroke:none"
         d="m 13245.1,823.801 c 1.5,1.101 2.7,2 4,2.898 3.7,3.102 9.3,7.5 14.8,11.801 -4.4,-2.898 -16.4,-11.699 -18.8,-14.699" /><path
         id="path92"
         style="fill:#040606;fill-opacity:1;fill-rule:nonzero;stroke:none"
         d="m 11998.4,490.703 c 1.2,-0.203 2.3,-0.402 3.4,-0.504 1.1,-0.199 2,-0.297 2.9,-0.398 0.1,0 0.1,0 0.1,0 -55.3,12.801 -25.8,4.301 -6.4,0.902" /><path
         id="path94"
         style="fill:#040606;fill-opacity:1;fill-rule:nonzero;stroke:none"
         d="m 506.641,11761.5 c -0.692,-4.9 -1.465,-9.9 -2.063,-14.8 0,0 0,0 0,0 0.457,2.2 1.762,10.3 2.594,18.1 -0.172,-1.1 -0.363,-2.2 -0.531,-3.3" /><path
         id="path96"
         style="fill:#040606;fill-opacity:1;fill-rule:nonzero;stroke:none"
         d="m 2946.67,7094 c -2.21,0.9 -4.41,1.8 -6.61,2.7 -15,7.4 -31.11,13.3 -46.3,20.2 -63.23,28.9 -125.28,60.2 -186.11,93.8 -120.17,66.4 -235.49,141.4 -345.89,223 -10.59,7.8 -21.06,15.8 -31.55,23.7 -5.22,4.5 -11.25,8.6 -16.59,12.8 -27.61,21.9 -54.92,44.2 -81.91,66.9 -54.03,45.4 -106.81,92.3 -158.38,140.4 -101.14,94.47 -197.44,193.96 -289.82,296.97 -47.8,53.31 -94.5,107.6 -140.08,162.82 -22.78,27.6 -45.29,55.43 -67.5,83.5 -8.4,10.61 -16.52,21.6 -25.08,32.13 -4.39,5.77 -8.79,11.54 -13.15,17.33 -170.81,226.41 -323.49,466.45 -456.65,716.85 -65.96,124.02 -127.116,250.59 -183.331,379.31 -6.106,13.97 -11.934,28.12 -18.063,42.11 -2.027,4.89 -4.058,9.79 -6.07,14.7 -13.586,33.12 -26.84,66.39 -39.773,99.78 -25.868,66.78 -50.422,134.06 -73.645,201.8 -91.996,268.33 -163.105,543.8 -211.914,823.3 -5.688,32.5 -11.07,65.1 -16.149,97.8 -2.539,16.3 -5,32.7 -7.386,49 -1,6.9 -1.965,13.7 -2.938,20.6 -5.203,67.6 -16.285,135.1 -22.386,202.8 -13.391,148.5 -20.372,297.6 -18.918,446.6 0.738,75.5 3.652,150.9 9.093,226.2 2.504,34.7 5.547,69.3 9.16,103.9 1.805,17.2 3.75,34.5 5.848,51.7 -0.418,-2 -0.144,0.9 1.836,13.5 0.07,0.4 0.152,0.9 0.227,1.3 0.507,3.7 1,7.4 1.175,11 -0.113,-2.3 -0.351,-5 -0.644,-7.7 23.094,146 54.871,290.2 102.16,430.5 10.953,32.5 22.656,64.7 35.137,96.7 1.16,2.9 2.34,5.9 3.539,8.8 11.269,17.5 17.703,41.4 26.433,60 29.192,62 61.422,122.7 97.485,181 17.262,28 35.344,55.4 54.219,82.3 8.738,12.4 17.777,24.6 26.703,36.9 0.164,0.2 0.289,0.4 0.449,0.6 1.183,1.5 2.469,3.1 3.984,4.9 41.489,51.4 85.946,100.4 133.121,146.6 21.748,21.3 44.078,42 66.958,62.1 11.42,10 22.98,19.9 34.68,29.6 5.63,4.6 11.34,9.2 16.98,13.9 48.95,35.5 98.6,69.6 151.03,100 28.12,16.3 56.78,31.6 85.93,46 13.41,6.6 26.91,13 40.52,19.2 2.17,1 4,1.9 5.68,2.6 59.76,22.8 120.21,42.9 182.56,57.5 27.77,6.5 55.75,11.6 83.83,16.5 19.14,1.7 38.25,3.6 57.45,4.7 62.12,3.4 122.94,-0.4 184.77,-5 1.07,-0.1 2.18,-0.2 3.23,-0.4 18.13,-3 36.19,-6.4 54.16,-10.2 33.25,-7 66.19,-15.5 98.77,-25.1 30.03,-8.9 59.74,-18.9 89.09,-29.8 6.4,-2.4 12.76,-4.9 19.15,-7.3 12.97,-6 26.32,-11.3 39.2,-17.4 122.95,-58 227.56,-136.8 340.38,-210.5 2.27,-1.8 4.53,-3.6 6.79,-5.4 14.71,-11.9 29.27,-23.9 43.72,-36.1 26.89,-22.7 53.35,-45.9 79.4,-69.5 52.1,-47.3 102.57,-96.3 151.69,-146.6 97.33,-99.8 189.66,-204.4 278.68,-311.6 22.96,-27.6 45.68,-55.5 68.13,-83.5 10.37,-13 20.68,-25.9 30.94,-39 4.24,-5.3 8.44,-10.7 12.67,-16.1 42.03,-55.3 83.52,-110.9 123.84,-167.4 165.3,-231.6 314.55,-474.6 446.75,-726.6 65.47,-124.8 126.76,-251.8 183.76,-380.7 6.71,-15.1 13.36,-30.3 19.95,-45.5 2.23,-5.2 4.45,-10.4 6.67,-15.5 12.05,-32.2 26.46,-63.7 39.2,-95.6 26.64,-66.7 52.16,-133.9 76.54,-201.5 96.55,-267.7 175.14,-541.9 234.84,-820.18 29.55,-137.76 54.46,-276.51 74.63,-415.96 0.74,-5.13 3.41,-24.53 4.7,-33.74 1.4,-10.9 2.92,-22.65 3.29,-25.66 4.43,-35.65 8.54,-71.33 12.34,-107.04 7.61,-71.43 13.96,-142.99 19.05,-214.65 21.22,-298.69 23.41,-599.8 -9.44,-897.68 -0.33,-3.04 -0.6,-5.52 -0.81,-7.53 -0.04,-0.29 -0.08,-0.52 -0.12,-0.82 -2.7,-17.97 -5.38,-35.94 -8.35,-53.87 -6.42,-38.76 -13.72,-77.37 -21.97,-115.78 -16.47,-76.62 -36.77,-152.39 -61.6,-226.79 -11.47,-34.3 -23.9,-68.3 -37.32,-101.9 -3.05,-7.6 -17.29,-44.5 -5.24,-13.3 11.19,29 0.28,0.9 -2.11,-4.2 -8.1,-17.4 -16.1,-34.7 -24.82,-51.8 -13.41,-26.2 -27.87,-51.9 -43.37,-77 -7.68,-12.5 -15.61,-24.7 -23.79,-36.9 -4.45,-6.6 -20.69,-28.5 -25.78,-35.9 -2.81,-3.4 -5.28,-6.4 -6.55,-8 -9.28,-11 -18.77,-21.8 -28.48,-32.4 -20.93,-22.9 -42.83,-44.9 -65.64,-66 -12.24,-11.3 -24.74,-22.2 -37.48,-33 -1.39,-1.1 -4.02,-3.3 -7.08,-5.8 -6.59,-4.8 -19.34,-14.3 -23.37,-17.1 -13.59,-9.5 -27.38,-18.6 -41.39,-27.5 -23.98,-15.1 -48.57,-29.2 -73.65,-42.4 -14.63,-7.7 -29.45,-15.1 -44.41,-22.1 -1.63,-0.8 -3.28,-1.5 -4.92,-2.3 -58.18,-15.5 -113.21,-39.9 -172.8,-52.5 -13.66,-2.8 -27.38,-5.5 -41.14,-7.8 -26.52,-0.8 -53.37,-5.3 -79.93,-6.2 -31.46,-1.1 -62.96,-0.8 -94.39,0.9 -14.63,0.8 -29.23,1.9 -43.82,3.2 -2.32,0.3 -4.29,0.4 -6.1,0.6 -132.49,27.4 -262.15,55 -390.13,100.4 -30.12,10.6 -60.02,21.9 -89.68,33.8 z m -2424.9,3621.6 c -0.571,4 -1.149,8 -1.723,12 -4.328,30.4 0.324,2.5 1.723,-12 z m 3478.82,93.8 c 0.12,-0.3 0.23,-0.5 0.34,-0.8 12.32,-28.5 5.21,-12.3 -0.34,0.8 z M 3861.56,7020.2 c -3.77,-1.7 -7.54,-3.4 -11.3,-5.2 -24.47,-11.2 -2.18,-0.2 11.3,5.2 z m -558.68,-524.1 c 11.68,-2.4 23.53,-4 35.45,-4.9 297.02,-38 592.54,9.2 855.15,160.8 123.47,71.3 239.61,164.8 332.36,273.3 111.65,130.7 188.1,269.2 252.92,427.5 129.55,316.6 170.48,666.51 177.74,1006.19 6.46,302.39 -11.51,605.63 -50.79,905.47 -81.73,623.82 -247.61,1223.94 -496.86,1801.64 -241.74,560.3 -565.38,1080.6 -953.81,1550.8 -385.13,466.3 -869.16,931.9 -1494.41,1015.9 -625.37,84 -1211.567,-276.8 -1557.618,-778.9 C 36.8398,12322.5 -33.6914,11628.1 12.6211,11000.7 58.9609,10372.9 211.668,9763.74 457.16,9184.88 694.387,8625.52 1024.11,8107.82 1427.59,7653.6 1831.86,7198.4 2323.33,6806.9 2901.23,6600 c 126.11,-45.1 253.84,-73.2 384.33,-100.3 5.65,-1.4 11.39,-2.7 17.32,-3.6" /></g></g></svg>