<svg width="43" height="37" viewBox="0 0 43 37" fill="none" xmlns="http://www.w3.org/2000/svg">
<path d="M14.5694 3.55029C12.0686 -0.273117 5.42414 -1.33295 2.42135 1.98312C-0.690201 5.41953 -0.835104 11.5321 2.17346 15.1101C5.27237 18.7962 12.4762 18.0298 15.0945 13.8598C17.2058 10.4972 16.606 6.66437 14.5694 3.55029Z" fill="#E45D5D"/>
<path d="M40.4985 3.55029C37.9977 -0.273117 31.3536 -1.33295 28.3508 1.98312C25.2392 5.41953 25.0943 11.5321 28.1029 15.1101C31.2018 18.7962 38.4053 18.0298 41.0239 13.8598C43.1353 10.4972 42.5354 6.66437 40.4985 3.55029Z" fill="#E45D5D"/>
<path d="M12.1727 5.50553C10.6138 3.12281 6.4728 2.46154 4.60175 4.52844C2.66204 6.6705 2.5717 10.4798 4.44709 12.71C6.37849 15.0071 10.8678 14.5298 12.5 11.931C13.8161 9.83518 13.4421 7.44632 12.1727 5.50553Z" fill="#E32B2B"/>
<path d="M37.8658 5.50553C36.3073 3.12281 32.1663 2.46154 30.2948 4.52844C28.3555 6.6705 28.2651 10.4798 30.1402 12.71C32.0716 15.0071 36.5613 14.5298 38.1935 11.931C39.5092 9.83518 39.1355 7.44632 37.8658 5.50553Z" fill="#E32B2B"/>
<path d="M38.6811 19.8347C36.5466 9.70219 26.2902 2.9844 14.9547 6.51909C7.40188 8.87434 2.48865 16.8854 3.16834 24.1481C3.69952 29.8303 8.50073 34.5274 14.0633 35.9706C23.5439 38.4303 38.947 35.9789 39.0862 23.9985C39.1024 22.5618 38.9622 21.1688 38.6811 19.8347Z" fill="#E45D5D"/>
<path d="M14.2398 22.2163C15.1609 22.2163 15.9295 21.4478 15.9295 20.527C15.9295 19.606 15.1609 18.8374 14.2398 18.8374C13.3191 18.8374 12.5505 19.606 12.5505 20.527C12.5505 21.4478 13.3191 22.2163 14.2398 22.2163Z" fill="#792525"/>
<path d="M28.7856 22.2163C29.7067 22.2163 30.4753 21.4478 30.4753 20.527C30.4753 19.606 29.7067 18.8374 28.7856 18.8374C27.8649 18.8374 27.0963 19.606 27.0963 20.527C27.0963 21.4478 27.8649 22.2163 28.7856 22.2163Z" fill="#792525"/>
<path d="M28.3686 27.5888C28.3769 27.0208 28.2674 26.4629 28.073 25.9277C27.6593 23.7827 25.6285 21.9594 23.5168 21.5395C19.2775 20.6961 14.2696 24.6316 15.3327 29.2004C16.8944 35.9095 28.2801 33.7819 28.3686 27.5888Z" fill="#FFA0A0"/>
<path d="M24.3575 24.7425C24.3575 25.5252 23.3869 26.1597 22.1894 26.1597C20.9923 26.1597 20.0214 25.5252 20.0214 24.7425C20.0214 23.9602 20.9923 23.3257 22.1894 23.3257C23.3869 23.3257 24.3575 23.9602 24.3575 24.7425Z" fill="#792525"/>
<path d="M21.7035 24.9517C21.5958 25.8153 21.8697 26.6424 21.745 27.5191C21.629 28.3382 21.3006 29.4111 20.4424 29.702C19.7594 29.9332 18.8879 29.6535 18.5063 29.0483C18.3495 28.7982 18.2967 28.4904 18.2898 28.2017C18.2819 27.8573 18.5475 27.7471 18.7592 27.5465C18.8741 27.4381 18.825 27.2108 18.6624 27.1787C17.8714 27.0215 17.6177 27.9234 17.6922 28.5478C17.8038 29.4823 18.4644 30.0897 19.3464 30.3123C20.3405 30.5634 21.2471 30.1359 21.7259 29.2683C22.0048 28.7635 22.1577 28.1518 22.2155 27.5823C22.3095 26.6623 22.0179 25.8623 22.0081 24.9517C22.0063 24.7497 21.727 24.7624 21.7035 24.9517Z" fill="#792525"/>
<path d="M21.9951 24.9517C21.9868 25.7561 21.7194 26.4968 21.7599 27.3066C21.7892 27.8869 21.9236 28.5034 22.1675 29.0302C22.6629 30.1016 23.4922 30.493 24.6572 30.3123C25.5461 30.1746 26.1217 29.4682 26.2999 28.6306C26.4357 27.9928 26.1463 27.0186 25.3412 27.1787C25.1786 27.2109 25.1295 27.4381 25.2444 27.5465C25.4702 27.7605 25.6802 27.8501 25.7134 28.2017C25.7416 28.4929 25.6256 28.7943 25.4973 29.0483C25.1515 29.7302 24.2268 29.8451 23.5612 29.702C22.6734 29.5105 22.4017 28.266 22.2586 27.5191C22.0905 26.6439 22.4082 25.8179 22.3001 24.9517C22.2766 24.7624 21.9973 24.7497 21.9951 24.9517Z" fill="#792525"/>
<path d="M18.4959 8.52638L18.4734 8.49422C18.1175 7.98147 17.6257 7.63637 16.9778 7.63637C16.3299 7.63637 15.8378 7.98147 15.4819 8.49422L15.4595 8.52638C15.109 9.03155 15.1606 9.79108 15.4595 10.3013C15.7727 10.8361 16.3578 11.1721 16.9778 11.1721C17.5975 11.1721 18.1829 10.8361 18.4959 10.3013C18.7947 9.79108 18.8464 9.03155 18.4959 8.52638Z" fill="#FFFEFC"/>
<path d="M12.2818 11.1472C9.99371 12.3581 8.16819 13.7778 6.86734 16.0478C6.05504 17.4654 5.11771 19.6114 5.74103 21.2378C6.1573 22.3255 8.11002 22.2882 7.94524 20.9397C7.53837 17.6092 10.2886 13.9158 13.0016 12.378C13.8034 11.9234 13.0923 10.7183 12.2818 11.1472Z" fill="#FFFEFC"/>
<path d="M7.01084 2.03912C7.86903 2.03912 7.86903 0.708653 7.01084 0.708653C6.15264 0.708653 6.15264 2.03912 7.01084 2.03912Z" fill="#FFFEFC"/>
<path d="M5.09899 1.7244C4.22742 1.58347 3.55857 1.84906 2.92802 2.45251C2.33902 3.01729 1.78653 4.01787 2.02538 4.84969C2.17714 5.37834 2.97572 5.54093 3.24528 5.00903C3.49208 4.5223 3.71502 4.09773 4.03445 3.64894C4.17285 3.45489 4.37123 3.28939 4.55444 3.13979C4.74956 2.98043 4.84063 2.77845 5.09899 2.70979C5.55862 2.58765 5.61535 1.80823 5.09899 1.7244Z" fill="#FFFEFC"/>
<path d="M32.2408 1.09384C30.795 0.861858 29.0978 1.73775 28.9222 3.30672C28.83 4.13239 29.9643 4.25526 30.3502 3.69336C30.7484 3.1134 31.2749 2.39323 32.0641 2.40046C32.7969 2.40732 32.9956 1.21489 32.2408 1.09384Z" fill="#FFFEFC"/>
</svg>
